<svg viewBox="0 0 209 38" fill="none" xmlns="http://www.w3.org/2000/svg"><path d="M62.5169 24.5429L57.8838 17.93C57.6894 17.9515 57.3979 17.9623 57.0091 17.9623H51.89V24.5429H47.6782V1.9624H57.0091C58.9746 1.9624 60.6809 2.28498 62.1281 2.93014C63.5968 3.57529 64.72 4.50002 65.4976 5.70431C66.2751 6.9086 66.6639 8.3387 66.6639 9.9946C66.6639 11.6935 66.2428 13.1559 65.4004 14.3817C64.5796 15.6075 63.3917 16.5214 61.8365 17.1236L67.0527 24.5429H62.5169ZM62.4197 9.9946C62.4197 8.55375 61.9445 7.44623 60.9941 6.67205C60.0438 5.89786 58.6506 5.51076 56.8147 5.51076H51.89V14.5107H56.8147C58.6506 14.5107 60.0438 14.1236 60.9941 13.3494C61.9445 12.5537 62.4197 11.4355 62.4197 9.9946Z" fill="#000080"/><path d="M82.003 24.5429L77.5644 18.5752L73.0933 24.5429H68.6223L75.3613 15.801L68.9139 7.3172H73.4173L77.6616 12.9623L81.9058 7.3172H86.2797L79.7999 15.7365L86.5713 24.5429H82.003Z" fill="#000080"/><path d="M107.865 19.4139H103.945V24.5429H99.9275V19.4139H88.3611V16.5107L98.3399 1.9624H102.908L93.3829 15.8655H100.122V11.5107H103.945V15.8655H107.865V19.4139Z" fill="#000080"/><path d="M127.473 24.5429L122.84 17.93C122.645 17.9515 122.354 17.9623 121.965 17.9623H116.846V24.5429H112.634V1.9624H121.965C123.931 1.9624 125.637 2.28498 127.084 2.93014C128.553 3.57529 129.676 4.50002 130.454 5.70431C131.231 6.9086 131.62 8.3387 131.62 9.9946C131.62 11.6935 131.199 13.1559 130.356 14.3817C129.536 15.6075 128.348 16.5214 126.792 17.1236L132.009 24.5429H127.473ZM127.376 9.9946C127.376 8.55375 126.9 7.44623 125.95 6.67205C125 5.89786 123.607 5.51076 121.771 5.51076H116.846V14.5107H121.771C123.607 14.5107 125 14.1236 125.95 13.3494C126.9 12.5537 127.376 11.4355 127.376 9.9946Z" fill="#E80045"/><path d="M143.719 24.7687C141.97 24.7687 140.393 24.3923 138.989 23.6397C137.585 22.887 136.483 21.844 135.684 20.5107C134.907 19.1558 134.518 17.629 134.518 15.93C134.518 14.2311 134.907 12.715 135.684 11.3817C136.483 10.0484 137.585 9.00536 138.989 8.25268C140.393 7.5 141.97 7.12365 143.719 7.12365C145.49 7.12365 147.078 7.5 148.482 8.25268C149.886 9.00536 150.976 10.0484 151.754 11.3817C152.553 12.715 152.953 14.2311 152.953 15.93C152.953 17.629 152.553 19.1558 151.754 20.5107C150.976 21.844 149.886 22.887 148.482 23.6397C147.078 24.3923 145.49 24.7687 143.719 24.7687ZM143.719 21.3171C145.209 21.3171 146.441 20.8225 147.413 19.8332C148.385 18.844 148.871 17.5429 148.871 15.93C148.871 14.3171 148.385 13.0161 147.413 12.0268C146.441 11.0376 145.209 10.543 143.719 10.543C142.229 10.543 140.998 11.0376 140.026 12.0268C139.075 13.0161 138.6 14.3171 138.6 15.93C138.6 17.5429 139.075 18.844 140.026 19.8332C140.998 20.8225 142.229 21.3171 143.719 21.3171Z" fill="#E80045"/><path d="M173.576 7.3172V24.5429H169.72V22.3493C169.072 23.1235 168.262 23.7257 167.29 24.1558C166.318 24.5644 165.271 24.7687 164.148 24.7687C161.837 24.7687 160.011 24.1343 158.672 22.8655C157.355 21.5752 156.696 19.6719 156.696 17.1558V7.3172H160.746V16.6075C160.746 18.1558 161.091 19.3171 161.782 20.0913C162.495 20.844 163.5 21.2203 164.796 21.2203C166.243 21.2203 167.388 20.7795 168.23 19.8978C169.094 18.9945 169.526 17.7042 169.526 16.0268V7.3172H173.576Z" fill="#E80045"/><path d="M189.278 23.6074C188.803 23.9945 188.22 24.2848 187.529 24.4784C186.859 24.6719 186.146 24.7687 185.39 24.7687C183.49 24.7687 182.021 24.2741 180.984 23.2848C179.947 22.2956 179.429 20.8547 179.429 18.9623V10.672H176.578V7.44623H179.429V3.51078H183.479V7.44623H188.112V10.672H183.479V18.8655C183.479 19.7042 183.684 20.3494 184.094 20.801C184.505 21.2311 185.099 21.4461 185.876 21.4461C186.784 21.4461 187.54 21.2096 188.144 20.7365L189.278 23.6074Z" fill="#E80045"/><path d="M208.305 16.0268C208.305 16.3064 208.283 16.7042 208.24 17.2204H194.665C194.902 18.4892 195.518 19.4999 196.511 20.2526C197.526 20.9838 198.779 21.3494 200.27 21.3494C202.17 21.3494 203.736 20.7257 204.967 19.4784L207.138 21.9623C206.361 22.887 205.378 23.5859 204.19 24.059C203.002 24.5321 201.663 24.7687 200.172 24.7687C198.272 24.7687 196.598 24.3923 195.151 23.6397C193.703 22.887 192.58 21.844 191.781 20.5107C191.004 19.1558 190.615 17.629 190.615 15.93C190.615 14.2526 190.993 12.7473 191.749 11.4139C192.526 10.0591 193.595 9.00536 194.956 8.25268C196.317 7.5 197.85 7.12365 199.557 7.12365C201.242 7.12365 202.743 7.5 204.06 8.25268C205.399 8.98386 206.436 10.0269 207.171 11.3817C207.927 12.715 208.305 14.2634 208.305 16.0268ZM199.557 10.3494C198.261 10.3494 197.159 10.7365 196.252 11.5107C195.367 12.2634 194.827 13.2741 194.632 14.543H204.449C204.276 13.2957 203.747 12.2849 202.861 11.5107C201.976 10.7365 200.874 10.3494 199.557 10.3494Z" fill="#E80045"/><path d="M52.0686 35.8639L52.0611 32.4214L50.3472 35.2704H49.915L48.2011 32.4659V35.8639H47.2771V30.6704H48.0744L50.146 34.113L52.1803 30.6704H52.9777L52.9851 35.8639H52.0686Z" fill="#000080"/><path d="M59.7966 35.0552V35.8639H55.8844V30.6704H59.6923V31.4791H56.8532V32.8294H59.3719V33.6233H56.8532V35.0552H59.7966Z" fill="#000080"/><path d="M62.3669 30.6704H64.6471C65.2035 30.6704 65.6978 30.7792 66.13 30.9968C66.5622 31.2095 66.8975 31.5137 67.136 31.9094C67.3744 32.3002 67.4937 32.7527 67.4937 33.2672C67.4937 33.7816 67.3744 34.2366 67.136 34.6323C66.8975 35.0231 66.5622 35.3272 66.13 35.5449C65.6978 35.7576 65.2035 35.8639 64.6471 35.8639H62.3669V30.6704ZM64.6024 35.0478C64.9849 35.0478 65.3202 34.9761 65.6084 34.8326C65.9015 34.6842 66.125 34.4765 66.279 34.2094C66.438 33.9374 66.5175 33.6233 66.5175 33.2672C66.5175 32.911 66.438 32.5994 66.279 32.3323C66.125 32.0603 65.9015 31.8525 65.6084 31.7091C65.3202 31.5607 64.9849 31.4865 64.6024 31.4865H63.3356V35.0478H64.6024Z" fill="#000080"/><path d="M70.0136 30.6704H70.9824V35.8639H70.0136V30.6704Z" fill="#000080"/><path d="M76.298 35.9381C75.7714 35.9381 75.2945 35.8243 74.8672 35.5968C74.445 35.3643 74.1121 35.0453 73.8687 34.6397C73.6302 34.2341 73.511 33.7766 73.511 33.2672C73.511 32.7577 73.6327 32.3002 73.8762 31.8946C74.1196 31.489 74.4524 31.1724 74.8747 30.9449C75.3019 30.7124 75.7788 30.5962 76.3054 30.5962C76.7326 30.5962 77.1226 30.6704 77.4753 30.8188C77.8281 30.9672 78.1261 31.1823 78.3696 31.4643L77.7436 32.0504C77.3661 31.6448 76.9016 31.442 76.3501 31.442C75.9924 31.442 75.672 31.5211 75.3889 31.6794C75.1057 31.8328 74.8846 32.0479 74.7257 32.3249C74.5667 32.6019 74.4872 32.916 74.4872 33.2672C74.4872 33.6183 74.5667 33.9324 74.7257 34.2094C74.8846 34.4864 75.1057 34.704 75.3889 34.8623C75.672 35.0156 75.9924 35.0923 76.3501 35.0923C76.9016 35.0923 77.3661 34.887 77.7436 34.4765L78.3696 35.07C78.1261 35.352 77.8256 35.5671 77.4679 35.7155C77.1152 35.8639 76.7252 35.9381 76.298 35.9381Z" fill="#000080"/><path d="M84.062 34.662H81.4539L80.9398 35.8639H79.9412L82.2885 30.6704H83.2423L85.5971 35.8639H84.5837L84.062 34.662ZM83.7416 33.9052L82.758 31.6349L81.7818 33.9052H83.7416Z" fill="#000080"/><path d="M88.547 31.4865H86.8182V30.6704H91.2445V31.4865H89.5157V35.8639H88.547V31.4865Z" fill="#000080"/><path d="M93.4619 30.6704H94.4306V35.8639H93.4619V30.6704Z" fill="#000080"/><path d="M99.7686 35.9381C99.237 35.9381 98.7576 35.8243 98.3304 35.5968C97.9031 35.3643 97.5678 35.0453 97.3244 34.6397C97.081 34.2292 96.9593 33.7717 96.9593 33.2672C96.9593 32.7626 97.081 32.3076 97.3244 31.902C97.5678 31.4915 97.9031 31.1724 98.3304 30.9449C98.7576 30.7124 99.237 30.5962 99.7686 30.5962C100.3 30.5962 100.78 30.7124 101.207 30.9449C101.634 31.1724 101.969 31.489 102.213 31.8946C102.456 32.3002 102.578 32.7577 102.578 33.2672C102.578 33.7766 102.456 34.2341 102.213 34.6397C101.969 35.0453 101.634 35.3643 101.207 35.5968C100.78 35.8243 100.3 35.9381 99.7686 35.9381ZM99.7686 35.0923C100.116 35.0923 100.429 35.0156 100.707 34.8623C100.986 34.704 101.204 34.4864 101.363 34.2094C101.522 33.9275 101.602 33.6134 101.602 33.2672C101.602 32.9209 101.522 32.6093 101.363 32.3323C101.204 32.0504 100.986 31.8328 100.707 31.6794C100.429 31.5211 100.116 31.442 99.7686 31.442C99.4208 31.442 99.1078 31.5211 98.8296 31.6794C98.5514 31.8328 98.3329 32.0504 98.1739 32.3323C98.0149 32.6093 97.9354 32.9209 97.9354 33.2672C97.9354 33.6134 98.0149 33.9275 98.1739 34.2094C98.3329 34.4864 98.5514 34.704 98.8296 34.8623C99.1078 35.0156 99.4208 35.0923 99.7686 35.0923Z" fill="#000080"/><path d="M109.73 30.6704V35.8639H108.933L106.056 32.3472V35.8639H105.095V30.6704H105.892L108.769 34.1871V30.6704H109.73Z" fill="#000080"/><path d="M116.168 30.6704H118.448C119.005 30.6704 119.499 30.7792 119.931 30.9968C120.363 31.2095 120.699 31.5137 120.937 31.9094C121.175 32.3002 121.295 32.7527 121.295 33.2672C121.295 33.7816 121.175 34.2366 120.937 34.6323C120.699 35.0231 120.363 35.3272 119.931 35.5449C119.499 35.7576 119.005 35.8639 118.448 35.8639H116.168V30.6704ZM118.403 35.0478C118.786 35.0478 119.121 34.9761 119.409 34.8326C119.702 34.6842 119.926 34.4765 120.08 34.2094C120.239 33.9374 120.318 33.6233 120.318 33.2672C120.318 32.911 120.239 32.5994 120.08 32.3323C119.926 32.0603 119.702 31.8525 119.409 31.7091C119.121 31.5607 118.786 31.4865 118.403 31.4865H117.137V35.0478H118.403Z" fill="#000080"/><path d="M127.727 35.0552V35.8639H123.815V30.6704H127.622V31.4791H124.783V32.8294H127.302V33.6233H124.783V35.0552H127.727Z" fill="#000080"/><path d="M130.297 30.6704H131.266V35.0478H133.993V35.8639H130.297V30.6704Z" fill="#000080"/><path d="M136.248 30.6704H137.217V35.8639H136.248V30.6704Z" fill="#000080"/><path d="M144.851 30.6704L142.578 35.8639H141.624L139.344 30.6704H140.395L142.131 34.6768L143.882 30.6704H144.851Z" fill="#000080"/><path d="M150.804 35.0552V35.8639H146.892V30.6704H150.7V31.4791H147.86V32.8294H150.379V33.6233H147.86V35.0552H150.804Z" fill="#000080"/><path d="M156.787 35.8639L155.721 34.343C155.677 34.3479 155.61 34.3504 155.52 34.3504H154.343V35.8639H153.374V30.6704H155.52C155.972 30.6704 156.365 30.7446 156.698 30.893C157.035 31.0414 157.294 31.254 157.473 31.531C157.651 31.808 157.741 32.1369 157.741 32.5178C157.741 32.9086 157.644 33.2449 157.45 33.5268C157.262 33.8088 156.988 34.019 156.631 34.1575L157.83 35.8639H156.787ZM156.765 32.5178C156.765 32.1864 156.655 31.9317 156.437 31.7536C156.218 31.5756 155.898 31.4865 155.476 31.4865H154.343V33.5565H155.476C155.898 33.5565 156.218 33.4675 156.437 33.2894C156.655 33.1064 156.765 32.8492 156.765 32.5178Z" fill="#000080"/><path d="M162.493 34.0313V35.8639H161.524V34.0462L159.475 30.6704H160.511L162.038 33.2004L163.581 30.6704H164.535L162.493 34.0313Z" fill="#000080"/><path d="M171.826 35.9381C171.424 35.9381 171.034 35.8812 170.656 35.7675C170.284 35.6537 169.988 35.5028 169.769 35.3149L170.105 34.5655C170.318 34.7337 170.579 34.8722 170.887 34.981C171.2 35.0849 171.513 35.1368 171.826 35.1368C172.214 35.1368 172.502 35.075 172.69 34.9513C172.884 34.8277 172.981 34.6645 172.981 34.4617C172.981 34.3133 172.926 34.1921 172.817 34.0981C172.713 33.9992 172.579 33.9225 172.415 33.8681C172.251 33.8137 172.027 33.7519 171.744 33.6826C171.347 33.5887 171.024 33.4947 170.775 33.4007C170.532 33.3067 170.321 33.1608 170.142 32.963C169.968 32.7602 169.881 32.4881 169.881 32.1468C169.881 31.86 169.958 31.6003 170.112 31.3678C170.271 31.1304 170.507 30.9424 170.82 30.8039C171.138 30.6654 171.525 30.5962 171.983 30.5962C172.3 30.5962 172.613 30.6358 172.921 30.7149C173.229 30.794 173.495 30.9078 173.719 31.0562L173.413 31.8055C173.185 31.672 172.946 31.5706 172.698 31.5014C172.45 31.4321 172.209 31.3975 171.975 31.3975C171.593 31.3975 171.307 31.4618 171.118 31.5904C170.934 31.719 170.842 31.8896 170.842 32.1023C170.842 32.2507 170.895 32.3719 170.999 32.4659C171.108 32.5598 171.245 32.634 171.409 32.6884C171.573 32.7429 171.796 32.8047 172.079 32.8739C172.467 32.963 172.785 33.0569 173.033 33.1559C173.282 33.2498 173.493 33.3958 173.667 33.5936C173.845 33.7914 173.935 34.0585 173.935 34.3949C173.935 34.6818 173.855 34.9414 173.696 35.1739C173.542 35.4064 173.306 35.5919 172.989 35.7304C172.671 35.8689 172.283 35.9381 171.826 35.9381Z" fill="#000080"/><path d="M178.527 34.0313V35.8639H177.558V34.0462L175.509 30.6704H176.545L178.073 33.2004L179.615 30.6704H180.569L178.527 34.0313Z" fill="#000080"/><path d="M184.201 35.9381C183.799 35.9381 183.409 35.8812 183.032 35.7675C182.659 35.6537 182.363 35.5028 182.145 35.3149L182.48 34.5655C182.694 34.7337 182.955 34.8722 183.263 34.981C183.576 35.0849 183.889 35.1368 184.201 35.1368C184.589 35.1368 184.877 35.075 185.066 34.9513C185.26 34.8277 185.357 34.6645 185.357 34.4617C185.357 34.3133 185.302 34.1921 185.193 34.0981C185.088 33.9992 184.954 33.9225 184.79 33.8681C184.626 33.8137 184.403 33.7519 184.12 33.6826C183.722 33.5887 183.399 33.4947 183.151 33.4007C182.907 33.3067 182.696 33.1608 182.517 32.963C182.344 32.7602 182.257 32.4881 182.257 32.1468C182.257 31.86 182.334 31.6003 182.488 31.3678C182.647 31.1304 182.883 30.9424 183.195 30.8039C183.513 30.6654 183.901 30.5962 184.358 30.5962C184.676 30.5962 184.989 30.6358 185.297 30.7149C185.605 30.794 185.871 30.9078 186.094 31.0562L185.789 31.8055C185.56 31.672 185.322 31.5706 185.073 31.5014C184.825 31.4321 184.584 31.3975 184.351 31.3975C183.968 31.3975 183.682 31.4618 183.494 31.5904C183.31 31.719 183.218 31.8896 183.218 32.1023C183.218 32.2507 183.27 32.3719 183.374 32.4659C183.484 32.5598 183.62 32.634 183.784 32.6884C183.948 32.7429 184.172 32.8047 184.455 32.8739C184.842 32.963 185.16 33.0569 185.409 33.1559C185.657 33.2498 185.868 33.3958 186.042 33.5936C186.221 33.7914 186.31 34.0585 186.31 34.3949C186.31 34.6818 186.231 34.9414 186.072 35.1739C185.918 35.4064 185.682 35.5919 185.364 35.7304C185.046 35.8689 184.659 35.9381 184.201 35.9381Z" fill="#000080"/><path d="M189.747 31.4865H188.018V30.6704H192.444V31.4865H190.715V35.8639H189.747V31.4865Z" fill="#000080"/><path d="M198.574 35.0552V35.8639H194.662V30.6704H198.469V31.4791H195.63V32.8294H198.149V33.6233H195.63V35.0552H198.574Z" fill="#000080"/><path d="M205.935 35.8639L205.928 32.4214L204.214 35.2704H203.782L202.068 32.4659V35.8639H201.144V30.6704H201.941L204.013 34.113L206.047 30.6704H206.845L206.852 35.8639H205.935Z" fill="#000080"/><g clip-path="url(#clip0_16_6441)"><path d="M8.62799 16.4511C8.62799 19.363 10.1116 22.5328 11.7767 25.1712H2.79621C1.25211 25.1712 0 23.919 0 22.3723V15.6278C0 14.0837 1.25211 12.8315 2.79621 12.8315H9.28035C8.85948 13.9574 8.62799 15.1779 8.62799 16.4511Z" fill="#E80045"/><path d="M25.1685 2.79884V8.11505C23.4429 6.83663 21.3095 6.07905 19 6.07905C16.6904 6.07905 14.5545 6.83663 12.8289 8.11768V2.79884C12.8289 1.25211 14.081 0 15.6277 0H22.3723C23.9164 0 25.1685 1.25211 25.1685 2.79884Z" fill="#E80045"/><path d="M22.1908 30.498C22.8168 29.8009 23.9663 28.4567 25.1685 26.7574V35.2039C25.1685 36.748 23.9164 38.0001 22.3723 38.0001H15.6277C14.081 38.0001 12.8289 36.748 12.8289 35.2039V26.7495C14.0336 28.4541 15.1858 29.8009 15.8145 30.498C16.6246 31.4028 17.7873 31.921 19 31.921C20.2126 31.921 21.3779 31.4028 22.1908 30.498Z" fill="#E80045"/><path d="M38 15.6278V22.3723C38 23.919 36.7479 25.1712 35.2012 25.1712H26.226C27.891 22.5328 29.3746 19.363 29.3746 16.4511C29.3746 15.1779 29.1432 13.9574 28.7223 12.8315H35.2012C36.7479 12.8315 38 14.0837 38 15.6278Z" fill="#E80045"/><path d="M18.9974 9.33057C15.3068 9.33057 12.3054 12.332 12.3054 16.0225C12.3054 20.6022 18.295 27.3231 18.5476 27.6072C18.7869 27.8729 19.2052 27.8729 19.4446 27.6072C19.6997 27.3231 25.6867 20.5996 25.6867 16.0225C25.6867 12.332 22.6853 9.33057 18.9947 9.33057H18.9974ZM18.9974 19.3895C17.1403 19.3895 15.6304 17.8796 15.6304 16.0225C15.6304 14.1654 17.1403 12.6555 18.9974 12.6555C20.8545 12.6555 22.3644 14.1654 22.3644 16.0225C22.3644 17.8796 20.8545 19.3895 18.9974 19.3895Z" fill="#000080"/></g><defs><clipPath id="clip0_16_6441"><rect width="38" height="38" fill="white"/></clipPath></defs></svg>