<svg viewBox="0 0 28 28" fill="none" xmlns="http://www.w3.org/2000/svg"><g clip-path="url(#clip0_143_1976)"><path d="M20.9246 7.07535C18.9414 5.09221 16.3046 4 13.5 4C10.6954 4 8.05854 5.09221 6.07535 7.07535C4.09221 9.05858 3 11.6954 3 14.5C3 17.3046 4.09221 19.9414 6.07535 21.9246C8.05854 23.9078 10.6954 25 13.5 25C16.3046 25 18.9414 23.9078 20.9246 21.9246C22.9078 19.9414 24 17.3046 24 14.5C24 11.6954 22.9078 9.05858 20.9246 7.07535ZM19.9262 10.1746C20.266 10.1746 20.5414 10.45 20.5414 10.7898C20.5414 11.1296 20.266 11.405 19.9262 11.405C19.5864 11.405 19.311 11.1296 19.311 10.7898C19.311 10.45 19.5864 10.1746 19.9262 10.1746ZM17.2102 7.45856C17.5499 7.45856 17.8254 7.73402 17.8254 8.07379C17.8254 8.41357 17.5499 8.68903 17.2102 8.68903C16.8704 8.68903 16.5949 8.41357 16.5949 8.07379C16.5949 7.73402 16.8704 7.45856 17.2102 7.45856ZM13.5 6.46442C13.8398 6.46442 14.1152 6.73988 14.1152 7.07966C14.1152 7.41943 13.8398 7.69489 13.5 7.69489C13.1602 7.69489 12.8848 7.41943 12.8848 7.07966C12.8848 6.73988 13.1602 6.46442 13.5 6.46442ZM12.8848 10.0601C12.8848 9.72028 13.1602 9.44482 13.5 9.44482C13.8398 9.44482 14.1152 9.72028 14.1152 10.0601V14.1448L17.5178 16.1093C17.8121 16.2792 17.9129 16.6554 17.743 16.9497C17.629 17.1471 17.4222 17.2574 17.2096 17.2574C17.1052 17.2574 16.9995 17.2309 16.9026 17.1749L13.1924 15.0328C13.002 14.9229 12.8848 14.7198 12.8848 14.5V10.0601ZM9.78981 7.45856C10.1296 7.45856 10.405 7.73402 10.405 8.07379C10.405 8.41357 10.1296 8.68903 9.78981 8.68903C9.45004 8.68903 9.17457 8.41357 9.17457 8.07379C9.17457 7.73402 9.45004 7.45856 9.78981 7.45856ZM18.0908 21.1002C16.7466 22.0361 15.137 22.5355 13.4972 22.5355C13.2737 22.5355 13.0496 22.5262 12.8256 22.5075C10.935 22.3496 9.15567 21.5246 7.81552 20.1844C6.51922 18.8882 5.69994 17.1695 5.5086 15.3452C5.32013 13.5482 5.74423 11.723 6.70281 10.206C6.88434 9.91872 7.26431 9.83304 7.55155 10.0145C7.83878 10.196 7.9245 10.576 7.74301 10.8632C6.05833 13.5294 6.45475 17.0836 8.68559 19.3144C10.0049 20.6337 11.7476 21.3117 13.5022 21.3118C14.8527 21.3118 16.2101 20.9103 17.3878 20.0904C17.6667 19.8962 18.0501 19.965 18.2442 20.2438C18.4384 20.5227 18.3697 20.9061 18.0908 21.1002ZM19.9262 18.8254C19.5864 18.8254 19.311 18.5499 19.311 18.2102C19.311 17.8704 19.5864 17.5949 19.9262 17.5949C20.266 17.5949 20.5414 17.8704 20.5414 18.2102C20.5414 18.55 20.266 18.8254 19.9262 18.8254ZM20.9203 15.1152C20.5806 15.1152 20.3051 14.8398 20.3051 14.5C20.3051 14.1602 20.5806 13.8848 20.9203 13.8848C21.2601 13.8848 21.5356 14.1602 21.5356 14.5C21.5356 14.8398 21.2601 15.1152 20.9203 15.1152Z" fill="#4AA3EF"/></g><defs><clipPath id="clip0_143_1976"><rect width="21" height="21" fill="white" transform="translate(3 4)"/></clipPath></defs></svg>