<svg viewBox="0 0 32 32" xmlns="http://www.w3.org/2000/svg"><path d="M16 20C17.0609 20 18.0783 19.5786 18.8284 18.8284C19.5786 18.0783 20 17.0609 20 16C20 14.9391 19.5786 13.9217 18.8284 13.1716C18.0783 12.4214 17.0609 12 16 12C14.9391 12 13.9217 12.4214 13.1716 13.1716C12.4214 13.9217 12 14.9391 12 16C12 17.0609 12.4214 18.0783 13.1716 18.8284C13.9217 19.5786 14.9391 20 16 20Z"/><path d="M30.68 14.912C29.0254 12.3547 26.88 10.1827 24.4747 8.62933C21.8134 6.90933 18.876 6 15.98 6C13.3227 6 10.7094 6.76 8.21337 8.25733C5.66671 9.784 3.36004 12.0147 1.35871 14.8867C1.13251 15.2112 1.00793 15.5957 1.00081 15.9912C0.993689 16.3868 1.10434 16.7755 1.31871 17.108C2.96937 19.6907 5.09204 21.8667 7.46004 23.3987C10.1267 25.1253 12.9947 26 15.98 26C18.9 26 21.8427 25.0987 24.492 23.392C26.896 21.8453 29.0387 19.664 30.6854 17.0853C30.8923 16.7604 31.0017 16.3829 31.0005 15.9977C30.9993 15.6125 30.889 15.2357 30.68 14.912ZM16 22C14.4087 22 12.8826 21.3679 11.7574 20.2426C10.6322 19.1174 10 17.5913 10 16C10 14.4087 10.6322 12.8826 11.7574 11.7574C12.8826 10.6321 14.4087 10 16 10C17.5913 10 19.1175 10.6321 20.2427 11.7574C21.3679 12.8826 22 14.4087 22 16C22 17.5913 21.3679 19.1174 20.2427 20.2426C19.1175 21.3679 17.5913 22 16 22Z"/></svg>