<svg viewBox="0 0 275 50" fill="none" xmlns="http://www.w3.org/2000/svg"><path d="M82.2589 32.2947L76.1628 23.5935C75.907 23.6218 75.5233 23.636 75.0118 23.636H68.2762V32.2947H62.7343V2.5835H75.0118C77.598 2.5835 79.8432 3.00794 81.7473 3.85683C83.6799 4.70572 85.1577 5.92246 86.1809 7.50706C87.204 9.09166 87.7155 10.9734 87.7155 13.1522C87.7155 15.3876 87.1614 17.3117 86.053 18.9246C84.973 20.5375 83.4099 21.7401 81.3637 22.5324L88.2271 32.2947H82.2589ZM82.131 13.1522C82.131 11.2563 81.5058 9.79906 80.2553 8.7804C79.0048 7.76173 77.1717 7.25239 74.756 7.25239H68.2762V19.0944H74.756C77.1717 19.0944 79.0048 18.5851 80.2553 17.5664C81.5058 16.5194 82.131 15.048 82.131 13.1522Z" fill="white"/><path d="M107.899 32.2947L102.058 24.4424L96.1753 32.2947H90.2923L99.1594 20.7922L90.676 9.62928H96.6016L102.186 17.0571L107.771 9.62928H113.526L105 20.7073L113.909 32.2947H107.899Z" fill="white"/><path d="M141.928 25.546H136.769V32.2947H131.483V25.546H116.264V21.726L129.394 2.5835H135.405L122.872 20.8771H131.739V15.1471H136.769V20.8771H141.928V25.546Z" fill="white"/><path d="M167.727 32.2947L161.631 23.5935C161.375 23.6218 160.992 23.636 160.48 23.636H153.745V32.2947H148.203V2.5835H160.48C163.066 2.5835 165.312 3.00794 167.216 3.85683C169.148 4.70572 170.626 5.92246 171.649 7.50706C172.672 9.09166 173.184 10.9734 173.184 13.1522C173.184 15.3876 172.63 17.3117 171.521 18.9246C170.441 20.5375 168.878 21.7401 166.832 22.5324L173.695 32.2947H167.727ZM167.599 13.1522C167.599 11.2563 166.974 9.79906 165.724 8.7804C164.473 7.76173 162.64 7.25239 160.224 7.25239H153.745V19.0944H160.224C162.64 19.0944 164.473 18.5851 165.724 17.5664C166.974 16.5194 167.599 15.048 167.599 13.1522Z" fill="white"/><path d="M189.104 32.5918C186.802 32.5918 184.727 32.0966 182.88 31.1062C181.033 30.1158 179.583 28.7435 178.532 26.9891C177.509 25.2064 176.997 23.1974 176.997 20.962C176.997 18.7266 177.509 16.7317 178.532 14.9773C179.583 13.2229 181.033 11.8505 182.88 10.8602C184.727 9.8698 186.802 9.37462 189.104 9.37462C191.434 9.37462 193.523 9.8698 195.371 10.8602C197.218 11.8505 198.653 13.2229 199.676 14.9773C200.728 16.7317 201.254 18.7266 201.254 20.962C201.254 23.1974 200.728 25.2064 199.676 26.9891C198.653 28.7435 197.218 30.1158 195.371 31.1062C193.523 32.0966 191.434 32.5918 189.104 32.5918ZM189.104 28.0502C191.065 28.0502 192.685 27.3994 193.964 26.0978C195.243 24.7961 195.882 23.0842 195.882 20.962C195.882 18.8397 195.243 17.1278 193.964 15.8262C192.685 14.5245 191.065 13.8737 189.104 13.8737C187.143 13.8737 185.523 14.5245 184.244 15.8262C182.994 17.1278 182.368 18.8397 182.368 20.962C182.368 23.0842 182.994 24.7961 184.244 26.0978C185.523 27.3994 187.143 28.0502 189.104 28.0502Z" fill="white"/><path d="M228.389 9.62928V32.2947H223.316V29.4084C222.463 30.4271 221.398 31.2194 220.119 31.7853C218.84 32.323 217.461 32.5918 215.984 32.5918C212.943 32.5918 210.541 31.757 208.779 30.0875C207.045 28.3898 206.179 25.8855 206.179 22.5749V9.62928H211.507V21.8533C211.507 23.8906 211.962 25.4186 212.872 26.4373C213.809 27.4277 215.131 27.9229 216.836 27.9229C218.74 27.9229 220.247 27.3428 221.355 26.1826C222.492 24.9942 223.06 23.2964 223.06 21.0893V9.62928H228.389Z" fill="white"/><path d="M249.05 31.0638C248.425 31.5731 247.658 31.9551 246.748 32.2098C245.867 32.4644 244.929 32.5918 243.935 32.5918C241.434 32.5918 239.501 31.9409 238.137 30.6393C236.773 29.3377 236.091 27.4418 236.091 24.9518V14.0435H232.339V9.79906H236.091V4.62083H241.419V9.79906H247.515V14.0435H241.419V24.8244C241.419 25.928 241.689 26.7769 242.229 27.3711C242.769 27.937 243.551 28.22 244.574 28.22C245.768 28.22 246.762 27.9087 247.558 27.2862L249.05 31.0638Z" fill="white"/><path d="M274.085 21.0893C274.085 21.4572 274.056 21.9806 273.999 22.6597H256.137C256.45 24.3292 257.26 25.6592 258.567 26.6495C259.903 27.6116 261.551 28.0926 263.512 28.0926C266.013 28.0926 268.074 27.2721 269.694 25.6309L272.55 28.8991C271.527 30.1158 270.234 31.0355 268.671 31.658C267.108 32.2805 265.346 32.5918 263.385 32.5918C260.884 32.5918 258.681 32.0966 256.777 31.1062C254.873 30.1158 253.395 28.7435 252.343 26.9891C251.32 25.2064 250.809 23.1974 250.809 20.962C250.809 18.7549 251.306 16.7741 252.301 15.0197C253.324 13.2371 254.731 11.8505 256.521 10.8602C258.312 9.8698 260.329 9.37462 262.575 9.37462C264.791 9.37462 266.767 9.8698 268.5 10.8602C270.262 11.8223 271.626 13.1946 272.593 14.9773C273.587 16.7317 274.085 18.769 274.085 21.0893ZM262.575 13.6191C260.869 13.6191 259.42 14.1284 258.226 15.1471C257.061 16.1374 256.351 17.4674 256.095 19.1369H269.012C268.784 17.4957 268.088 16.1657 266.923 15.1471C265.758 14.1284 264.308 13.6191 262.575 13.6191Z" fill="white"/><path d="M68.5111 47.1907L68.5013 42.6611L66.2462 46.4098H65.6775L63.4224 42.7196V47.1907H62.2065V40.3572H63.2557L65.9814 44.8869L68.6582 40.3572H69.7073L69.7171 47.1907H68.5111Z" fill="white"/><path d="M78.6796 46.1267V47.1907H73.532V40.3572H78.5423V41.4213H74.8066V43.198H78.1207V44.2425H74.8066V46.1267H78.6796Z" fill="white"/><path d="M82.0615 40.3572H85.0618C85.7939 40.3572 86.4443 40.5004 87.013 40.7867C87.5817 41.0666 88.0229 41.4668 88.3367 41.9875C88.6504 42.5016 88.8073 43.0971 88.8073 43.774C88.8073 44.4508 88.6504 45.0496 88.3367 45.5702C88.0229 46.0844 87.5817 46.4846 87.013 46.771C86.4443 47.0508 85.7939 47.1907 85.0618 47.1907H82.0615V40.3572ZM85.003 46.1169C85.5063 46.1169 85.9475 46.0225 86.3267 45.8338C86.7123 45.6385 87.0065 45.3652 87.2091 45.0138C87.4183 44.6558 87.5229 44.2425 87.5229 43.774C87.5229 43.3054 87.4183 42.8954 87.2091 42.5439C87.0065 42.186 86.7123 41.9126 86.3267 41.7239C85.9475 41.5286 85.5063 41.431 85.003 41.431H83.3362V46.1169H85.003Z" fill="white"/><path d="M92.1231 40.3572H93.3977V47.1907H92.1231V40.3572Z" fill="white"/><path d="M100.392 47.2884C99.699 47.2884 99.0715 47.1387 98.5093 46.8393C97.9537 46.5334 97.5158 46.1136 97.1955 45.58C96.8817 45.0463 96.7249 44.4443 96.7249 43.774C96.7249 43.1036 96.885 42.5016 97.2053 41.9679C97.5256 41.4343 97.9635 41.0178 98.5192 40.7184C99.0813 40.4125 99.7088 40.2596 100.402 40.2596C100.964 40.2596 101.477 40.3572 101.941 40.5524C102.405 40.7477 102.797 41.0308 103.118 41.4017L102.294 42.1729C101.797 41.6393 101.186 41.3724 100.461 41.3724C99.9899 41.3724 99.5683 41.4766 99.1957 41.6848C98.8231 41.8866 98.5322 42.1697 98.3231 42.5342C98.1139 42.8986 98.0093 43.3119 98.0093 43.774C98.0093 44.236 98.1139 44.6493 98.3231 45.0138C98.5322 45.3782 98.8231 45.6646 99.1957 45.8728C99.5683 46.0746 99.9899 46.1755 100.461 46.1755C101.186 46.1755 101.797 45.9054 102.294 45.3652L103.118 46.1462C102.797 46.5171 102.402 46.8003 101.931 46.9955C101.467 47.1907 100.954 47.2884 100.392 47.2884Z" fill="white"/><path d="M110.608 45.6093H107.176L106.5 47.1907H105.186L108.274 40.3572H109.529L112.628 47.1907H111.294L110.608 45.6093ZM110.186 44.6135L108.892 41.6263L107.607 44.6135H110.186Z" fill="white"/><path d="M116.509 41.431H114.234V40.3572H120.058V41.431H117.784V47.1907H116.509V41.431Z" fill="white"/><path d="M122.976 40.3572H124.251V47.1907H122.976V40.3572Z" fill="white"/><path d="M131.274 47.2884C130.575 47.2884 129.944 47.1387 129.382 46.8393C128.82 46.5334 128.379 46.1136 128.058 45.58C127.738 45.0398 127.578 44.4378 127.578 43.774C127.578 43.1101 127.738 42.5114 128.058 41.9777C128.379 41.4375 128.82 41.0178 129.382 40.7184C129.944 40.4125 130.575 40.2596 131.274 40.2596C131.974 40.2596 132.604 40.4125 133.167 40.7184C133.729 41.0178 134.17 41.4343 134.49 41.9679C134.811 42.5016 134.971 43.1036 134.971 43.774C134.971 44.4443 134.811 45.0463 134.49 45.58C134.17 46.1136 133.729 46.5334 133.167 46.8393C132.604 47.1387 131.974 47.2884 131.274 47.2884ZM131.274 46.1755C131.732 46.1755 132.144 46.0746 132.51 45.8728C132.876 45.6646 133.163 45.3782 133.373 45.0138C133.582 44.6428 133.686 44.2295 133.686 43.774C133.686 43.3184 133.582 42.9084 133.373 42.5439C133.163 42.173 132.876 41.8866 132.51 41.6848C132.144 41.4766 131.732 41.3724 131.274 41.3724C130.817 41.3724 130.405 41.4766 130.039 41.6848C129.673 41.8866 129.385 42.173 129.176 42.5439C128.967 42.9084 128.862 43.3184 128.862 43.774C128.862 44.2295 128.967 44.6428 129.176 45.0138C129.385 45.3782 129.673 45.6646 130.039 45.8728C130.405 46.0746 130.817 46.1755 131.274 46.1755Z" fill="white"/><path d="M144.381 40.3572V47.1907H143.332L139.548 42.5634V47.1907H138.283V40.3572H139.332L143.117 44.9845V40.3572H144.381Z" fill="white"/><path d="M152.852 40.3572H155.853C156.585 40.3572 157.235 40.5004 157.804 40.7867C158.372 41.0666 158.814 41.4668 159.127 41.9875C159.441 42.5016 159.598 43.0971 159.598 43.774C159.598 44.4508 159.441 45.0496 159.127 45.5702C158.814 46.0844 158.372 46.4846 157.804 46.771C157.235 47.0508 156.585 47.1907 155.853 47.1907H152.852V40.3572ZM155.794 46.1169C156.297 46.1169 156.738 46.0225 157.117 45.8338C157.503 45.6385 157.797 45.3652 158 45.0138C158.209 44.6558 158.314 44.2425 158.314 43.774C158.314 43.3054 158.209 42.8954 158 42.5439C157.797 42.186 157.503 41.9126 157.117 41.7239C156.738 41.5286 156.297 41.431 155.794 41.431H154.127V46.1169H155.794Z" fill="white"/><path d="M168.061 46.1267V47.1907H162.914V40.3572H167.924V41.4213H164.188V43.198H167.503V44.2425H164.188V46.1267H168.061Z" fill="white"/><path d="M171.443 40.3572H172.718V46.1169H176.307V47.1907H171.443V40.3572Z" fill="white"/><path d="M179.274 40.3572H180.549V47.1907H179.274V40.3572Z" fill="white"/><path d="M190.593 40.3572L187.603 47.1907H186.348L183.347 40.3572H184.73L187.014 45.6288L189.319 40.3572H190.593Z" fill="white"/><path d="M198.426 46.1267V47.1907H193.278V40.3572H198.289V41.4213H194.553V43.198H197.867V44.2425H194.553V46.1267H198.426Z" fill="white"/><path d="M206.299 47.1907L204.897 45.1895C204.838 45.196 204.749 45.1992 204.632 45.1992H203.083V47.1907H201.808V40.3572H204.632C205.227 40.3572 205.743 40.4548 206.181 40.65C206.625 40.8453 206.965 41.1251 207.201 41.4896C207.436 41.854 207.554 42.2868 207.554 42.788C207.554 43.3021 207.426 43.7447 207.171 44.1156C206.923 44.4866 206.563 44.7632 206.093 44.9454L207.671 47.1907H206.299ZM206.269 42.788C206.269 42.3519 206.125 42.0168 205.838 41.7825C205.55 41.5482 205.129 41.431 204.573 41.431H203.083V44.1547H204.573C205.129 44.1547 205.55 44.0375 205.838 43.8032C206.125 43.5624 206.269 43.224 206.269 42.788Z" fill="white"/><path d="M213.806 44.7795V47.1907H212.531V44.799L209.835 40.3572H211.198L213.208 43.6861L215.238 40.3572H216.493L213.806 44.7795Z" fill="white"/><path d="M226.087 47.2884C225.557 47.2884 225.044 47.2135 224.547 47.0638C224.057 46.9141 223.668 46.7156 223.381 46.4683L223.822 45.4823C224.103 45.7036 224.446 45.8859 224.851 46.029C225.263 46.1657 225.675 46.234 226.087 46.234C226.597 46.234 226.976 46.1527 227.224 45.99C227.479 45.8273 227.607 45.6125 227.607 45.3457C227.607 45.1504 227.535 44.991 227.391 44.8673C227.254 44.7372 227.077 44.6363 226.861 44.5647C226.646 44.4931 226.351 44.4118 225.979 44.3206C225.456 44.197 225.031 44.0733 224.704 43.9497C224.384 43.826 224.106 43.634 223.871 43.3737C223.642 43.1069 223.528 42.7489 223.528 42.2999C223.528 41.9224 223.629 41.5807 223.832 41.2748C224.041 40.9624 224.351 40.7151 224.763 40.5329C225.181 40.3507 225.691 40.2596 226.293 40.2596C226.711 40.2596 227.123 40.3116 227.528 40.4157C227.933 40.5199 228.283 40.6696 228.577 40.8648L228.175 41.8508C227.875 41.6751 227.561 41.5417 227.234 41.4505C226.907 41.3594 226.59 41.3139 226.283 41.3139C225.779 41.3139 225.404 41.3985 225.155 41.5677C224.913 41.7369 224.792 41.9614 224.792 42.2413C224.792 42.4365 224.861 42.596 224.998 42.7196C225.142 42.8433 225.322 42.9409 225.538 43.0125C225.753 43.0841 226.048 43.1654 226.42 43.2566C226.93 43.3737 227.348 43.4974 227.675 43.6275C228.002 43.7512 228.28 43.9432 228.509 44.2035C228.744 44.4638 228.862 44.8153 228.862 45.2578C228.862 45.6353 228.757 45.977 228.548 46.2829C228.345 46.5887 228.035 46.8328 227.616 47.015C227.198 47.1972 226.688 47.2884 226.087 47.2884Z" fill="white"/><path d="M234.904 44.7795V47.1907H233.629V44.799L230.933 40.3572H232.296L234.306 43.6861L236.335 40.3572H237.59L234.904 44.7795Z" fill="white"/><path d="M242.37 47.2884C241.841 47.2884 241.328 47.2135 240.831 47.0638C240.341 46.9141 239.952 46.7156 239.664 46.4683L240.105 45.4823C240.386 45.7036 240.729 45.8859 241.135 46.029C241.547 46.1657 241.958 46.234 242.37 46.234C242.88 46.234 243.259 46.1527 243.508 45.99C243.762 45.8273 243.89 45.6125 243.89 45.3457C243.89 45.1504 243.818 44.991 243.674 44.8673C243.537 44.7372 243.36 44.6363 243.145 44.5647C242.929 44.4931 242.635 44.4118 242.262 44.3206C241.739 44.197 241.315 44.0733 240.988 43.9497C240.667 43.826 240.39 43.634 240.154 43.3737C239.925 43.1069 239.811 42.7489 239.811 42.2999C239.811 41.9224 239.912 41.5807 240.115 41.2748C240.324 40.9624 240.635 40.7151 241.047 40.5329C241.465 40.3507 241.975 40.2596 242.576 40.2596C242.994 40.2596 243.406 40.3116 243.812 40.4157C244.217 40.5199 244.566 40.6696 244.861 40.8648L244.459 41.8508C244.158 41.6751 243.844 41.5417 243.517 41.4505C243.191 41.3594 242.874 41.3139 242.566 41.3139C242.063 41.3139 241.687 41.3985 241.439 41.5677C241.197 41.7369 241.076 41.9614 241.076 42.2413C241.076 42.4365 241.145 42.596 241.282 42.7196C241.426 42.8433 241.605 42.9409 241.821 43.0125C242.037 43.0841 242.331 43.1654 242.704 43.2566C243.213 43.3737 243.632 43.4974 243.959 43.6275C244.285 43.7512 244.563 43.9432 244.792 44.2035C245.027 44.4638 245.145 44.8153 245.145 45.2578C245.145 45.6353 245.04 45.977 244.831 46.2829C244.629 46.5887 244.318 46.8328 243.9 47.015C243.481 47.1972 242.972 47.2884 242.37 47.2884Z" fill="white"/><path d="M249.666 41.431H247.392V40.3572H253.216V41.431H250.941V47.1907H249.666V41.431Z" fill="white"/><path d="M261.281 46.1267V47.1907H256.133V40.3572H261.144V41.4213H257.408V43.198H260.722V44.2425H257.408V46.1267H261.281Z" fill="white"/><path d="M270.967 47.1907L270.958 42.6611L268.703 46.4098H268.134L265.879 42.7196V47.1907H264.663V40.3572H265.712L268.438 44.8869L271.115 40.3572H272.164L272.173 47.1907H270.967Z" fill="white"/><g clip-path="url(#clip0_23_6329)"><path d="M11.3526 21.6464C11.3526 25.4779 13.3047 29.6486 15.4956 33.1201H3.67922C1.64751 33.1201 0 31.4726 0 29.4374V20.563C0 18.5313 1.64751 16.8838 3.67922 16.8838H12.211C11.6572 18.3652 11.3526 19.9711 11.3526 21.6464Z" fill="white"/><path d="M33.1165 3.68268V10.6777C30.8459 8.99557 28.0389 7.99875 25 7.99875C21.9611 7.99875 19.1507 8.99557 16.8801 10.6812V3.68268C16.8801 1.64751 18.5276 0 20.5628 0H29.4372C31.4689 0 33.1165 1.64751 33.1165 3.68268Z" fill="white"/><path d="M29.1984 40.1289C30.0222 39.2117 31.5347 37.4431 33.1165 35.2072V46.321C33.1165 48.3527 31.4689 50.0002 29.4372 50.0002H20.5628C18.5276 50.0002 16.8801 48.3527 16.8801 46.321V35.1968C18.4653 37.4396 19.9813 39.2117 20.8085 40.1289C21.8746 41.3196 23.4044 42.0014 25 42.0014C26.5956 42.0014 28.1289 41.3196 29.1984 40.1289Z" fill="white"/><path d="M50 20.563V29.4374C50 31.4726 48.3525 33.1201 46.3173 33.1201H34.5078C36.6987 29.6486 38.6508 25.4779 38.6508 21.6464C38.6508 19.9711 38.3462 18.3652 37.7925 16.8838H46.3173C48.3525 16.8838 50 18.5313 50 20.563Z" fill="white"/><path d="M24.9966 12.2769C20.1406 12.2769 16.1914 16.226 16.1914 21.0821C16.1914 27.1079 24.0725 35.9512 24.4048 36.325C24.7197 36.6746 25.27 36.6746 25.585 36.325C25.9207 35.9512 33.7984 27.1045 33.7984 21.0821C33.7984 16.226 29.8492 12.2769 24.9932 12.2769H24.9966ZM24.9966 25.5124C22.553 25.5124 20.5663 23.5256 20.5663 21.0821C20.5663 18.6385 22.553 16.6518 24.9966 16.6518C27.4402 16.6518 29.4269 18.6385 29.4269 21.0821C29.4269 23.5256 27.4402 25.5124 24.9966 25.5124Z" fill="white"/></g><defs><clipPath id="clip0_23_6329"><rect width="50" height="50" fill="white"/></clipPath></defs></svg>