<svg viewBox="0 0 20 20" fill="none" xmlns="http://www.w3.org/2000/svg"><path d="M18.75 4.99999C18.75 4.33695 18.4866 3.70106 18.0178 3.23222C17.5489 2.76338 16.913 2.49999 16.25 2.49999H15.625V1.89165C15.625 1.55499 15.3667 1.26665 15.03 1.24999C14.9455 1.24593 14.8611 1.25906 14.7818 1.2886C14.7025 1.31813 14.6301 1.36345 14.5688 1.4218C14.5076 1.48016 14.4588 1.55034 14.4255 1.6281C14.3922 1.70585 14.375 1.78956 14.375 1.87415V2.49999H5.625V1.89165C5.625 1.55499 5.36667 1.26665 5.03 1.24999C4.94551 1.24593 4.86107 1.25906 4.7818 1.2886C4.70253 1.31813 4.63008 1.36345 4.56884 1.4218C4.5076 1.48016 4.45884 1.55034 4.42552 1.6281C4.3922 1.70585 4.37502 1.78956 4.375 1.87415V2.49999H3.75C3.08696 2.49999 2.45108 2.76338 1.98224 3.23222C1.51339 3.70106 1.25 4.33695 1.25 4.99999V5.46832C1.24989 5.48893 1.25387 5.50935 1.2617 5.52841C1.26954 5.54746 1.28107 5.56478 1.29564 5.57935C1.31021 5.59392 1.32753 5.60545 1.34658 5.61329C1.36564 5.62112 1.38606 5.6251 1.40667 5.62499H18.5942C18.6356 5.62477 18.6752 5.60816 18.7044 5.57881C18.7336 5.54945 18.75 5.50973 18.75 5.46832V4.99999Z" fill="#4AA3EF"/><path d="M1.25 16.3333C1.25 16.9964 1.51339 17.6323 1.98223 18.1011C2.45107 18.57 3.08696 18.8333 3.75 18.8333H16.25C16.913 18.8333 17.5489 18.57 18.0178 18.1011C18.4866 17.6323 18.75 16.9964 18.75 16.3333V7.07501C18.75 7.04407 18.7377 7.01439 18.7158 6.99251C18.694 6.97064 18.6643 6.95834 18.6333 6.95834H1.36667C1.33572 6.95834 1.30605 6.97064 1.28417 6.99251C1.26229 7.01439 1.25 7.04407 1.25 7.07501V16.3333ZM14.6875 8.20834C14.9361 8.20834 15.1746 8.30712 15.3504 8.48293C15.5262 8.65875 15.625 8.8972 15.625 9.14584C15.625 9.39448 15.5262 9.63294 15.3504 9.80876C15.1746 9.98457 14.9361 10.0833 14.6875 10.0833C14.4389 10.0833 14.2004 9.98457 14.0246 9.80876C13.8488 9.63294 13.75 9.39448 13.75 9.14584C13.75 8.8972 13.8488 8.65875 14.0246 8.48293C14.2004 8.30712 14.4389 8.20834 14.6875 8.20834ZM14.6875 11.3333C14.9361 11.3333 15.1746 11.4321 15.3504 11.6079C15.5262 11.7837 15.625 12.0222 15.625 12.2708C15.625 12.5195 15.5262 12.7579 15.3504 12.9338C15.1746 13.1096 14.9361 13.2083 14.6875 13.2083C14.4389 13.2083 14.2004 13.1096 14.0246 12.9338C13.8488 12.7579 13.75 12.5195 13.75 12.2708C13.75 12.0222 13.8488 11.7837 14.0246 11.6079C14.2004 11.4321 14.4389 11.3333 14.6875 11.3333ZM11.5625 8.20834C11.8111 8.20834 12.0496 8.30712 12.2254 8.48293C12.4012 8.65875 12.5 8.8972 12.5 9.14584C12.5 9.39448 12.4012 9.63294 12.2254 9.80876C12.0496 9.98457 11.8111 10.0833 11.5625 10.0833C11.3139 10.0833 11.0754 9.98457 10.8996 9.80876C10.7238 9.63294 10.625 9.39448 10.625 9.14584C10.625 8.8972 10.7238 8.65875 10.8996 8.48293C11.0754 8.30712 11.3139 8.20834 11.5625 8.20834ZM11.5625 11.3333C11.8111 11.3333 12.0496 11.4321 12.2254 11.6079C12.4012 11.7837 12.5 12.0222 12.5 12.2708C12.5 12.5195 12.4012 12.7579 12.2254 12.9338C12.0496 13.1096 11.8111 13.2083 11.5625 13.2083C11.3139 13.2083 11.0754 13.1096 10.8996 12.9338C10.7238 12.7579 10.625 12.5195 10.625 12.2708C10.625 12.0222 10.7238 11.7837 10.8996 11.6079C11.0754 11.4321 11.3139 11.3333 11.5625 11.3333ZM11.5625 14.4583C11.8111 14.4583 12.0496 14.5571 12.2254 14.7329C12.4012 14.9087 12.5 15.1472 12.5 15.3958C12.5 15.6445 12.4012 15.8829 12.2254 16.0588C12.0496 16.2346 11.8111 16.3333 11.5625 16.3333C11.3139 16.3333 11.0754 16.2346 10.8996 16.0588C10.7238 15.8829 10.625 15.6445 10.625 15.3958C10.625 15.1472 10.7238 14.9087 10.8996 14.7329C11.0754 14.5571 11.3139 14.4583 11.5625 14.4583ZM8.4375 11.3333C8.68614 11.3333 8.9246 11.4321 9.10041 11.6079C9.27623 11.7837 9.375 12.0222 9.375 12.2708C9.375 12.5195 9.27623 12.7579 9.10041 12.9338C8.9246 13.1096 8.68614 13.2083 8.4375 13.2083C8.18886 13.2083 7.9504 13.1096 7.77459 12.9338C7.59877 12.7579 7.5 12.5195 7.5 12.2708C7.5 12.0222 7.59877 11.7837 7.77459 11.6079C7.9504 11.4321 8.18886 11.3333 8.4375 11.3333ZM8.4375 14.4583C8.68614 14.4583 8.9246 14.5571 9.10041 14.7329C9.27623 14.9087 9.375 15.1472 9.375 15.3958C9.375 15.6445 9.27623 15.8829 9.10041 16.0588C8.9246 16.2346 8.68614 16.3333 8.4375 16.3333C8.18886 16.3333 7.9504 16.2346 7.77459 16.0588C7.59877 15.8829 7.5 15.6445 7.5 15.3958C7.5 15.1472 7.59877 14.9087 7.77459 14.7329C7.9504 14.5571 8.18886 14.4583 8.4375 14.4583ZM5.3125 11.3333C5.56114 11.3333 5.7996 11.4321 5.97541 11.6079C6.15123 11.7837 6.25 12.0222 6.25 12.2708C6.25 12.5195 6.15123 12.7579 5.97541 12.9338C5.7996 13.1096 5.56114 13.2083 5.3125 13.2083C5.06386 13.2083 4.8254 13.1096 4.64959 12.9338C4.47377 12.7579 4.375 12.5195 4.375 12.2708C4.375 12.0222 4.47377 11.7837 4.64959 11.6079C4.8254 11.4321 5.06386 11.3333 5.3125 11.3333ZM5.3125 14.4583C5.56114 14.4583 5.7996 14.5571 5.97541 14.7329C6.15123 14.9087 6.25 15.1472 6.25 15.3958C6.25 15.6445 6.15123 15.8829 5.97541 16.0588C5.7996 16.2346 5.56114 16.3333 5.3125 16.3333C5.06386 16.3333 4.8254 16.2346 4.64959 16.0588C4.47377 15.8829 4.375 15.6445 4.375 15.3958C4.375 15.1472 4.47377 14.9087 4.64959 14.7329C4.8254 14.5571 5.06386 14.4583 5.3125 14.4583Z" fill="#4AA3EF"/></svg>