<svg viewBox="0 0 28 28" fill="none" xmlns="http://www.w3.org/2000/svg"><path d="M11.9714 9.55133C9.32369 9.55133 7.16968 11.7054 7.16968 14.353V14.4153C6.7304 13.9534 6.45628 13.3328 6.45628 12.6469V7.80172C6.45628 6.38386 7.61002 5.23008 9.02787 5.23008C10.446 5.23008 11.5998 6.38386 11.5998 7.80172V8.08516C11.7236 8.07753 11.8462 8.06435 11.9714 8.06435C12.618 8.06435 13.2423 8.16327 13.8299 8.34508V7.80176C13.83 5.15405 11.6759 3 9.02791 3C6.38021 3 4.2262 5.15405 4.2262 7.80172V12.6469C4.2262 14.6358 5.44215 16.346 7.16972 17.0739V19.1983C7.16972 21.8459 9.32373 24 11.9714 24C14.6194 24 16.7735 21.8459 16.7735 19.1983L16.7738 14.353C16.7737 11.7061 14.6201 9.55133 11.9714 9.55133ZM14.5434 16.3744C14.5434 16.9571 14.5434 17.1673 14.5434 17.1762C14.5434 17.6132 14.5434 18.2567 14.5434 19.1983C14.5434 20.6161 13.3896 21.7699 11.9714 21.7699C10.5535 21.7699 9.39981 20.6161 9.39981 19.1983V17.43C10.9324 17.3117 12.2639 16.4732 13.0568 15.251V14.353C13.0568 13.755 12.5701 13.2684 11.9714 13.2684C11.7965 13.2684 11.6285 13.3133 11.4768 13.3914C11.1906 14.3288 10.3905 15.0353 9.39985 15.1811V14.353C9.39985 12.9918 10.538 11.7814 11.9714 11.7814C13.3882 11.7814 14.5434 12.9337 14.5434 14.353C14.5434 15.2946 14.5434 15.9375 14.5434 16.3744Z" fill="#4AA3EF"/></svg>