<svg viewBox="0 0 40 40" fill="none" xmlns="http://www.w3.org/2000/svg"><path d="M37.6 20.4165C37.6 19.1165 37.4833 17.8665 37.2667 16.6665H20V23.7665H29.8667C29.4333 26.0498 28.1333 27.9832 26.1833 29.2832V33.8998H32.1333C35.6 30.6998 37.6 25.9998 37.6 20.4165Z" fill="#4285F4"/><path d="M20 38.3333C24.95 38.3333 29.1 36.7 32.1333 33.9L26.1833 29.2833C24.55 30.3833 22.4666 31.05 20 31.05C15.2333 31.05 11.1833 27.8333 9.7333 23.5H3.6333V28.2333C6.64997 34.2167 12.8333 38.3333 20 38.3333Z" fill="#34A853"/><path d="M9.73329 23.4832C9.36663 22.3832 9.14996 21.2165 9.14996 19.9999C9.14996 18.7832 9.36663 17.6165 9.73329 16.5165V11.7832H3.63329C2.38329 14.2499 1.66663 17.0332 1.66663 19.9999C1.66663 22.9665 2.38329 25.7499 3.63329 28.2165L8.38329 24.5165L9.73329 23.4832Z" fill="#FBBC05"/><path d="M20 8.9665C22.7 8.9665 25.1 9.89984 27.0166 11.6998L32.2666 6.44984C29.0833 3.48317 24.95 1.6665 20 1.6665C12.8333 1.6665 6.64997 5.78317 3.6333 11.7832L9.7333 16.5165C11.1833 12.1832 15.2333 8.9665 20 8.9665Z" fill="#EA4335"/></svg>