<svg viewBox="0 0 336 216" fill="none" xmlns="http://www.w3.org/2000/svg"><g clip-path="url(#clip0_1_3098)"><path d="M190.039 118.496C189.198 110.298 192.315 93.3629 210.106 87.9732C215.125 86.4485 219.26 85.5266 222.589 84.7749C232.343 82.5906 234.966 82.002 238.839 71.9104C241.327 65.4286 244.748 61.7693 249.01 61.0317C254.736 60.046 259.012 64.8329 259.479 65.3861L254.199 69.9177C253.668 69.3149 251.76 67.6129 250.163 67.9036C248.558 68.1944 246.791 70.563 245.314 74.4138C240.104 87.9874 234.421 89.2639 224.095 91.5758C220.716 92.3346 216.878 93.1927 212.107 94.6395C195.411 99.7029 196.867 117.056 196.938 117.794L190.025 118.496H190.039Z" fill="#8CC63F"/><path d="M257.641 153.174L251.973 149.146C252.206 148.82 257.74 141.09 265.89 139.799C270.075 139.133 274.096 140.225 277.857 143.033C280.72 145.175 283.222 146.09 284.904 145.621C286.671 145.125 287.498 143.132 287.505 143.111L293.994 145.6C293.796 146.132 291.909 150.82 286.904 152.295C282.96 153.458 278.528 152.224 273.708 148.614C271.474 146.948 269.276 146.309 266.979 146.671C261.776 147.501 257.684 153.11 257.641 153.16V153.174Z" fill="#353A85"/><path d="M201.285 46.1674L207.519 43.0967C207.696 43.4584 211.817 52.0323 209.053 59.8332C207.633 63.8329 204.763 66.8611 200.501 68.8326C197.263 70.3289 195.263 72.0948 194.867 73.8039C194.457 75.591 195.807 77.2788 195.821 77.3001L190.541 81.8246C190.174 81.3991 186.965 77.4916 188.067 72.3784C188.937 68.3503 192.139 65.0314 197.595 62.5068C200.119 61.3366 201.73 59.6984 202.508 57.5071C204.275 52.5216 201.313 46.2383 201.285 46.1745V46.1674Z" fill="#5D66D3"/><path d="M220.893 6.38256L223.692 0C224.059 0.16311 232.711 4.05647 235.609 11.8006C237.093 15.7791 236.839 19.949 234.845 24.2112C233.333 27.4521 232.937 30.0973 233.729 31.6575C234.563 33.2957 236.683 33.707 236.704 33.7141L235.573 40.5931C235.015 40.508 230.06 39.5931 227.615 34.9622C225.692 31.3171 226.003 26.7146 228.562 21.2539C229.742 18.7293 229.926 16.4315 229.106 14.2544C227.254 9.30435 220.956 6.41093 220.893 6.38256Z" fill="#8CC63F"/><path d="M132.573 61.1944L135.768 67.3855C135.415 67.5698 126.961 71.8887 119.129 69.286C115.107 67.9528 112.033 65.1303 109.976 60.8965C108.414 57.6769 106.611 55.7125 104.901 55.3508C103.105 54.9749 101.458 56.372 101.437 56.3862L96.8145 51.1879C97.2315 50.805 101.055 47.5073 106.18 48.5073C110.216 49.2945 113.588 52.429 116.224 57.8471C117.44 60.3576 119.108 61.939 121.313 62.6695C126.318 64.3289 132.517 61.2298 132.573 61.2015V61.1944Z" fill="#8CC63F"/><path d="M222.803 109.696L209.092 122.091L213.743 127.27L227.454 114.875L222.803 109.696Z" fill="#5D66D3"/><path d="M265.373 119.965L246.943 120.947L247.312 127.908L265.741 126.926L265.373 119.965Z" fill="#8CC63F"/><path d="M202.287 187.624L197.502 192.678L210.882 205.431L215.668 200.377L202.287 187.624Z" fill="#8CC63F"/><path d="M170.121 46.0685L163.203 46.7148L164.914 65.1516L171.833 64.5052L170.121 46.0685Z" fill="#353A85"/><path d="M238.705 184.819L238.281 191.777L256.702 192.908L257.126 185.95L238.705 184.819Z" fill="#5D66D3"/><path d="M274.647 87.1715L268.922 83.2214C269.275 82.7108 277.736 70.7329 295.4 76.5978C301.973 78.782 302.581 77.5339 303.924 74.8036C305.062 72.4846 306.787 68.9812 311.6 68.5132L312.265 75.4489C311.459 75.5269 311.205 75.7326 310.151 77.8814C307.911 82.4343 304.574 86.9801 293.216 83.2073C280.443 78.9664 274.697 87.0793 274.64 87.1644L274.647 87.1715Z" fill="#5D66D3"/><path d="M334.141 159.699L327.666 157.174C329.038 153.607 329.49 149.203 328.585 148.295C328.317 148.026 326.783 147.65 322.952 149.125C320.259 150.167 316.35 151.288 313.494 149.061C310.243 146.522 310.794 141.863 311.43 136.466C312.236 129.658 313.24 121.183 307.437 115.836C304.334 112.978 301.181 111.723 297.803 112C290.494 112.602 284.514 120.162 284.458 120.24L278.973 115.964C279.291 115.553 286.826 105.936 297.195 105.057C302.553 104.603 307.585 106.504 312.144 110.702C320.563 118.467 319.22 129.793 318.336 137.289C318.089 139.353 317.771 142.069 317.919 143.352C318.379 143.288 319.177 143.111 320.464 142.615C326.359 140.338 330.748 140.594 333.512 143.366C338.276 148.16 334.876 157.805 334.148 159.692L334.141 159.699Z" fill="#353A85"/><path d="M120.389 32.4304C120.403 32.0829 120.848 23.8919 127.294 19.8071C132.094 16.7648 138.59 16.935 146.598 20.3177C149.92 21.7219 152.422 22.1261 153.822 21.4949C155.476 20.7432 156.402 17.9774 157.384 15.0486C159.081 9.99215 161.646 2.34726 171.139 3.00679C176.575 3.38265 183.777 6.31154 187.205 18.1122C189.072 24.5373 188.923 30.7426 188.916 30.9979L181.975 30.8064C181.975 30.6078 182.35 10.7651 170.666 9.95669C166.863 9.6943 165.859 11.6374 163.972 17.2683C162.622 21.2893 161.095 25.8493 156.677 27.842C153.377 29.3384 149.199 28.9767 143.905 26.7357C138.222 24.3316 133.769 23.97 131.041 25.672C127.662 27.7853 127.337 32.7141 127.33 32.7637L120.389 32.4233V32.4304Z" fill="#353A85"/><path d="M189.792 110.532L147.467 58.4785L61.1348 215.844L232.117 162.585L189.792 110.532Z" fill="#3B3387"/><path d="M132.693 85.4131L177.103 94.9231L201.1 124.439L119.242 109.929L132.693 85.4131Z" fill="#8CABEF"/><path d="M111.651 123.765L216.304 143.132L232.109 162.684L102.434 140.565L111.651 123.765Z" fill="#8CABEF"/><path d="M69.8288 199.994L96.0593 204.852L61.1348 215.844L69.8288 199.994Z" fill="#8CABEF"/><path d="M94.1153 155.728L194.245 174.379L133.648 193.257L78.1621 184.662L94.1153 155.728Z" fill="#8CABEF"/><path d="M76.4888 69.6638L73.2012 75.8052L89.4599 84.5666L92.7475 78.4251L76.4888 69.6638Z" fill="#5D66D3"/><path d="M116.727 114.51L206.098 130.587L201.165 124.701L119.222 109.908L116.727 114.51Z" fill="#5D66D3"/><path d="M102.434 140.565L232.109 162.685L219.86 166.401L99.0625 146.7L102.434 140.565Z" fill="#5D66D3"/><path d="M78.1616 184.662L133.648 193.257C133.648 193.257 121.582 197.306 121.667 196.987C121.752 196.668 75.3555 189.917 75.3555 189.917L78.1616 184.662Z" fill="#5D66D3"/><g opacity="0.1"><path d="M231.87 163.145C231.87 163.145 151.326 183.889 100.915 143.359L61 216L231.87 163.145Z" fill="white"/></g></g><defs><clipPath id="clip0_1_3098"><rect width="336" height="216" fill="white"/></clipPath></defs></svg>