<svg viewBox="0 0 26 24" fill="none" xmlns="http://www.w3.org/2000/svg"><path d="M12.0932 0.818527C12.4599 0.0749452 13.5202 0.074945 13.8869 0.818527L16.8691 6.86527C17.0147 7.16051 17.2963 7.36518 17.622 7.41255L24.2914 8.38236C25.1114 8.5016 25.439 9.50919 24.8458 10.0878L20.0189 14.7962C19.7834 15.0259 19.6759 15.3568 19.7315 15.681L20.8709 22.3287C21.0109 23.1457 20.1532 23.7686 19.4196 23.3826L13.4557 20.245C13.1642 20.0916 12.8159 20.0916 12.5245 20.245L6.56051 23.3826C5.82692 23.7686 4.96925 23.1457 5.10928 22.3287L6.24864 15.681C6.30421 15.3568 6.19676 15.0259 5.96128 14.7962L1.13434 10.0878C0.541178 9.50919 0.868707 8.5016 1.68871 8.38236L8.35812 7.41255C8.68389 7.36518 8.96548 7.16051 9.11109 6.86527L12.0932 0.818527Z" fill="#4AA3EF"/></svg>