<svg viewBox="0 0 28 28" fill="none" xmlns="http://www.w3.org/2000/svg"><g clip-path="url(#clip0_143_2058)"><path fill-rule="evenodd" clip-rule="evenodd" d="M4.36221 7.84662C4.36225 7.74137 4.40403 7.64043 4.47838 7.56592C4.55272 7.49142 4.65358 7.44944 4.75883 7.44918H22.2412C22.3465 7.44944 22.4474 7.49142 22.5217 7.56592C22.5961 7.64043 22.6378 7.74137 22.6379 7.84662V19.2838L16.3848 19.2395H16.3828C16.3328 19.2396 16.2835 19.251 16.2386 19.273C16.1936 19.2949 16.1543 19.3268 16.1236 19.3663L15.2877 20.438H11.7123L10.8765 19.3663C10.8458 19.3268 10.8064 19.2949 10.7615 19.273C10.7166 19.251 10.6673 19.2396 10.6173 19.2395H10.6153L4.36221 19.2838V7.84662ZM23.6749 19.2912L23.2957 19.2888V7.84662C23.2951 7.56721 23.1838 7.29942 22.9862 7.10192C22.7885 6.90443 22.5207 6.79333 22.2412 6.79297H4.75883C4.47942 6.79333 4.21155 6.90443 4.01391 7.10192C3.81626 7.29942 3.70497 7.56721 3.7044 7.84662V19.2888L3.32517 19.2912C3.23868 19.292 3.15601 19.3269 3.09514 19.3884C3.03427 19.4498 3.00012 19.5328 3.00012 19.6193V20.7489C3.00049 21.1353 3.15407 21.5057 3.42719 21.779C3.7003 22.0522 4.07065 22.206 4.457 22.2066H22.5431C22.9294 22.206 23.2998 22.0523 23.5729 21.779C23.8461 21.5057 23.9997 21.1353 24 20.7489V19.6194C24 19.5329 23.9659 19.4499 23.905 19.3884C23.8442 19.327 23.7615 19.2921 23.675 19.2913L23.6749 19.2912ZM22.0652 18.3889V8.35156C22.0652 8.30841 22.0566 8.26569 22.0401 8.22584C22.0235 8.18599 21.9993 8.1498 21.9687 8.11933C21.9382 8.08885 21.9019 8.0647 21.862 8.04824C21.8222 8.03179 21.7794 8.02336 21.7363 8.02344H5.26382C5.22067 8.02336 5.17793 8.03179 5.13804 8.04825C5.09815 8.0647 5.0619 8.08885 5.03135 8.11933C5.00081 8.1498 4.97657 8.186 4.96002 8.22585C4.94347 8.26569 4.93494 8.30841 4.93491 8.35156V18.3889C4.93491 18.4321 4.94342 18.4748 4.95996 18.5147C4.9765 18.5545 5.00074 18.5907 5.03129 18.6212C5.06184 18.6517 5.09811 18.6758 5.13801 18.6923C5.17791 18.7087 5.22066 18.7171 5.26382 18.717H21.7363C21.7794 18.7171 21.8222 18.7087 21.8621 18.6922C21.9019 18.6758 21.9382 18.6516 21.9688 18.6212C21.9993 18.5907 22.0235 18.5545 22.0401 18.5146C22.0567 18.4748 22.0652 18.4321 22.0652 18.3889V18.3889Z" fill="#4AA3EF"/></g><defs><clipPath id="clip0_143_2058"><rect width="21" height="21" fill="white" transform="translate(3 4)"/></clipPath></defs></svg>