<svg viewBox="0 0 28 28" fill="none" xmlns="http://www.w3.org/2000/svg"><g clip-path="url(#clip0_143_1949)"><path d="M15.255 16.8664C14.7326 17.2147 14.1257 17.3989 13.5 17.3989C12.8743 17.3989 12.2675 17.2147 11.745 16.8664L3.13982 11.1294C3.09208 11.0976 3.04557 11.0644 3 11.0303V20.431C3 21.5088 3.87466 22.3642 4.93319 22.3642H22.0668C23.1446 22.3642 24 21.4895 24 20.431V11.0303C23.9543 11.0645 23.9077 11.0977 23.8598 11.1296L15.255 16.8664Z" fill="#4AA3EF"/><path d="M3.82236 10.1053L12.4276 15.8424C12.7533 16.0595 13.1266 16.1681 13.5 16.1681C13.8733 16.1681 14.2467 16.0595 14.5724 15.8424L23.1776 10.1053C23.6926 9.76224 24 9.18802 24 8.56828C24 7.50265 23.1331 6.63574 22.0675 6.63574H4.93253C3.86695 6.63578 3 7.50269 3 8.5693C3 9.18802 3.30745 9.76224 3.82236 10.1053Z" fill="#4AA3EF"/></g><defs><clipPath id="clip0_143_1949"><rect width="21" height="21" fill="white" transform="translate(3 4)"/></clipPath></defs></svg>