<svg xmlns="http://www.w3.org/2000/svg" xmlns:xlink="http://www.w3.org/1999/xlink"><defs>
<clipPath id="clip0_104_10609">
<rect width="20" height="20" fill="white"/>
</clipPath>

<clipPath id="clip0_23_6321">
<rect width="32.56" height="40" fill="white"/>
</clipPath>

<clipPath id="clip0_23_6325">
<rect width="40.6792" height="40" fill="white"/>
</clipPath>

<clipPath id="clip0_23_6314">
<rect width="40" height="40" fill="white"/>
</clipPath>

<clipPath id="clip0_16_6441">
<rect width="38" height="38" fill="white"/>
</clipPath>

<clipPath id="clip0_23_6329">
<rect width="50" height="50" fill="white"/>
</clipPath>

<clipPath id="clip0_1_2781">
<rect width="16" height="16" fill="white"/>
</clipPath>

<clipPath id="clip0_143_1920">
<rect width="21" height="21" fill="white" transform="translate(3 4)"/>
</clipPath>

<clipPath id="clip0_143_2086">
<rect width="21" height="21" fill="white" transform="translate(3 4)"/>
</clipPath>

<clipPath id="clip0_143_2058">
<rect width="21" height="21" fill="white" transform="translate(3 4)"/>
</clipPath>

<clipPath id="clip0_143_1949">
<rect width="21" height="21" fill="white" transform="translate(3 4)"/>
</clipPath>

<clipPath id="clip0_143_1976">
<rect width="21" height="21" fill="white" transform="translate(3 4)"/>
</clipPath>

<clipPath id="clip0_1_3098">
<rect width="336" height="216" fill="white"/>
</clipPath>
</defs><symbol id="icon-arrow-btn-left" viewBox="0 0 24 24">
<g fill="none" stroke-width="2" stroke-linecap="round" stroke-linejoin="round">
<path d="M11.438 18.75L4.68799 12L11.438 5.25"/>
<path d="M5.625 12H19.313"/>
</g>
</symbol><symbol id="icon-arrow-link-down" viewBox="0 0 21 21"><g fill="none">
<path d="M4.59375 7.54688L10.5 13.4531L16.4062 7.54688" stroke="#4AA3EF" stroke-width="2.875" stroke-linecap="round" stroke-linejoin="round"/>
</g></symbol><symbol id="icon-arrow-select" viewBox="0 0 29 23"><g fill="none">
<path fill-rule="evenodd" clip-rule="evenodd" d="M6.06505 8.4458C6.56101 7.82586 7.46561 7.72535 8.08555 8.2213L14.3751 13.2529L20.6646 8.2213C21.2845 7.72535 22.1891 7.82586 22.6851 8.4458C23.181 9.06574 23.0805 9.97035 22.4606 10.4663L15.2731 16.2163C14.7481 16.6363 14.0021 16.6363 13.4771 16.2163L6.28955 10.4663C5.66961 9.97035 5.5691 9.06574 6.06505 8.4458Z" fill="#C5D0DB"/>
</g></symbol><symbol id="icon-flag-us" viewBox="0 0 36 26"><g fill="none">
<path d="M35.445 2C34.752 0.809 33.477 0 32 0H18V2H35.445ZM0 20H36V22H0V20ZM18 12H36V14H18V12ZM18 8H36V10H18V8ZM0 16H36V18H0V16ZM4 26H32C33.477 26 34.752 25.191 35.445 24H0.555C1.248 25.191 2.523 26 4 26ZM18 4H36V6H18V4Z" fill="#B22334"/>
<path d="M0.068 22.679C0.085 22.772 0.104 22.865 0.127 22.956C0.153 23.057 0.185 23.154 0.219 23.252C0.308 23.511 0.416 23.761 0.552 23.995L0.555 24H35.445L35.447 23.996C35.582 23.763 35.69 23.513 35.779 23.255C35.813 23.156 35.846 23.057 35.872 22.954C35.895 22.864 35.914 22.772 35.931 22.679C35.972 22.459 36 22.233 36 22H0C0 22.233 0.028 22.458 0.068 22.679ZM0 18H36V20H0V18ZM0 14V16H36V14H18H0ZM18 10H36V12H18V10ZM18 6H36V8H18V6ZM0 4C0 3.767 0.03 3.543 0.068 3.321C0.028 3.542 0 3.767 0 4ZM0.555 2L0.552 2.005L0.555 2ZM0.128 3.044C0.153 2.942 0.188 2.845 0.22 2.747C0.186 2.845 0.154 2.943 0.128 3.044ZM18 4H36C36 3.767 35.972 3.541 35.931 3.32C35.914 3.228 35.896 3.136 35.872 3.046C35.845 2.943 35.813 2.843 35.778 2.744C35.689 2.486 35.581 2.237 35.446 2.004C35.447 2.003 35.446 2.001 35.445 2H18V4Z" fill="#EEEEEE"/>
<path d="M18 0H4C1.791 0 0 1.791 0 4V14H18V0Z" fill="#3C3B6E"/>
<path d="M2.00098 2.726L2.61898 3.175L2.38298 3.9L2.99998 3.452L3.61798 3.9L3.38198 3.175L3.99998 2.726H3.23598L2.99998 2L2.76498 2.726H2.00098ZM4.00098 4.726L4.61898 5.175L4.38298 5.9L4.99998 5.452L5.61798 5.9L5.38198 5.175L5.99998 4.726H5.23598L4.99998 4L4.76498 4.726H4.00098ZM8.00098 4.726L8.61898 5.175L8.38298 5.9L8.99998 5.452L9.61798 5.9L9.38198 5.175L9.99998 4.726H9.23598L8.99998 4L8.76498 4.726H8.00098ZM12.001 4.726L12.619 5.175L12.383 5.9L13 5.452L13.618 5.9L13.382 5.175L14 4.726H13.236L13 4L12.765 4.726H12.001ZM4.00098 8.726L4.61898 9.175L4.38298 9.9L4.99998 9.452L5.61798 9.9L5.38198 9.175L5.99998 8.726H5.23598L4.99998 8L4.76498 8.726H4.00098ZM8.00098 8.726L8.61898 9.175L8.38298 9.9L8.99998 9.452L9.61798 9.9L9.38198 9.175L9.99998 8.726H9.23598L8.99998 8L8.76498 8.726H8.00098ZM12.001 8.726L12.619 9.175L12.383 9.9L13 9.452L13.618 9.9L13.382 9.175L14 8.726H13.236L13 8L12.765 8.726H12.001ZM6.00098 2.726L6.61898 3.175L6.38298 3.9L6.99998 3.452L7.61798 3.9L7.38198 3.175L7.99998 2.726H7.23598L6.99998 2L6.76498 2.726H6.00098ZM10.001 2.726L10.619 3.175L10.383 3.9L11 3.452L11.618 3.9L11.382 3.175L12 2.726H11.236L11 2L10.765 2.726H10.001ZM14.001 2.726L14.619 3.175L14.383 3.9L15 3.452L15.618 3.9L15.382 3.175L16 2.726H15.236L15 2L14.765 2.726H14.001ZM2.00098 6.726L2.61898 7.175L2.38298 7.9L2.99998 7.452L3.61798 7.9L3.38198 7.175L3.99998 6.726H3.23598L2.99998 6L2.76498 6.726H2.00098ZM6.38298 7.9L6.99998 7.452L7.61798 7.9L7.38198 7.175L7.99998 6.726H7.23598L6.99998 6L6.76498 6.726H6.00098L6.61898 7.175L6.38298 7.9ZM10.001 6.726L10.619 7.175L10.383 7.9L11 7.452L11.618 7.9L11.382 7.175L12 6.726H11.236L11 6L10.765 6.726H10.001ZM14.001 6.726L14.619 7.175L14.383 7.9L15 7.452L15.618 7.9L15.382 7.175L16 6.726H15.236L15 6L14.765 6.726H14.001ZM2.00098 10.726L2.61898 11.175L2.38298 11.9L2.99998 11.452L3.61798 11.9L3.38198 11.175L3.99998 10.726H3.23598L2.99998 10L2.76498 10.726H2.00098ZM6.38298 11.9L6.99998 11.452L7.61798 11.9L7.38198 11.175L7.99998 10.726H7.23598L6.99998 10L6.76498 10.726H6.00098L6.61898 11.175L6.38298 11.9ZM10.001 10.726L10.619 11.175L10.383 11.9L11 11.452L11.618 11.9L11.382 11.175L12 10.726H11.236L11 10L10.765 10.726H10.001ZM14.001 10.726L14.619 11.175L14.383 11.9L15 11.452L15.618 11.9L15.382 11.175L16 10.726H15.236L15 10L14.765 10.726H14.001Z" fill="white"/>
</g></symbol><symbol id="icon-label-calc" viewBox="0 0 20 20"><g fill="none">
<path d="M18.75 4.99999C18.75 4.33695 18.4866 3.70106 18.0178 3.23222C17.5489 2.76338 16.913 2.49999 16.25 2.49999H15.625V1.89165C15.625 1.55499 15.3667 1.26665 15.03 1.24999C14.9455 1.24593 14.8611 1.25906 14.7818 1.2886C14.7025 1.31813 14.6301 1.36345 14.5688 1.4218C14.5076 1.48016 14.4588 1.55034 14.4255 1.6281C14.3922 1.70585 14.375 1.78956 14.375 1.87415V2.49999H5.625V1.89165C5.625 1.55499 5.36667 1.26665 5.03 1.24999C4.94551 1.24593 4.86107 1.25906 4.7818 1.2886C4.70253 1.31813 4.63008 1.36345 4.56884 1.4218C4.5076 1.48016 4.45884 1.55034 4.42552 1.6281C4.3922 1.70585 4.37502 1.78956 4.375 1.87415V2.49999H3.75C3.08696 2.49999 2.45108 2.76338 1.98224 3.23222C1.51339 3.70106 1.25 4.33695 1.25 4.99999V5.46832C1.24989 5.48893 1.25387 5.50935 1.2617 5.52841C1.26954 5.54746 1.28107 5.56478 1.29564 5.57935C1.31021 5.59392 1.32753 5.60545 1.34658 5.61329C1.36564 5.62112 1.38606 5.6251 1.40667 5.62499H18.5942C18.6356 5.62477 18.6752 5.60816 18.7044 5.57881C18.7336 5.54945 18.75 5.50973 18.75 5.46832V4.99999Z" fill="#4AA3EF"/>
<path d="M1.25 16.3333C1.25 16.9964 1.51339 17.6323 1.98223 18.1011C2.45107 18.57 3.08696 18.8333 3.75 18.8333H16.25C16.913 18.8333 17.5489 18.57 18.0178 18.1011C18.4866 17.6323 18.75 16.9964 18.75 16.3333V7.07501C18.75 7.04407 18.7377 7.01439 18.7158 6.99251C18.694 6.97064 18.6643 6.95834 18.6333 6.95834H1.36667C1.33572 6.95834 1.30605 6.97064 1.28417 6.99251C1.26229 7.01439 1.25 7.04407 1.25 7.07501V16.3333ZM14.6875 8.20834C14.9361 8.20834 15.1746 8.30712 15.3504 8.48293C15.5262 8.65875 15.625 8.8972 15.625 9.14584C15.625 9.39448 15.5262 9.63294 15.3504 9.80876C15.1746 9.98457 14.9361 10.0833 14.6875 10.0833C14.4389 10.0833 14.2004 9.98457 14.0246 9.80876C13.8488 9.63294 13.75 9.39448 13.75 9.14584C13.75 8.8972 13.8488 8.65875 14.0246 8.48293C14.2004 8.30712 14.4389 8.20834 14.6875 8.20834ZM14.6875 11.3333C14.9361 11.3333 15.1746 11.4321 15.3504 11.6079C15.5262 11.7837 15.625 12.0222 15.625 12.2708C15.625 12.5195 15.5262 12.7579 15.3504 12.9338C15.1746 13.1096 14.9361 13.2083 14.6875 13.2083C14.4389 13.2083 14.2004 13.1096 14.0246 12.9338C13.8488 12.7579 13.75 12.5195 13.75 12.2708C13.75 12.0222 13.8488 11.7837 14.0246 11.6079C14.2004 11.4321 14.4389 11.3333 14.6875 11.3333ZM11.5625 8.20834C11.8111 8.20834 12.0496 8.30712 12.2254 8.48293C12.4012 8.65875 12.5 8.8972 12.5 9.14584C12.5 9.39448 12.4012 9.63294 12.2254 9.80876C12.0496 9.98457 11.8111 10.0833 11.5625 10.0833C11.3139 10.0833 11.0754 9.98457 10.8996 9.80876C10.7238 9.63294 10.625 9.39448 10.625 9.14584C10.625 8.8972 10.7238 8.65875 10.8996 8.48293C11.0754 8.30712 11.3139 8.20834 11.5625 8.20834ZM11.5625 11.3333C11.8111 11.3333 12.0496 11.4321 12.2254 11.6079C12.4012 11.7837 12.5 12.0222 12.5 12.2708C12.5 12.5195 12.4012 12.7579 12.2254 12.9338C12.0496 13.1096 11.8111 13.2083 11.5625 13.2083C11.3139 13.2083 11.0754 13.1096 10.8996 12.9338C10.7238 12.7579 10.625 12.5195 10.625 12.2708C10.625 12.0222 10.7238 11.7837 10.8996 11.6079C11.0754 11.4321 11.3139 11.3333 11.5625 11.3333ZM11.5625 14.4583C11.8111 14.4583 12.0496 14.5571 12.2254 14.7329C12.4012 14.9087 12.5 15.1472 12.5 15.3958C12.5 15.6445 12.4012 15.8829 12.2254 16.0588C12.0496 16.2346 11.8111 16.3333 11.5625 16.3333C11.3139 16.3333 11.0754 16.2346 10.8996 16.0588C10.7238 15.8829 10.625 15.6445 10.625 15.3958C10.625 15.1472 10.7238 14.9087 10.8996 14.7329C11.0754 14.5571 11.3139 14.4583 11.5625 14.4583ZM8.4375 11.3333C8.68614 11.3333 8.9246 11.4321 9.10041 11.6079C9.27623 11.7837 9.375 12.0222 9.375 12.2708C9.375 12.5195 9.27623 12.7579 9.10041 12.9338C8.9246 13.1096 8.68614 13.2083 8.4375 13.2083C8.18886 13.2083 7.9504 13.1096 7.77459 12.9338C7.59877 12.7579 7.5 12.5195 7.5 12.2708C7.5 12.0222 7.59877 11.7837 7.77459 11.6079C7.9504 11.4321 8.18886 11.3333 8.4375 11.3333ZM8.4375 14.4583C8.68614 14.4583 8.9246 14.5571 9.10041 14.7329C9.27623 14.9087 9.375 15.1472 9.375 15.3958C9.375 15.6445 9.27623 15.8829 9.10041 16.0588C8.9246 16.2346 8.68614 16.3333 8.4375 16.3333C8.18886 16.3333 7.9504 16.2346 7.77459 16.0588C7.59877 15.8829 7.5 15.6445 7.5 15.3958C7.5 15.1472 7.59877 14.9087 7.77459 14.7329C7.9504 14.5571 8.18886 14.4583 8.4375 14.4583ZM5.3125 11.3333C5.56114 11.3333 5.7996 11.4321 5.97541 11.6079C6.15123 11.7837 6.25 12.0222 6.25 12.2708C6.25 12.5195 6.15123 12.7579 5.97541 12.9338C5.7996 13.1096 5.56114 13.2083 5.3125 13.2083C5.06386 13.2083 4.8254 13.1096 4.64959 12.9338C4.47377 12.7579 4.375 12.5195 4.375 12.2708C4.375 12.0222 4.47377 11.7837 4.64959 11.6079C4.8254 11.4321 5.06386 11.3333 5.3125 11.3333ZM5.3125 14.4583C5.56114 14.4583 5.7996 14.5571 5.97541 14.7329C6.15123 14.9087 6.25 15.1472 6.25 15.3958C6.25 15.6445 6.15123 15.8829 5.97541 16.0588C5.7996 16.2346 5.56114 16.3333 5.3125 16.3333C5.06386 16.3333 4.8254 16.2346 4.64959 16.0588C4.47377 15.8829 4.375 15.6445 4.375 15.3958C4.375 15.1472 4.47377 14.9087 4.64959 14.7329C4.8254 14.5571 5.06386 14.4583 5.3125 14.4583Z" fill="#4AA3EF"/>
</g></symbol><symbol id="icon-label-delivery" viewBox="0 0 20 20"><g fill="none">
<g clip-path="url(#clip0_104_10609)">
<path d="M2.81617 13.3333H0.833984C0.833984 13.6648 0.96568 13.9827 1.2001 14.2171C1.43452 14.4516 1.75246 14.5833 2.08398 14.5833H2.30273C2.34365 14.1243 2.52266 13.6885 2.81617 13.3333Z" fill="#4AA3EF"/>
<path d="M12.5004 13.3333H6.35156C6.64505 13.6885 6.82403 14.1243 6.86492 14.5833H12.5004C12.6109 14.5833 12.7169 14.5394 12.7951 14.4612C12.8732 14.3831 12.9171 14.2771 12.9171 14.1666V13.7499C12.9171 13.6394 12.8732 13.5334 12.7951 13.4553C12.7169 13.3772 12.6109 13.3333 12.5004 13.3333Z" fill="#4AA3EF"/>
<path d="M4.58332 16.25C5.38873 16.25 6.04164 15.5971 6.04164 14.7917C6.04164 13.9863 5.38873 13.3334 4.58332 13.3334C3.77791 13.3334 3.125 13.9863 3.125 14.7917C3.125 15.5971 3.77791 16.25 4.58332 16.25Z" fill="#4AA3EF"/>
<path d="M19.8132 10.7489L18.2123 7.22695C18.0795 6.93593 17.866 6.68915 17.5971 6.51596C17.3282 6.34277 17.0152 6.25046 16.6953 6.25H14.1667C14.0562 6.25 13.9502 6.2939 13.872 6.37204C13.7939 6.45019 13.75 6.55617 13.75 6.66668V13.222C14.0521 12.9003 14.4407 12.6728 14.8691 12.5669C15.2974 12.4609 15.7473 12.4811 16.1645 12.625C16.5817 12.7688 16.9484 13.0302 17.2204 13.3777C17.4924 13.7251 17.6582 14.1438 17.6978 14.5833H18.75C19.0815 14.5833 19.3995 14.4516 19.6339 14.2172C19.8683 13.9828 20 13.6648 20 13.3333V11.611C20 11.3136 19.9363 11.0197 19.8132 10.7489ZM17.9135 10.4166H15.2083C15.0978 10.4166 14.9919 10.3727 14.9137 10.2946C14.8356 10.2165 14.7917 10.1105 14.7917 10V8.33332C14.7917 8.22281 14.8356 8.11683 14.9137 8.03868C14.9919 7.96054 15.0978 7.91664 15.2084 7.91664H16.8877C17.0477 7.91662 17.2043 7.96265 17.3388 8.04924C17.4733 8.13582 17.5801 8.2593 17.6463 8.40492L18.293 9.82758C18.3218 9.89106 18.3343 9.96076 18.3292 10.0303C18.3241 10.0999 18.3017 10.167 18.2639 10.2256C18.2262 10.2843 18.1743 10.3325 18.1131 10.3658C18.0519 10.3992 17.9832 10.4167 17.9135 10.4167V10.4166Z" fill="#4AA3EF"/>
<path d="M15.4173 16.2499C16.2227 16.2499 16.8756 15.597 16.8756 14.7916C16.8756 13.9862 16.2227 13.3333 15.4173 13.3333C14.6119 13.3333 13.959 13.9862 13.959 14.7916C13.959 15.597 14.6119 16.2499 15.4173 16.2499Z" fill="#4AA3EF"/>
<path d="M11.6667 3.75H2.08336C1.75184 3.75 1.4339 3.8817 1.19948 4.11612C0.965056 4.35054 0.833359 4.66848 0.833359 5V10H0.438828C0.231484 10 0.0391016 10.1418 0.00574225 10.3467C-0.00439271 10.4065 -0.00136376 10.4678 0.0146179 10.5263C0.0305996 10.5848 0.0591493 10.6391 0.0982765 10.6854C0.137404 10.7317 0.186166 10.769 0.241165 10.7945C0.296163 10.8201 0.356074 10.8333 0.416719 10.8334H1.43625C1.64383 10.8334 1.83617 10.9752 1.86953 11.18C1.87967 11.2398 1.87664 11.3011 1.86066 11.3596C1.84467 11.4181 1.81612 11.4724 1.777 11.5188C1.73787 11.5651 1.68911 11.6023 1.63411 11.6279C1.57911 11.6534 1.5192 11.6667 1.45855 11.6667H0.439023C0.231484 11.6667 0.0391016 11.8086 0.00574225 12.0133C-0.00439271 12.0731 -0.00136376 12.1344 0.0146179 12.1929C0.0305996 12.2514 0.0591493 12.3057 0.0982765 12.352C0.137404 12.3984 0.186166 12.4356 0.241165 12.4612C0.296163 12.4867 0.356074 12.5 0.416719 12.5H12.5C12.6105 12.5 12.7165 12.4561 12.7947 12.378C12.8728 12.2998 12.9167 12.1938 12.9167 12.0833V5C12.9167 4.66848 12.785 4.35054 12.5506 4.11612C12.3162 3.8817 11.9982 3.75 11.6667 3.75Z" fill="#4AA3EF"/>
</g>

</g></symbol><symbol id="icon-list-check" viewBox="0 0 20 20"><g fill="none">
<path d="M16.775 3.44999C16.5093 3.45937 16.2656 3.59999 16.125 3.82499L8.59996 15.3375L3.72496 11.125C3.51558 10.9078 3.20152 10.8266 2.91246 10.9172C2.62496 11.0062 2.41089 11.25 2.36089 11.5469C2.31089 11.8453 2.43121 12.1453 2.67496 12.325L8.24996 17.15C8.42496 17.2984 8.65621 17.3641 8.88277 17.3312C9.11089 17.2969 9.31246 17.1672 9.43746 16.975L17.475 4.69999C17.6468 4.44843 17.6609 4.12343 17.5125 3.85781C17.364 3.59374 17.0781 3.43593 16.775 3.44999Z" fill="#171717"/>
</g></symbol><symbol id="icon-logo-apple" viewBox="0 0 33 40"><g fill="none">
<g clip-path="url(#clip0_23_6321)">
<path d="M31.524 13.636C31.292 13.816 27.196 16.124 27.196 21.256C27.196 27.192 32.408 29.292 32.564 29.344C32.54 29.472 31.736 32.22 29.816 35.02C28.104 37.484 26.316 39.944 23.596 39.944C20.876 39.944 20.176 38.364 17.036 38.364C13.976 38.364 12.888 39.996 10.4 39.996C7.912 39.996 6.176 37.716 4.18 34.916C1.868 31.628 0 26.52 0 21.672C0 13.896 5.056 9.772 10.032 9.772C12.676 9.772 14.88 11.508 16.54 11.508C18.12 11.508 20.584 9.668 23.592 9.668C24.732 9.668 28.828 9.772 31.524 13.636ZM22.164 6.376C23.408 4.9 24.288 2.852 24.288 0.804C24.288 0.52 24.264 0.232 24.212 0C22.188 0.076 19.78 1.348 18.328 3.032C17.188 4.328 16.124 6.376 16.124 8.452C16.124 8.764 16.176 9.076 16.2 9.176C16.328 9.2 16.536 9.228 16.744 9.228C18.56 9.228 20.844 8.012 22.164 6.376Z" fill="black"/>
</g>

</g></symbol><symbol id="icon-logo-github" viewBox="0 0 41 40"><g fill="none">
<g clip-path="url(#clip0_23_6325)">
<path fill-rule="evenodd" clip-rule="evenodd" d="M20.3542 0C9.1 0 0 9.16667 0 20.5083C0 29.575 5.82917 37.2458 13.9167 39.9625C14.9292 40.1667 15.3 39.5208 15.3 38.9792C15.3 38.5042 15.2667 36.875 15.2667 35.175C9.60417 36.3958 8.425 32.7292 8.425 32.7292C7.51667 30.3542 6.16667 29.7417 6.16667 29.7417C4.3125 28.4875 6.3 28.4875 6.3 28.4875C8.35417 28.625 9.43333 30.5917 9.43333 30.5917C11.2542 33.7167 14.1833 32.8333 15.3667 32.2875C15.5333 30.9625 16.075 30.0458 16.6458 29.5375C12.1292 29.0625 7.37917 27.2958 7.37917 19.4208C7.37917 17.1792 8.1875 15.3458 9.46667 13.9208C9.2625 13.4125 8.55833 11.3083 9.67083 8.4875C9.67083 8.4875 11.3875 7.94583 15.2667 10.5917C16.925 10.1417 18.6375 9.9125 20.3542 9.9125C22.0708 9.9125 23.825 10.15 25.4417 10.5917C29.3167 7.94167 31.0375 8.4875 31.0375 8.4875C32.15 11.3042 31.4417 13.4125 31.2417 13.9208C32.5542 15.3458 33.3292 17.1792 33.3292 19.4208C33.3292 27.3 28.5792 29.0292 24.0292 29.5375C24.7708 30.1833 25.4125 31.4042 25.4125 33.3417C25.4125 36.0917 25.3792 38.3 25.3792 38.9792C25.3792 39.5208 25.75 40.1667 26.7625 39.9625C34.85 37.2458 40.6792 29.575 40.6792 20.5083C40.7125 9.16667 31.5792 0 20.3583 0L20.3542 0Z" fill="#24292F"/>
</g>

</g></symbol><symbol id="icon-logo-google" viewBox="0 0 40 40"><g fill="none">
<path d="M37.6 20.4165C37.6 19.1165 37.4833 17.8665 37.2667 16.6665H20V23.7665H29.8667C29.4333 26.0498 28.1333 27.9832 26.1833 29.2832V33.8998H32.1333C35.6 30.6998 37.6 25.9998 37.6 20.4165Z" fill="#4285F4"/>
<path d="M20 38.3333C24.95 38.3333 29.1 36.7 32.1333 33.9L26.1833 29.2833C24.55 30.3833 22.4666 31.05 20 31.05C15.2333 31.05 11.1833 27.8333 9.7333 23.5H3.6333V28.2333C6.64997 34.2167 12.8333 38.3333 20 38.3333Z" fill="#34A853"/>
<path d="M9.73329 23.4832C9.36663 22.3832 9.14996 21.2165 9.14996 19.9999C9.14996 18.7832 9.36663 17.6165 9.73329 16.5165V11.7832H3.63329C2.38329 14.2499 1.66663 17.0332 1.66663 19.9999C1.66663 22.9665 2.38329 25.7499 3.63329 28.2165L8.38329 24.5165L9.73329 23.4832Z" fill="#FBBC05"/>
<path d="M20 8.9665C22.7 8.9665 25.1 9.89984 27.0166 11.6998L32.2666 6.44984C29.0833 3.48317 24.95 1.6665 20 1.6665C12.8333 1.6665 6.64997 5.78317 3.6333 11.7832L9.7333 16.5165C11.1833 12.1832 15.2333 8.9665 20 8.9665Z" fill="#EA4335"/>
</g></symbol><symbol id="icon-logo-microsoft" viewBox="0 0 40 40"><g fill="none">
<g clip-path="url(#clip0_23_6314)">
<path d="M19 0H0V19H19V0Z" fill="#F25022"/>
<path d="M40 0H21V19H40V0Z" fill="#7FBA00"/>
<path d="M19 21.0005H0V40.0005H19V21.0005Z" fill="#00A4EF"/>
<path d="M39.9999 21.0005H20.9999V40.0005H39.9999V21.0005Z" fill="#FFB900"/>
</g>

</g></symbol><symbol id="icon-logo-rx4route-color" viewBox="0 0 209 38"><g fill="none">
<path d="M62.5169 24.5429L57.8838 17.93C57.6894 17.9515 57.3979 17.9623 57.0091 17.9623H51.89V24.5429H47.6782V1.9624H57.0091C58.9746 1.9624 60.6809 2.28498 62.1281 2.93014C63.5968 3.57529 64.72 4.50002 65.4976 5.70431C66.2751 6.9086 66.6639 8.3387 66.6639 9.9946C66.6639 11.6935 66.2428 13.1559 65.4004 14.3817C64.5796 15.6075 63.3917 16.5214 61.8365 17.1236L67.0527 24.5429H62.5169ZM62.4197 9.9946C62.4197 8.55375 61.9445 7.44623 60.9941 6.67205C60.0438 5.89786 58.6506 5.51076 56.8147 5.51076H51.89V14.5107H56.8147C58.6506 14.5107 60.0438 14.1236 60.9941 13.3494C61.9445 12.5537 62.4197 11.4355 62.4197 9.9946Z" fill="#000080"/>
<path d="M82.003 24.5429L77.5644 18.5752L73.0933 24.5429H68.6223L75.3613 15.801L68.9139 7.3172H73.4173L77.6616 12.9623L81.9058 7.3172H86.2797L79.7999 15.7365L86.5713 24.5429H82.003Z" fill="#000080"/>
<path d="M107.865 19.4139H103.945V24.5429H99.9275V19.4139H88.3611V16.5107L98.3399 1.9624H102.908L93.3829 15.8655H100.122V11.5107H103.945V15.8655H107.865V19.4139Z" fill="#000080"/>
<path d="M127.473 24.5429L122.84 17.93C122.645 17.9515 122.354 17.9623 121.965 17.9623H116.846V24.5429H112.634V1.9624H121.965C123.931 1.9624 125.637 2.28498 127.084 2.93014C128.553 3.57529 129.676 4.50002 130.454 5.70431C131.231 6.9086 131.62 8.3387 131.62 9.9946C131.62 11.6935 131.199 13.1559 130.356 14.3817C129.536 15.6075 128.348 16.5214 126.792 17.1236L132.009 24.5429H127.473ZM127.376 9.9946C127.376 8.55375 126.9 7.44623 125.95 6.67205C125 5.89786 123.607 5.51076 121.771 5.51076H116.846V14.5107H121.771C123.607 14.5107 125 14.1236 125.95 13.3494C126.9 12.5537 127.376 11.4355 127.376 9.9946Z" fill="#E80045"/>
<path d="M143.719 24.7687C141.97 24.7687 140.393 24.3923 138.989 23.6397C137.585 22.887 136.483 21.844 135.684 20.5107C134.907 19.1558 134.518 17.629 134.518 15.93C134.518 14.2311 134.907 12.715 135.684 11.3817C136.483 10.0484 137.585 9.00536 138.989 8.25268C140.393 7.5 141.97 7.12365 143.719 7.12365C145.49 7.12365 147.078 7.5 148.482 8.25268C149.886 9.00536 150.976 10.0484 151.754 11.3817C152.553 12.715 152.953 14.2311 152.953 15.93C152.953 17.629 152.553 19.1558 151.754 20.5107C150.976 21.844 149.886 22.887 148.482 23.6397C147.078 24.3923 145.49 24.7687 143.719 24.7687ZM143.719 21.3171C145.209 21.3171 146.441 20.8225 147.413 19.8332C148.385 18.844 148.871 17.5429 148.871 15.93C148.871 14.3171 148.385 13.0161 147.413 12.0268C146.441 11.0376 145.209 10.543 143.719 10.543C142.229 10.543 140.998 11.0376 140.026 12.0268C139.075 13.0161 138.6 14.3171 138.6 15.93C138.6 17.5429 139.075 18.844 140.026 19.8332C140.998 20.8225 142.229 21.3171 143.719 21.3171Z" fill="#E80045"/>
<path d="M173.576 7.3172V24.5429H169.72V22.3493C169.072 23.1235 168.262 23.7257 167.29 24.1558C166.318 24.5644 165.271 24.7687 164.148 24.7687C161.837 24.7687 160.011 24.1343 158.672 22.8655C157.355 21.5752 156.696 19.6719 156.696 17.1558V7.3172H160.746V16.6075C160.746 18.1558 161.091 19.3171 161.782 20.0913C162.495 20.844 163.5 21.2203 164.796 21.2203C166.243 21.2203 167.388 20.7795 168.23 19.8978C169.094 18.9945 169.526 17.7042 169.526 16.0268V7.3172H173.576Z" fill="#E80045"/>
<path d="M189.278 23.6074C188.803 23.9945 188.22 24.2848 187.529 24.4784C186.859 24.6719 186.146 24.7687 185.39 24.7687C183.49 24.7687 182.021 24.2741 180.984 23.2848C179.947 22.2956 179.429 20.8547 179.429 18.9623V10.672H176.578V7.44623H179.429V3.51078H183.479V7.44623H188.112V10.672H183.479V18.8655C183.479 19.7042 183.684 20.3494 184.094 20.801C184.505 21.2311 185.099 21.4461 185.876 21.4461C186.784 21.4461 187.54 21.2096 188.144 20.7365L189.278 23.6074Z" fill="#E80045"/>
<path d="M208.305 16.0268C208.305 16.3064 208.283 16.7042 208.24 17.2204H194.665C194.902 18.4892 195.518 19.4999 196.511 20.2526C197.526 20.9838 198.779 21.3494 200.27 21.3494C202.17 21.3494 203.736 20.7257 204.967 19.4784L207.138 21.9623C206.361 22.887 205.378 23.5859 204.19 24.059C203.002 24.5321 201.663 24.7687 200.172 24.7687C198.272 24.7687 196.598 24.3923 195.151 23.6397C193.703 22.887 192.58 21.844 191.781 20.5107C191.004 19.1558 190.615 17.629 190.615 15.93C190.615 14.2526 190.993 12.7473 191.749 11.4139C192.526 10.0591 193.595 9.00536 194.956 8.25268C196.317 7.5 197.85 7.12365 199.557 7.12365C201.242 7.12365 202.743 7.5 204.06 8.25268C205.399 8.98386 206.436 10.0269 207.171 11.3817C207.927 12.715 208.305 14.2634 208.305 16.0268ZM199.557 10.3494C198.261 10.3494 197.159 10.7365 196.252 11.5107C195.367 12.2634 194.827 13.2741 194.632 14.543H204.449C204.276 13.2957 203.747 12.2849 202.861 11.5107C201.976 10.7365 200.874 10.3494 199.557 10.3494Z" fill="#E80045"/>
<path d="M52.0686 35.8639L52.0611 32.4214L50.3472 35.2704H49.915L48.2011 32.4659V35.8639H47.2771V30.6704H48.0744L50.146 34.113L52.1803 30.6704H52.9777L52.9851 35.8639H52.0686Z" fill="#000080"/>
<path d="M59.7966 35.0552V35.8639H55.8844V30.6704H59.6923V31.4791H56.8532V32.8294H59.3719V33.6233H56.8532V35.0552H59.7966Z" fill="#000080"/>
<path d="M62.3669 30.6704H64.6471C65.2035 30.6704 65.6978 30.7792 66.13 30.9968C66.5622 31.2095 66.8975 31.5137 67.136 31.9094C67.3744 32.3002 67.4937 32.7527 67.4937 33.2672C67.4937 33.7816 67.3744 34.2366 67.136 34.6323C66.8975 35.0231 66.5622 35.3272 66.13 35.5449C65.6978 35.7576 65.2035 35.8639 64.6471 35.8639H62.3669V30.6704ZM64.6024 35.0478C64.9849 35.0478 65.3202 34.9761 65.6084 34.8326C65.9015 34.6842 66.125 34.4765 66.279 34.2094C66.438 33.9374 66.5175 33.6233 66.5175 33.2672C66.5175 32.911 66.438 32.5994 66.279 32.3323C66.125 32.0603 65.9015 31.8525 65.6084 31.7091C65.3202 31.5607 64.9849 31.4865 64.6024 31.4865H63.3356V35.0478H64.6024Z" fill="#000080"/>
<path d="M70.0136 30.6704H70.9824V35.8639H70.0136V30.6704Z" fill="#000080"/>
<path d="M76.298 35.9381C75.7714 35.9381 75.2945 35.8243 74.8672 35.5968C74.445 35.3643 74.1121 35.0453 73.8687 34.6397C73.6302 34.2341 73.511 33.7766 73.511 33.2672C73.511 32.7577 73.6327 32.3002 73.8762 31.8946C74.1196 31.489 74.4524 31.1724 74.8747 30.9449C75.3019 30.7124 75.7788 30.5962 76.3054 30.5962C76.7326 30.5962 77.1226 30.6704 77.4753 30.8188C77.8281 30.9672 78.1261 31.1823 78.3696 31.4643L77.7436 32.0504C77.3661 31.6448 76.9016 31.442 76.3501 31.442C75.9924 31.442 75.672 31.5211 75.3889 31.6794C75.1057 31.8328 74.8846 32.0479 74.7257 32.3249C74.5667 32.6019 74.4872 32.916 74.4872 33.2672C74.4872 33.6183 74.5667 33.9324 74.7257 34.2094C74.8846 34.4864 75.1057 34.704 75.3889 34.8623C75.672 35.0156 75.9924 35.0923 76.3501 35.0923C76.9016 35.0923 77.3661 34.887 77.7436 34.4765L78.3696 35.07C78.1261 35.352 77.8256 35.5671 77.4679 35.7155C77.1152 35.8639 76.7252 35.9381 76.298 35.9381Z" fill="#000080"/>
<path d="M84.062 34.662H81.4539L80.9398 35.8639H79.9412L82.2885 30.6704H83.2423L85.5971 35.8639H84.5837L84.062 34.662ZM83.7416 33.9052L82.758 31.6349L81.7818 33.9052H83.7416Z" fill="#000080"/>
<path d="M88.547 31.4865H86.8182V30.6704H91.2445V31.4865H89.5157V35.8639H88.547V31.4865Z" fill="#000080"/>
<path d="M93.4619 30.6704H94.4306V35.8639H93.4619V30.6704Z" fill="#000080"/>
<path d="M99.7686 35.9381C99.237 35.9381 98.7576 35.8243 98.3304 35.5968C97.9031 35.3643 97.5678 35.0453 97.3244 34.6397C97.081 34.2292 96.9593 33.7717 96.9593 33.2672C96.9593 32.7626 97.081 32.3076 97.3244 31.902C97.5678 31.4915 97.9031 31.1724 98.3304 30.9449C98.7576 30.7124 99.237 30.5962 99.7686 30.5962C100.3 30.5962 100.78 30.7124 101.207 30.9449C101.634 31.1724 101.969 31.489 102.213 31.8946C102.456 32.3002 102.578 32.7577 102.578 33.2672C102.578 33.7766 102.456 34.2341 102.213 34.6397C101.969 35.0453 101.634 35.3643 101.207 35.5968C100.78 35.8243 100.3 35.9381 99.7686 35.9381ZM99.7686 35.0923C100.116 35.0923 100.429 35.0156 100.707 34.8623C100.986 34.704 101.204 34.4864 101.363 34.2094C101.522 33.9275 101.602 33.6134 101.602 33.2672C101.602 32.9209 101.522 32.6093 101.363 32.3323C101.204 32.0504 100.986 31.8328 100.707 31.6794C100.429 31.5211 100.116 31.442 99.7686 31.442C99.4208 31.442 99.1078 31.5211 98.8296 31.6794C98.5514 31.8328 98.3329 32.0504 98.1739 32.3323C98.0149 32.6093 97.9354 32.9209 97.9354 33.2672C97.9354 33.6134 98.0149 33.9275 98.1739 34.2094C98.3329 34.4864 98.5514 34.704 98.8296 34.8623C99.1078 35.0156 99.4208 35.0923 99.7686 35.0923Z" fill="#000080"/>
<path d="M109.73 30.6704V35.8639H108.933L106.056 32.3472V35.8639H105.095V30.6704H105.892L108.769 34.1871V30.6704H109.73Z" fill="#000080"/>
<path d="M116.168 30.6704H118.448C119.005 30.6704 119.499 30.7792 119.931 30.9968C120.363 31.2095 120.699 31.5137 120.937 31.9094C121.175 32.3002 121.295 32.7527 121.295 33.2672C121.295 33.7816 121.175 34.2366 120.937 34.6323C120.699 35.0231 120.363 35.3272 119.931 35.5449C119.499 35.7576 119.005 35.8639 118.448 35.8639H116.168V30.6704ZM118.403 35.0478C118.786 35.0478 119.121 34.9761 119.409 34.8326C119.702 34.6842 119.926 34.4765 120.08 34.2094C120.239 33.9374 120.318 33.6233 120.318 33.2672C120.318 32.911 120.239 32.5994 120.08 32.3323C119.926 32.0603 119.702 31.8525 119.409 31.7091C119.121 31.5607 118.786 31.4865 118.403 31.4865H117.137V35.0478H118.403Z" fill="#000080"/>
<path d="M127.727 35.0552V35.8639H123.815V30.6704H127.622V31.4791H124.783V32.8294H127.302V33.6233H124.783V35.0552H127.727Z" fill="#000080"/>
<path d="M130.297 30.6704H131.266V35.0478H133.993V35.8639H130.297V30.6704Z" fill="#000080"/>
<path d="M136.248 30.6704H137.217V35.8639H136.248V30.6704Z" fill="#000080"/>
<path d="M144.851 30.6704L142.578 35.8639H141.624L139.344 30.6704H140.395L142.131 34.6768L143.882 30.6704H144.851Z" fill="#000080"/>
<path d="M150.804 35.0552V35.8639H146.892V30.6704H150.7V31.4791H147.86V32.8294H150.379V33.6233H147.86V35.0552H150.804Z" fill="#000080"/>
<path d="M156.787 35.8639L155.721 34.343C155.677 34.3479 155.61 34.3504 155.52 34.3504H154.343V35.8639H153.374V30.6704H155.52C155.972 30.6704 156.365 30.7446 156.698 30.893C157.035 31.0414 157.294 31.254 157.473 31.531C157.651 31.808 157.741 32.1369 157.741 32.5178C157.741 32.9086 157.644 33.2449 157.45 33.5268C157.262 33.8088 156.988 34.019 156.631 34.1575L157.83 35.8639H156.787ZM156.765 32.5178C156.765 32.1864 156.655 31.9317 156.437 31.7536C156.218 31.5756 155.898 31.4865 155.476 31.4865H154.343V33.5565H155.476C155.898 33.5565 156.218 33.4675 156.437 33.2894C156.655 33.1064 156.765 32.8492 156.765 32.5178Z" fill="#000080"/>
<path d="M162.493 34.0313V35.8639H161.524V34.0462L159.475 30.6704H160.511L162.038 33.2004L163.581 30.6704H164.535L162.493 34.0313Z" fill="#000080"/>
<path d="M171.826 35.9381C171.424 35.9381 171.034 35.8812 170.656 35.7675C170.284 35.6537 169.988 35.5028 169.769 35.3149L170.105 34.5655C170.318 34.7337 170.579 34.8722 170.887 34.981C171.2 35.0849 171.513 35.1368 171.826 35.1368C172.214 35.1368 172.502 35.075 172.69 34.9513C172.884 34.8277 172.981 34.6645 172.981 34.4617C172.981 34.3133 172.926 34.1921 172.817 34.0981C172.713 33.9992 172.579 33.9225 172.415 33.8681C172.251 33.8137 172.027 33.7519 171.744 33.6826C171.347 33.5887 171.024 33.4947 170.775 33.4007C170.532 33.3067 170.321 33.1608 170.142 32.963C169.968 32.7602 169.881 32.4881 169.881 32.1468C169.881 31.86 169.958 31.6003 170.112 31.3678C170.271 31.1304 170.507 30.9424 170.82 30.8039C171.138 30.6654 171.525 30.5962 171.983 30.5962C172.3 30.5962 172.613 30.6358 172.921 30.7149C173.229 30.794 173.495 30.9078 173.719 31.0562L173.413 31.8055C173.185 31.672 172.946 31.5706 172.698 31.5014C172.45 31.4321 172.209 31.3975 171.975 31.3975C171.593 31.3975 171.307 31.4618 171.118 31.5904C170.934 31.719 170.842 31.8896 170.842 32.1023C170.842 32.2507 170.895 32.3719 170.999 32.4659C171.108 32.5598 171.245 32.634 171.409 32.6884C171.573 32.7429 171.796 32.8047 172.079 32.8739C172.467 32.963 172.785 33.0569 173.033 33.1559C173.282 33.2498 173.493 33.3958 173.667 33.5936C173.845 33.7914 173.935 34.0585 173.935 34.3949C173.935 34.6818 173.855 34.9414 173.696 35.1739C173.542 35.4064 173.306 35.5919 172.989 35.7304C172.671 35.8689 172.283 35.9381 171.826 35.9381Z" fill="#000080"/>
<path d="M178.527 34.0313V35.8639H177.558V34.0462L175.509 30.6704H176.545L178.073 33.2004L179.615 30.6704H180.569L178.527 34.0313Z" fill="#000080"/>
<path d="M184.201 35.9381C183.799 35.9381 183.409 35.8812 183.032 35.7675C182.659 35.6537 182.363 35.5028 182.145 35.3149L182.48 34.5655C182.694 34.7337 182.955 34.8722 183.263 34.981C183.576 35.0849 183.889 35.1368 184.201 35.1368C184.589 35.1368 184.877 35.075 185.066 34.9513C185.26 34.8277 185.357 34.6645 185.357 34.4617C185.357 34.3133 185.302 34.1921 185.193 34.0981C185.088 33.9992 184.954 33.9225 184.79 33.8681C184.626 33.8137 184.403 33.7519 184.12 33.6826C183.722 33.5887 183.399 33.4947 183.151 33.4007C182.907 33.3067 182.696 33.1608 182.517 32.963C182.344 32.7602 182.257 32.4881 182.257 32.1468C182.257 31.86 182.334 31.6003 182.488 31.3678C182.647 31.1304 182.883 30.9424 183.195 30.8039C183.513 30.6654 183.901 30.5962 184.358 30.5962C184.676 30.5962 184.989 30.6358 185.297 30.7149C185.605 30.794 185.871 30.9078 186.094 31.0562L185.789 31.8055C185.56 31.672 185.322 31.5706 185.073 31.5014C184.825 31.4321 184.584 31.3975 184.351 31.3975C183.968 31.3975 183.682 31.4618 183.494 31.5904C183.31 31.719 183.218 31.8896 183.218 32.1023C183.218 32.2507 183.27 32.3719 183.374 32.4659C183.484 32.5598 183.62 32.634 183.784 32.6884C183.948 32.7429 184.172 32.8047 184.455 32.8739C184.842 32.963 185.16 33.0569 185.409 33.1559C185.657 33.2498 185.868 33.3958 186.042 33.5936C186.221 33.7914 186.31 34.0585 186.31 34.3949C186.31 34.6818 186.231 34.9414 186.072 35.1739C185.918 35.4064 185.682 35.5919 185.364 35.7304C185.046 35.8689 184.659 35.9381 184.201 35.9381Z" fill="#000080"/>
<path d="M189.747 31.4865H188.018V30.6704H192.444V31.4865H190.715V35.8639H189.747V31.4865Z" fill="#000080"/>
<path d="M198.574 35.0552V35.8639H194.662V30.6704H198.469V31.4791H195.63V32.8294H198.149V33.6233H195.63V35.0552H198.574Z" fill="#000080"/>
<path d="M205.935 35.8639L205.928 32.4214L204.214 35.2704H203.782L202.068 32.4659V35.8639H201.144V30.6704H201.941L204.013 34.113L206.047 30.6704H206.845L206.852 35.8639H205.935Z" fill="#000080"/>
<g clip-path="url(#clip0_16_6441)">
<path d="M8.62799 16.4511C8.62799 19.363 10.1116 22.5328 11.7767 25.1712H2.79621C1.25211 25.1712 0 23.919 0 22.3723V15.6278C0 14.0837 1.25211 12.8315 2.79621 12.8315H9.28035C8.85948 13.9574 8.62799 15.1779 8.62799 16.4511Z" fill="#E80045"/>
<path d="M25.1685 2.79884V8.11505C23.4429 6.83663 21.3095 6.07905 19 6.07905C16.6904 6.07905 14.5545 6.83663 12.8289 8.11768V2.79884C12.8289 1.25211 14.081 0 15.6277 0H22.3723C23.9164 0 25.1685 1.25211 25.1685 2.79884Z" fill="#E80045"/>
<path d="M22.1908 30.498C22.8168 29.8009 23.9663 28.4567 25.1685 26.7574V35.2039C25.1685 36.748 23.9164 38.0001 22.3723 38.0001H15.6277C14.081 38.0001 12.8289 36.748 12.8289 35.2039V26.7495C14.0336 28.4541 15.1858 29.8009 15.8145 30.498C16.6246 31.4028 17.7873 31.921 19 31.921C20.2126 31.921 21.3779 31.4028 22.1908 30.498Z" fill="#E80045"/>
<path d="M38 15.6278V22.3723C38 23.919 36.7479 25.1712 35.2012 25.1712H26.226C27.891 22.5328 29.3746 19.363 29.3746 16.4511C29.3746 15.1779 29.1432 13.9574 28.7223 12.8315H35.2012C36.7479 12.8315 38 14.0837 38 15.6278Z" fill="#E80045"/>
<path d="M18.9974 9.33057C15.3068 9.33057 12.3054 12.332 12.3054 16.0225C12.3054 20.6022 18.295 27.3231 18.5476 27.6072C18.7869 27.8729 19.2052 27.8729 19.4446 27.6072C19.6997 27.3231 25.6867 20.5996 25.6867 16.0225C25.6867 12.332 22.6853 9.33057 18.9947 9.33057H18.9974ZM18.9974 19.3895C17.1403 19.3895 15.6304 17.8796 15.6304 16.0225C15.6304 14.1654 17.1403 12.6555 18.9974 12.6555C20.8545 12.6555 22.3644 14.1654 22.3644 16.0225C22.3644 17.8796 20.8545 19.3895 18.9974 19.3895Z" fill="#000080"/>
</g>

</g></symbol><symbol id="icon-logo-rx4route" viewBox="0 0 275 50"><g fill="none">
<path d="M82.2589 32.2947L76.1628 23.5935C75.907 23.6218 75.5233 23.636 75.0118 23.636H68.2762V32.2947H62.7343V2.5835H75.0118C77.598 2.5835 79.8432 3.00794 81.7473 3.85683C83.6799 4.70572 85.1577 5.92246 86.1809 7.50706C87.204 9.09166 87.7155 10.9734 87.7155 13.1522C87.7155 15.3876 87.1614 17.3117 86.053 18.9246C84.973 20.5375 83.4099 21.7401 81.3637 22.5324L88.2271 32.2947H82.2589ZM82.131 13.1522C82.131 11.2563 81.5058 9.79906 80.2553 8.7804C79.0048 7.76173 77.1717 7.25239 74.756 7.25239H68.2762V19.0944H74.756C77.1717 19.0944 79.0048 18.5851 80.2553 17.5664C81.5058 16.5194 82.131 15.048 82.131 13.1522Z" fill="white"/>
<path d="M107.899 32.2947L102.058 24.4424L96.1753 32.2947H90.2923L99.1594 20.7922L90.676 9.62928H96.6016L102.186 17.0571L107.771 9.62928H113.526L105 20.7073L113.909 32.2947H107.899Z" fill="white"/>
<path d="M141.928 25.546H136.769V32.2947H131.483V25.546H116.264V21.726L129.394 2.5835H135.405L122.872 20.8771H131.739V15.1471H136.769V20.8771H141.928V25.546Z" fill="white"/>
<path d="M167.727 32.2947L161.631 23.5935C161.375 23.6218 160.992 23.636 160.48 23.636H153.745V32.2947H148.203V2.5835H160.48C163.066 2.5835 165.312 3.00794 167.216 3.85683C169.148 4.70572 170.626 5.92246 171.649 7.50706C172.672 9.09166 173.184 10.9734 173.184 13.1522C173.184 15.3876 172.63 17.3117 171.521 18.9246C170.441 20.5375 168.878 21.7401 166.832 22.5324L173.695 32.2947H167.727ZM167.599 13.1522C167.599 11.2563 166.974 9.79906 165.724 8.7804C164.473 7.76173 162.64 7.25239 160.224 7.25239H153.745V19.0944H160.224C162.64 19.0944 164.473 18.5851 165.724 17.5664C166.974 16.5194 167.599 15.048 167.599 13.1522Z" fill="white"/>
<path d="M189.104 32.5918C186.802 32.5918 184.727 32.0966 182.88 31.1062C181.033 30.1158 179.583 28.7435 178.532 26.9891C177.509 25.2064 176.997 23.1974 176.997 20.962C176.997 18.7266 177.509 16.7317 178.532 14.9773C179.583 13.2229 181.033 11.8505 182.88 10.8602C184.727 9.8698 186.802 9.37462 189.104 9.37462C191.434 9.37462 193.523 9.8698 195.371 10.8602C197.218 11.8505 198.653 13.2229 199.676 14.9773C200.728 16.7317 201.254 18.7266 201.254 20.962C201.254 23.1974 200.728 25.2064 199.676 26.9891C198.653 28.7435 197.218 30.1158 195.371 31.1062C193.523 32.0966 191.434 32.5918 189.104 32.5918ZM189.104 28.0502C191.065 28.0502 192.685 27.3994 193.964 26.0978C195.243 24.7961 195.882 23.0842 195.882 20.962C195.882 18.8397 195.243 17.1278 193.964 15.8262C192.685 14.5245 191.065 13.8737 189.104 13.8737C187.143 13.8737 185.523 14.5245 184.244 15.8262C182.994 17.1278 182.368 18.8397 182.368 20.962C182.368 23.0842 182.994 24.7961 184.244 26.0978C185.523 27.3994 187.143 28.0502 189.104 28.0502Z" fill="white"/>
<path d="M228.389 9.62928V32.2947H223.316V29.4084C222.463 30.4271 221.398 31.2194 220.119 31.7853C218.84 32.323 217.461 32.5918 215.984 32.5918C212.943 32.5918 210.541 31.757 208.779 30.0875C207.045 28.3898 206.179 25.8855 206.179 22.5749V9.62928H211.507V21.8533C211.507 23.8906 211.962 25.4186 212.872 26.4373C213.809 27.4277 215.131 27.9229 216.836 27.9229C218.74 27.9229 220.247 27.3428 221.355 26.1826C222.492 24.9942 223.06 23.2964 223.06 21.0893V9.62928H228.389Z" fill="white"/>
<path d="M249.05 31.0638C248.425 31.5731 247.658 31.9551 246.748 32.2098C245.867 32.4644 244.929 32.5918 243.935 32.5918C241.434 32.5918 239.501 31.9409 238.137 30.6393C236.773 29.3377 236.091 27.4418 236.091 24.9518V14.0435H232.339V9.79906H236.091V4.62083H241.419V9.79906H247.515V14.0435H241.419V24.8244C241.419 25.928 241.689 26.7769 242.229 27.3711C242.769 27.937 243.551 28.22 244.574 28.22C245.768 28.22 246.762 27.9087 247.558 27.2862L249.05 31.0638Z" fill="white"/>
<path d="M274.085 21.0893C274.085 21.4572 274.056 21.9806 273.999 22.6597H256.137C256.45 24.3292 257.26 25.6592 258.567 26.6495C259.903 27.6116 261.551 28.0926 263.512 28.0926C266.013 28.0926 268.074 27.2721 269.694 25.6309L272.55 28.8991C271.527 30.1158 270.234 31.0355 268.671 31.658C267.108 32.2805 265.346 32.5918 263.385 32.5918C260.884 32.5918 258.681 32.0966 256.777 31.1062C254.873 30.1158 253.395 28.7435 252.343 26.9891C251.32 25.2064 250.809 23.1974 250.809 20.962C250.809 18.7549 251.306 16.7741 252.301 15.0197C253.324 13.2371 254.731 11.8505 256.521 10.8602C258.312 9.8698 260.329 9.37462 262.575 9.37462C264.791 9.37462 266.767 9.8698 268.5 10.8602C270.262 11.8223 271.626 13.1946 272.593 14.9773C273.587 16.7317 274.085 18.769 274.085 21.0893ZM262.575 13.6191C260.869 13.6191 259.42 14.1284 258.226 15.1471C257.061 16.1374 256.351 17.4674 256.095 19.1369H269.012C268.784 17.4957 268.088 16.1657 266.923 15.1471C265.758 14.1284 264.308 13.6191 262.575 13.6191Z" fill="white"/>
<path d="M68.5111 47.1907L68.5013 42.6611L66.2462 46.4098H65.6775L63.4224 42.7196V47.1907H62.2065V40.3572H63.2557L65.9814 44.8869L68.6582 40.3572H69.7073L69.7171 47.1907H68.5111Z" fill="white"/>
<path d="M78.6796 46.1267V47.1907H73.532V40.3572H78.5423V41.4213H74.8066V43.198H78.1207V44.2425H74.8066V46.1267H78.6796Z" fill="white"/>
<path d="M82.0615 40.3572H85.0618C85.7939 40.3572 86.4443 40.5004 87.013 40.7867C87.5817 41.0666 88.0229 41.4668 88.3367 41.9875C88.6504 42.5016 88.8073 43.0971 88.8073 43.774C88.8073 44.4508 88.6504 45.0496 88.3367 45.5702C88.0229 46.0844 87.5817 46.4846 87.013 46.771C86.4443 47.0508 85.7939 47.1907 85.0618 47.1907H82.0615V40.3572ZM85.003 46.1169C85.5063 46.1169 85.9475 46.0225 86.3267 45.8338C86.7123 45.6385 87.0065 45.3652 87.2091 45.0138C87.4183 44.6558 87.5229 44.2425 87.5229 43.774C87.5229 43.3054 87.4183 42.8954 87.2091 42.5439C87.0065 42.186 86.7123 41.9126 86.3267 41.7239C85.9475 41.5286 85.5063 41.431 85.003 41.431H83.3362V46.1169H85.003Z" fill="white"/>
<path d="M92.1231 40.3572H93.3977V47.1907H92.1231V40.3572Z" fill="white"/>
<path d="M100.392 47.2884C99.699 47.2884 99.0715 47.1387 98.5093 46.8393C97.9537 46.5334 97.5158 46.1136 97.1955 45.58C96.8817 45.0463 96.7249 44.4443 96.7249 43.774C96.7249 43.1036 96.885 42.5016 97.2053 41.9679C97.5256 41.4343 97.9635 41.0178 98.5192 40.7184C99.0813 40.4125 99.7088 40.2596 100.402 40.2596C100.964 40.2596 101.477 40.3572 101.941 40.5524C102.405 40.7477 102.797 41.0308 103.118 41.4017L102.294 42.1729C101.797 41.6393 101.186 41.3724 100.461 41.3724C99.9899 41.3724 99.5683 41.4766 99.1957 41.6848C98.8231 41.8866 98.5322 42.1697 98.3231 42.5342C98.1139 42.8986 98.0093 43.3119 98.0093 43.774C98.0093 44.236 98.1139 44.6493 98.3231 45.0138C98.5322 45.3782 98.8231 45.6646 99.1957 45.8728C99.5683 46.0746 99.9899 46.1755 100.461 46.1755C101.186 46.1755 101.797 45.9054 102.294 45.3652L103.118 46.1462C102.797 46.5171 102.402 46.8003 101.931 46.9955C101.467 47.1907 100.954 47.2884 100.392 47.2884Z" fill="white"/>
<path d="M110.608 45.6093H107.176L106.5 47.1907H105.186L108.274 40.3572H109.529L112.628 47.1907H111.294L110.608 45.6093ZM110.186 44.6135L108.892 41.6263L107.607 44.6135H110.186Z" fill="white"/>
<path d="M116.509 41.431H114.234V40.3572H120.058V41.431H117.784V47.1907H116.509V41.431Z" fill="white"/>
<path d="M122.976 40.3572H124.251V47.1907H122.976V40.3572Z" fill="white"/>
<path d="M131.274 47.2884C130.575 47.2884 129.944 47.1387 129.382 46.8393C128.82 46.5334 128.379 46.1136 128.058 45.58C127.738 45.0398 127.578 44.4378 127.578 43.774C127.578 43.1101 127.738 42.5114 128.058 41.9777C128.379 41.4375 128.82 41.0178 129.382 40.7184C129.944 40.4125 130.575 40.2596 131.274 40.2596C131.974 40.2596 132.604 40.4125 133.167 40.7184C133.729 41.0178 134.17 41.4343 134.49 41.9679C134.811 42.5016 134.971 43.1036 134.971 43.774C134.971 44.4443 134.811 45.0463 134.49 45.58C134.17 46.1136 133.729 46.5334 133.167 46.8393C132.604 47.1387 131.974 47.2884 131.274 47.2884ZM131.274 46.1755C131.732 46.1755 132.144 46.0746 132.51 45.8728C132.876 45.6646 133.163 45.3782 133.373 45.0138C133.582 44.6428 133.686 44.2295 133.686 43.774C133.686 43.3184 133.582 42.9084 133.373 42.5439C133.163 42.173 132.876 41.8866 132.51 41.6848C132.144 41.4766 131.732 41.3724 131.274 41.3724C130.817 41.3724 130.405 41.4766 130.039 41.6848C129.673 41.8866 129.385 42.173 129.176 42.5439C128.967 42.9084 128.862 43.3184 128.862 43.774C128.862 44.2295 128.967 44.6428 129.176 45.0138C129.385 45.3782 129.673 45.6646 130.039 45.8728C130.405 46.0746 130.817 46.1755 131.274 46.1755Z" fill="white"/>
<path d="M144.381 40.3572V47.1907H143.332L139.548 42.5634V47.1907H138.283V40.3572H139.332L143.117 44.9845V40.3572H144.381Z" fill="white"/>
<path d="M152.852 40.3572H155.853C156.585 40.3572 157.235 40.5004 157.804 40.7867C158.372 41.0666 158.814 41.4668 159.127 41.9875C159.441 42.5016 159.598 43.0971 159.598 43.774C159.598 44.4508 159.441 45.0496 159.127 45.5702C158.814 46.0844 158.372 46.4846 157.804 46.771C157.235 47.0508 156.585 47.1907 155.853 47.1907H152.852V40.3572ZM155.794 46.1169C156.297 46.1169 156.738 46.0225 157.117 45.8338C157.503 45.6385 157.797 45.3652 158 45.0138C158.209 44.6558 158.314 44.2425 158.314 43.774C158.314 43.3054 158.209 42.8954 158 42.5439C157.797 42.186 157.503 41.9126 157.117 41.7239C156.738 41.5286 156.297 41.431 155.794 41.431H154.127V46.1169H155.794Z" fill="white"/>
<path d="M168.061 46.1267V47.1907H162.914V40.3572H167.924V41.4213H164.188V43.198H167.503V44.2425H164.188V46.1267H168.061Z" fill="white"/>
<path d="M171.443 40.3572H172.718V46.1169H176.307V47.1907H171.443V40.3572Z" fill="white"/>
<path d="M179.274 40.3572H180.549V47.1907H179.274V40.3572Z" fill="white"/>
<path d="M190.593 40.3572L187.603 47.1907H186.348L183.347 40.3572H184.73L187.014 45.6288L189.319 40.3572H190.593Z" fill="white"/>
<path d="M198.426 46.1267V47.1907H193.278V40.3572H198.289V41.4213H194.553V43.198H197.867V44.2425H194.553V46.1267H198.426Z" fill="white"/>
<path d="M206.299 47.1907L204.897 45.1895C204.838 45.196 204.749 45.1992 204.632 45.1992H203.083V47.1907H201.808V40.3572H204.632C205.227 40.3572 205.743 40.4548 206.181 40.65C206.625 40.8453 206.965 41.1251 207.201 41.4896C207.436 41.854 207.554 42.2868 207.554 42.788C207.554 43.3021 207.426 43.7447 207.171 44.1156C206.923 44.4866 206.563 44.7632 206.093 44.9454L207.671 47.1907H206.299ZM206.269 42.788C206.269 42.3519 206.125 42.0168 205.838 41.7825C205.55 41.5482 205.129 41.431 204.573 41.431H203.083V44.1547H204.573C205.129 44.1547 205.55 44.0375 205.838 43.8032C206.125 43.5624 206.269 43.224 206.269 42.788Z" fill="white"/>
<path d="M213.806 44.7795V47.1907H212.531V44.799L209.835 40.3572H211.198L213.208 43.6861L215.238 40.3572H216.493L213.806 44.7795Z" fill="white"/>
<path d="M226.087 47.2884C225.557 47.2884 225.044 47.2135 224.547 47.0638C224.057 46.9141 223.668 46.7156 223.381 46.4683L223.822 45.4823C224.103 45.7036 224.446 45.8859 224.851 46.029C225.263 46.1657 225.675 46.234 226.087 46.234C226.597 46.234 226.976 46.1527 227.224 45.99C227.479 45.8273 227.607 45.6125 227.607 45.3457C227.607 45.1504 227.535 44.991 227.391 44.8673C227.254 44.7372 227.077 44.6363 226.861 44.5647C226.646 44.4931 226.351 44.4118 225.979 44.3206C225.456 44.197 225.031 44.0733 224.704 43.9497C224.384 43.826 224.106 43.634 223.871 43.3737C223.642 43.1069 223.528 42.7489 223.528 42.2999C223.528 41.9224 223.629 41.5807 223.832 41.2748C224.041 40.9624 224.351 40.7151 224.763 40.5329C225.181 40.3507 225.691 40.2596 226.293 40.2596C226.711 40.2596 227.123 40.3116 227.528 40.4157C227.933 40.5199 228.283 40.6696 228.577 40.8648L228.175 41.8508C227.875 41.6751 227.561 41.5417 227.234 41.4505C226.907 41.3594 226.59 41.3139 226.283 41.3139C225.779 41.3139 225.404 41.3985 225.155 41.5677C224.913 41.7369 224.792 41.9614 224.792 42.2413C224.792 42.4365 224.861 42.596 224.998 42.7196C225.142 42.8433 225.322 42.9409 225.538 43.0125C225.753 43.0841 226.048 43.1654 226.42 43.2566C226.93 43.3737 227.348 43.4974 227.675 43.6275C228.002 43.7512 228.28 43.9432 228.509 44.2035C228.744 44.4638 228.862 44.8153 228.862 45.2578C228.862 45.6353 228.757 45.977 228.548 46.2829C228.345 46.5887 228.035 46.8328 227.616 47.015C227.198 47.1972 226.688 47.2884 226.087 47.2884Z" fill="white"/>
<path d="M234.904 44.7795V47.1907H233.629V44.799L230.933 40.3572H232.296L234.306 43.6861L236.335 40.3572H237.59L234.904 44.7795Z" fill="white"/>
<path d="M242.37 47.2884C241.841 47.2884 241.328 47.2135 240.831 47.0638C240.341 46.9141 239.952 46.7156 239.664 46.4683L240.105 45.4823C240.386 45.7036 240.729 45.8859 241.135 46.029C241.547 46.1657 241.958 46.234 242.37 46.234C242.88 46.234 243.259 46.1527 243.508 45.99C243.762 45.8273 243.89 45.6125 243.89 45.3457C243.89 45.1504 243.818 44.991 243.674 44.8673C243.537 44.7372 243.36 44.6363 243.145 44.5647C242.929 44.4931 242.635 44.4118 242.262 44.3206C241.739 44.197 241.315 44.0733 240.988 43.9497C240.667 43.826 240.39 43.634 240.154 43.3737C239.925 43.1069 239.811 42.7489 239.811 42.2999C239.811 41.9224 239.912 41.5807 240.115 41.2748C240.324 40.9624 240.635 40.7151 241.047 40.5329C241.465 40.3507 241.975 40.2596 242.576 40.2596C242.994 40.2596 243.406 40.3116 243.812 40.4157C244.217 40.5199 244.566 40.6696 244.861 40.8648L244.459 41.8508C244.158 41.6751 243.844 41.5417 243.517 41.4505C243.191 41.3594 242.874 41.3139 242.566 41.3139C242.063 41.3139 241.687 41.3985 241.439 41.5677C241.197 41.7369 241.076 41.9614 241.076 42.2413C241.076 42.4365 241.145 42.596 241.282 42.7196C241.426 42.8433 241.605 42.9409 241.821 43.0125C242.037 43.0841 242.331 43.1654 242.704 43.2566C243.213 43.3737 243.632 43.4974 243.959 43.6275C244.285 43.7512 244.563 43.9432 244.792 44.2035C245.027 44.4638 245.145 44.8153 245.145 45.2578C245.145 45.6353 245.04 45.977 244.831 46.2829C244.629 46.5887 244.318 46.8328 243.9 47.015C243.481 47.1972 242.972 47.2884 242.37 47.2884Z" fill="white"/>
<path d="M249.666 41.431H247.392V40.3572H253.216V41.431H250.941V47.1907H249.666V41.431Z" fill="white"/>
<path d="M261.281 46.1267V47.1907H256.133V40.3572H261.144V41.4213H257.408V43.198H260.722V44.2425H257.408V46.1267H261.281Z" fill="white"/>
<path d="M270.967 47.1907L270.958 42.6611L268.703 46.4098H268.134L265.879 42.7196V47.1907H264.663V40.3572H265.712L268.438 44.8869L271.115 40.3572H272.164L272.173 47.1907H270.967Z" fill="white"/>
<g clip-path="url(#clip0_23_6329)">
<path d="M11.3526 21.6464C11.3526 25.4779 13.3047 29.6486 15.4956 33.1201H3.67922C1.64751 33.1201 0 31.4726 0 29.4374V20.563C0 18.5313 1.64751 16.8838 3.67922 16.8838H12.211C11.6572 18.3652 11.3526 19.9711 11.3526 21.6464Z" fill="white"/>
<path d="M33.1165 3.68268V10.6777C30.8459 8.99557 28.0389 7.99875 25 7.99875C21.9611 7.99875 19.1507 8.99557 16.8801 10.6812V3.68268C16.8801 1.64751 18.5276 0 20.5628 0H29.4372C31.4689 0 33.1165 1.64751 33.1165 3.68268Z" fill="white"/>
<path d="M29.1984 40.1289C30.0222 39.2117 31.5347 37.4431 33.1165 35.2072V46.321C33.1165 48.3527 31.4689 50.0002 29.4372 50.0002H20.5628C18.5276 50.0002 16.8801 48.3527 16.8801 46.321V35.1968C18.4653 37.4396 19.9813 39.2117 20.8085 40.1289C21.8746 41.3196 23.4044 42.0014 25 42.0014C26.5956 42.0014 28.1289 41.3196 29.1984 40.1289Z" fill="white"/>
<path d="M50 20.563V29.4374C50 31.4726 48.3525 33.1201 46.3173 33.1201H34.5078C36.6987 29.6486 38.6508 25.4779 38.6508 21.6464C38.6508 19.9711 38.3462 18.3652 37.7925 16.8838H46.3173C48.3525 16.8838 50 18.5313 50 20.563Z" fill="white"/>
<path d="M24.9966 12.2769C20.1406 12.2769 16.1914 16.226 16.1914 21.0821C16.1914 27.1079 24.0725 35.9512 24.4048 36.325C24.7197 36.6746 25.27 36.6746 25.585 36.325C25.9207 35.9512 33.7984 27.1045 33.7984 21.0821C33.7984 16.226 29.8492 12.2769 24.9932 12.2769H24.9966ZM24.9966 25.5124C22.553 25.5124 20.5663 23.5256 20.5663 21.0821C20.5663 18.6385 22.553 16.6518 24.9966 16.6518C27.4402 16.6518 29.4269 18.6385 29.4269 21.0821C29.4269 23.5256 27.4402 25.5124 24.9966 25.5124Z" fill="white"/>
</g>

</g></symbol><symbol id="icon-logo-visa" viewBox="0 0 72 48"><g fill="none">
<rect width="72" height="48" rx="12" fill="white"/>
<rect x="0.5" y="0.5" width="71" height="47" rx="11.5" stroke="#DDDDDD" stroke-opacity="0.5"/>
<path fill-rule="evenodd" clip-rule="evenodd" d="M21.5005 32.4657H16.8272L13.3227 19.1224C13.1564 18.5086 12.8032 17.966 12.2837 17.7103C10.9872 17.0676 9.55854 16.5561 8 16.2981V15.7844H15.5284C16.5674 15.7844 17.3467 16.5561 17.4765 17.4523L19.2948 27.0773L23.9659 15.7844H28.5093L21.5005 32.4657ZM31.1069 32.4657H26.6934L30.3277 15.7844H34.7412L31.1069 32.4657ZM40.4511 20.406C40.581 19.5075 41.3602 18.9938 42.2694 18.9938C43.698 18.8648 45.2543 19.1228 46.5531 19.7633L47.3323 16.1717C46.0336 15.658 44.6049 15.4 43.3084 15.4C39.0247 15.4 35.9076 17.7106 35.9076 20.9175C35.9076 23.3571 38.1155 24.638 39.6741 25.4097C41.3602 26.1792 42.0096 26.6929 41.8797 27.4623C41.8797 28.6165 40.581 29.1303 39.2845 29.1303C37.7259 29.1303 36.1674 28.7455 34.741 28.1028L33.9617 31.6966C35.5203 32.3371 37.2064 32.5951 38.7649 32.5951C43.5681 32.7218 46.5531 30.4134 46.5531 26.9486C46.5531 22.5854 40.4511 22.3296 40.4511 20.406ZM62.0001 32.4656L58.4957 15.7843H54.7315C53.9522 15.7843 53.1729 16.298 52.9132 17.0675L46.4238 32.4656H50.9673L51.8742 30.0282H57.4566L57.9761 32.4656H62.0001ZM55.3808 20.277L56.6773 26.5639H53.043L55.3808 20.277Z" fill="#172B85"/>
</g></symbol><symbol id="icon-magnifier" viewBox="0 0 20 20">
<path d="M17.8392 16.4608L14.1642 12.7858C15.0491 11.6076 15.5267 10.1735 15.525 8.7C15.525 4.93667 12.4633 1.875 8.7 1.875C4.93667 1.875 1.875 4.93667 1.875 8.7C1.875 12.4633 4.93667 15.525 8.7 15.525C10.1732 15.5266 11.607 15.0489 12.785 14.1642L16.46 17.8392C16.6453 18.0092 16.8891 18.1012 17.1406 18.0958C17.392 18.0905 17.6317 17.9882 17.8096 17.8104C17.9875 17.6326 18.0899 17.393 18.0954 17.1416C18.1009 16.8901 18.0091 16.6462 17.8392 16.4608ZM3.825 8.7C3.825 7.73582 4.11091 6.79328 4.64659 5.9916C5.18226 5.18991 5.94363 4.56506 6.83442 4.19609C7.72521 3.82711 8.70541 3.73057 9.65107 3.91867C10.5967 4.10677 11.4654 4.57107 12.1471 5.25285C12.8289 5.93464 13.2932 6.80328 13.4813 7.74893C13.6694 8.69459 13.5729 9.67479 13.2039 10.5656C12.8349 11.4564 12.2101 12.2177 11.4084 12.7534C10.6067 13.2891 9.66418 13.575 8.7 13.575C7.40754 13.5735 6.16846 13.0593 5.25456 12.1454C4.34065 11.2315 3.82654 9.99246 3.825 8.7Z" fill="#D3D9DE"/>
</symbol><symbol id="icon-mark-check" viewBox="0 0 16 16"><g fill="none">
<g clip-path="url(#clip0_1_2781)">
<path d="M7.99967 1.33398C4.31967 1.33398 1.33301 4.32065 1.33301 8.00065C1.33301 11.6807 4.31967 14.6673 7.99967 14.6673C11.6797 14.6673 14.6663 11.6807 14.6663 8.00065C14.6663 4.32065 11.6797 1.33398 7.99967 1.33398ZM6.66634 11.334L3.33301 8.00065L4.27301 7.06065L6.66634 9.44732L11.7263 4.38732L12.6663 5.33398L6.66634 11.334Z" fill="#4AA3EF"/>
</g>

</g></symbol><symbol id="icon-panel-account" viewBox="0 0 28 28"><g fill="none">
<path d="M13.5 14.5C14.7364 14.5 15.807 14.0196 16.6818 13.0717C17.5566 12.124 18 10.9645 18 9.62485C18 8.28568 17.5566 7.12596 16.6817 6.17796C15.8068 5.23041 14.7363 4.75 13.5 4.75C12.2635 4.75 11.1931 5.23041 10.3184 6.17811C9.44359 7.12581 9 8.28553 9 9.62485C9 10.9645 9.44359 12.1242 10.3185 13.0719C11.1934 14.0194 12.2639 14.5 13.5 14.5Z" fill="#4AA3EF"/>
<path d="M21.7101 19.8923C21.6834 19.5248 21.6294 19.1239 21.5498 18.7006C21.4696 18.2741 21.3662 17.8709 21.2425 17.5024C21.1147 17.1215 20.9409 16.7454 20.726 16.385C20.503 16.0108 20.241 15.6851 19.9471 15.417C19.6398 15.1366 19.2635 14.9111 18.8283 14.7466C18.3946 14.583 17.9141 14.5001 17.4 14.5001C17.1981 14.5001 17.0029 14.5791 16.6258 14.8132C16.3937 14.9576 16.1223 15.1245 15.8193 15.3091C15.5602 15.4665 15.2093 15.614 14.7758 15.7475C14.3528 15.878 13.9234 15.9442 13.4996 15.9442C13.0757 15.9442 12.6465 15.878 12.2231 15.7475C11.79 15.6141 11.4391 15.4667 11.1803 15.3092C10.8802 15.1264 10.6086 14.9594 10.3731 14.8131C9.99644 14.579 9.80104 14.5 9.59916 14.5C9.08494 14.5 8.60451 14.583 8.17102 14.7468C7.73616 14.911 7.3597 15.1364 7.05204 15.4172C6.75826 15.6854 6.49617 16.011 6.27346 16.385C6.05875 16.7454 5.88493 17.1214 5.75698 17.5026C5.6334 17.8711 5.53005 18.2741 5.44977 18.7006C5.37026 19.1233 5.31624 19.5244 5.28953 19.8927C5.26328 20.2536 5.25 20.6281 5.25 21.0064C5.25 21.9909 5.57818 22.7879 6.22533 23.3757C6.86449 23.9557 7.71021 24.25 8.73865 24.25H18.2614C19.2899 24.25 20.1353 23.9559 20.7746 23.3757C21.4219 22.7884 21.7501 21.9912 21.7501 21.0063C21.7499 20.6263 21.7365 20.2514 21.7101 19.8923Z" fill="#4AA3EF"/>
</g></symbol><symbol id="icon-panel-bank" viewBox="0 0 28 28"><g fill="none">
<g clip-path="url(#clip0_143_1920)">
<path d="M24 22.3647V23.7647C24 24.4457 23.4458 25 22.7647 25H4.23529C3.55424 25 3 24.4457 3 23.7647V22.3647C3 21.6836 3.55424 21.1294 4.23529 21.1294H22.7647C23.4458 21.1294 24 21.6836 24 22.3647Z" fill="#4AA3EF"/>
<path d="M4.97644 12.0706V19.8941H22.0235C22.0235 19.541 22.0235 12.4563 22.0235 12.0706H18.1529V18.4941H15.4353V12.0706H11.5647V18.4941H8.84703V12.0706H4.97644Z" fill="#4AA3EF"/>
<path d="M3.61785 10.8353H23.3826C24.0141 10.8353 24.2378 9.99237 23.6871 9.68029L13.8047 4.08029C13.6158 3.97324 13.3846 3.97324 13.1957 4.08029L3.31335 9.68029C2.76389 9.99163 2.98476 10.8353 3.61785 10.8353Z" fill="#4AA3EF"/>
</g>

</g></symbol><symbol id="icon-panel-chain" viewBox="0 0 28 28"><g fill="none">
<path d="M11.9714 9.55133C9.32369 9.55133 7.16968 11.7054 7.16968 14.353V14.4153C6.7304 13.9534 6.45628 13.3328 6.45628 12.6469V7.80172C6.45628 6.38386 7.61002 5.23008 9.02787 5.23008C10.446 5.23008 11.5998 6.38386 11.5998 7.80172V8.08516C11.7236 8.07753 11.8462 8.06435 11.9714 8.06435C12.618 8.06435 13.2423 8.16327 13.8299 8.34508V7.80176C13.83 5.15405 11.6759 3 9.02791 3C6.38021 3 4.2262 5.15405 4.2262 7.80172V12.6469C4.2262 14.6358 5.44215 16.346 7.16972 17.0739V19.1983C7.16972 21.8459 9.32373 24 11.9714 24C14.6194 24 16.7735 21.8459 16.7735 19.1983L16.7738 14.353C16.7737 11.7061 14.6201 9.55133 11.9714 9.55133ZM14.5434 16.3744C14.5434 16.9571 14.5434 17.1673 14.5434 17.1762C14.5434 17.6132 14.5434 18.2567 14.5434 19.1983C14.5434 20.6161 13.3896 21.7699 11.9714 21.7699C10.5535 21.7699 9.39981 20.6161 9.39981 19.1983V17.43C10.9324 17.3117 12.2639 16.4732 13.0568 15.251V14.353C13.0568 13.755 12.5701 13.2684 11.9714 13.2684C11.7965 13.2684 11.6285 13.3133 11.4768 13.3914C11.1906 14.3288 10.3905 15.0353 9.39985 15.1811V14.353C9.39985 12.9918 10.538 11.7814 11.9714 11.7814C13.3882 11.7814 14.5434 12.9337 14.5434 14.353C14.5434 15.2946 14.5434 15.9375 14.5434 16.3744Z" fill="#4AA3EF"/>
</g></symbol><symbol id="icon-panel-key" viewBox="0 0 28 28"><g fill="none">
<g clip-path="url(#clip0_143_2086)">
<path d="M14.3319 23.0747C16.0737 21.3341 16.7087 18.7721 15.9812 16.4195L16.7625 15.6384C16.8085 15.5911 16.8321 15.5267 16.8277 15.461L16.6504 13.5368C16.6448 13.471 16.6686 13.4061 16.7153 13.3595C16.7619 13.3128 16.8269 13.289 16.8926 13.2945L18.6541 13.4573C18.7199 13.4622 18.7843 13.4383 18.8309 13.3917C18.8775 13.3452 18.9014 13.2807 18.8965 13.2149L18.7337 11.4535C18.7282 11.3877 18.7519 11.3227 18.7987 11.276C18.8454 11.2293 18.9102 11.2057 18.9761 11.2112L20.7376 11.374C20.8032 11.3789 20.8678 11.355 20.9144 11.3084C20.9608 11.2618 20.9849 11.1972 20.9798 11.1316L20.8208 9.36297C20.8151 9.29801 20.8385 9.23403 20.8846 9.18795C20.9305 9.14204 20.9945 9.1186 21.0594 9.12413L22.9945 9.29785C23.0593 9.30339 23.1231 9.27945 23.1682 9.23273L23.8987 8.48038C23.9637 8.412 24 8.32147 24 8.22721L23.9928 4.76943C23.9954 4.57553 23.9197 4.38862 23.7829 4.25121C23.6462 4.11379 23.4598 4.03711 23.2657 4.03874L19.7176 4.03516C19.6184 4.05388 19.5282 4.10484 19.4608 4.17989L11.6011 12.0394C8.49323 11.0775 5.14617 12.5099 3.69634 15.4223C2.24635 18.3347 3.1208 21.8686 5.76175 23.7688C8.40254 25.669 12.0313 25.3751 14.3319 23.0747ZM19.4028 6.30653C19.5479 6.1727 19.7715 6.1727 19.9165 6.30653C19.9841 6.37051 20.0223 6.45957 20.0223 6.55254C20.0223 6.64566 19.9841 6.73456 19.9165 6.79854C19.7715 6.93237 19.5479 6.93237 19.4028 6.79854C19.3353 6.73456 19.297 6.64566 19.297 6.55254C19.297 6.45957 19.3353 6.37051 19.4028 6.30653ZM12.8273 12.8063L18.4589 7.17464C18.5499 7.08362 18.6827 7.04797 18.8071 7.08134C18.9317 7.11472 19.0289 7.21192 19.0623 7.33631C19.0955 7.46069 19.06 7.59355 18.9688 7.68472L13.3373 13.3162C13.2694 13.3846 13.1768 13.4223 13.0804 13.4212C12.9852 13.4223 12.8937 13.3844 12.8273 13.3162C12.7595 13.2486 12.7214 13.157 12.7214 13.0612C12.7214 12.9655 12.7595 12.8738 12.8273 12.8063ZM6.51215 19.0056C7.01833 18.4994 7.77947 18.348 8.4408 18.622C9.10214 18.8959 9.53343 19.5412 9.53343 20.2571C9.53343 20.973 9.10214 21.6184 8.4408 21.8922C7.77947 22.1662 7.01833 22.0148 6.51215 21.5087C5.82134 20.8174 5.82134 19.6969 6.51215 19.0056Z" fill="#4AA3EF"/>
</g>

</g></symbol><symbol id="icon-panel-laptop" viewBox="0 0 28 28"><g fill="none">
<g clip-path="url(#clip0_143_2058)">
<path fill-rule="evenodd" clip-rule="evenodd" d="M4.36221 7.84662C4.36225 7.74137 4.40403 7.64043 4.47838 7.56592C4.55272 7.49142 4.65358 7.44944 4.75883 7.44918H22.2412C22.3465 7.44944 22.4474 7.49142 22.5217 7.56592C22.5961 7.64043 22.6378 7.74137 22.6379 7.84662V19.2838L16.3848 19.2395H16.3828C16.3328 19.2396 16.2835 19.251 16.2386 19.273C16.1936 19.2949 16.1543 19.3268 16.1236 19.3663L15.2877 20.438H11.7123L10.8765 19.3663C10.8458 19.3268 10.8064 19.2949 10.7615 19.273C10.7166 19.251 10.6673 19.2396 10.6173 19.2395H10.6153L4.36221 19.2838V7.84662ZM23.6749 19.2912L23.2957 19.2888V7.84662C23.2951 7.56721 23.1838 7.29942 22.9862 7.10192C22.7885 6.90443 22.5207 6.79333 22.2412 6.79297H4.75883C4.47942 6.79333 4.21155 6.90443 4.01391 7.10192C3.81626 7.29942 3.70497 7.56721 3.7044 7.84662V19.2888L3.32517 19.2912C3.23868 19.292 3.15601 19.3269 3.09514 19.3884C3.03427 19.4498 3.00012 19.5328 3.00012 19.6193V20.7489C3.00049 21.1353 3.15407 21.5057 3.42719 21.779C3.7003 22.0522 4.07065 22.206 4.457 22.2066H22.5431C22.9294 22.206 23.2998 22.0523 23.5729 21.779C23.8461 21.5057 23.9997 21.1353 24 20.7489V19.6194C24 19.5329 23.9659 19.4499 23.905 19.3884C23.8442 19.327 23.7615 19.2921 23.675 19.2913L23.6749 19.2912ZM22.0652 18.3889V8.35156C22.0652 8.30841 22.0566 8.26569 22.0401 8.22584C22.0235 8.18599 21.9993 8.1498 21.9687 8.11933C21.9382 8.08885 21.9019 8.0647 21.862 8.04824C21.8222 8.03179 21.7794 8.02336 21.7363 8.02344H5.26382C5.22067 8.02336 5.17793 8.03179 5.13804 8.04825C5.09815 8.0647 5.0619 8.08885 5.03135 8.11933C5.00081 8.1498 4.97657 8.186 4.96002 8.22585C4.94347 8.26569 4.93494 8.30841 4.93491 8.35156V18.3889C4.93491 18.4321 4.94342 18.4748 4.95996 18.5147C4.9765 18.5545 5.00074 18.5907 5.03129 18.6212C5.06184 18.6517 5.09811 18.6758 5.13801 18.6923C5.17791 18.7087 5.22066 18.7171 5.26382 18.717H21.7363C21.7794 18.7171 21.8222 18.7087 21.8621 18.6922C21.9019 18.6758 21.9382 18.6516 21.9688 18.6212C21.9993 18.5907 22.0235 18.5545 22.0401 18.5146C22.0567 18.4748 22.0652 18.4321 22.0652 18.3889V18.3889Z" fill="#4AA3EF"/>
</g>

</g></symbol><symbol id="icon-panel-mail" viewBox="0 0 28 28"><g fill="none">
<g clip-path="url(#clip0_143_1949)">
<path d="M15.255 16.8664C14.7326 17.2147 14.1257 17.3989 13.5 17.3989C12.8743 17.3989 12.2675 17.2147 11.745 16.8664L3.13982 11.1294C3.09208 11.0976 3.04557 11.0644 3 11.0303V20.431C3 21.5088 3.87466 22.3642 4.93319 22.3642H22.0668C23.1446 22.3642 24 21.4895 24 20.431V11.0303C23.9543 11.0645 23.9077 11.0977 23.8598 11.1296L15.255 16.8664Z" fill="#4AA3EF"/>
<path d="M3.82236 10.1053L12.4276 15.8424C12.7533 16.0595 13.1266 16.1681 13.5 16.1681C13.8733 16.1681 14.2467 16.0595 14.5724 15.8424L23.1776 10.1053C23.6926 9.76224 24 9.18802 24 8.56828C24 7.50265 23.1331 6.63574 22.0675 6.63574H4.93253C3.86695 6.63578 3 7.50269 3 8.5693C3 9.18802 3.30745 9.76224 3.82236 10.1053Z" fill="#4AA3EF"/>
</g>

</g></symbol><symbol id="icon-panel-ring" viewBox="0 0 28 28"><g fill="none">
<path d="M10.49 22.375C10.7999 22.8973 11.2404 23.3299 11.7681 23.6304C12.2958 23.931 12.8927 24.089 13.5 24.089C14.1073 24.089 14.7041 23.931 15.2319 23.6304C15.7596 23.3299 16.2001 22.8973 16.51 22.375H10.49Z" fill="#4AA3EF"/>
<path d="M20.5 13.31C19.9394 13.5158 19.3472 13.6224 18.75 13.625C17.7497 13.6242 16.7705 13.3376 15.9276 12.799C15.0847 12.2604 14.4132 11.4922 13.9922 10.5849C13.5712 9.67753 13.4181 8.66879 13.551 7.67738C13.6839 6.68598 14.0973 5.75318 14.7425 4.98879C14.3323 4.91543 13.9167 4.87737 13.5 4.87504C11.8431 4.86956 10.2438 5.48282 9.01541 6.59471C7.78698 7.70661 7.01789 9.23704 6.85874 10.8863L6.75374 11.875C6.60301 13.396 6.08012 14.8565 5.23124 16.1275C4.93892 16.5627 4.7706 17.0693 4.74435 17.5929C4.71809 18.1166 4.83489 18.6374 5.08221 19.0997C5.32954 19.562 5.69805 19.9482 6.14822 20.2169C6.59839 20.4856 7.11322 20.6267 7.63749 20.625H19.3625C20.1283 20.625 20.8628 20.3208 21.4043 19.7793C21.9458 19.2378 22.25 18.5034 22.25 17.7375C22.2533 17.1664 22.0823 16.6078 21.76 16.1363C21.1884 15.2694 20.7628 14.3146 20.5 13.31Z" fill="#4AA3EF"/>
<path d="M18.75 11.875C20.683 11.875 22.25 10.308 22.25 8.375C22.25 6.442 20.683 4.875 18.75 4.875C16.817 4.875 15.25 6.442 15.25 8.375C15.25 10.308 16.817 11.875 18.75 11.875Z" fill="#4AA3EF"/>
</g></symbol><symbol id="icon-panel-settings" viewBox="0 0 28 28"><g fill="none">
<path d="M23.6873 10.4193C23.2594 10.3567 22.851 10.1975 22.4926 9.95366C22.1342 9.70983 21.8349 9.38763 21.6171 9.01105C21.3994 8.63446 21.2686 8.2132 21.2347 7.77863C21.2008 7.34406 21.2646 6.90738 21.4213 6.5011C21.521 6.2355 21.5356 5.94512 21.4633 5.67068C21.391 5.39625 21.2353 5.15151 21.018 4.97078C20.0588 4.1588 18.967 3.52092 17.7913 3.0856C17.5236 2.98534 17.2313 2.97281 16.9561 3.04981C16.6809 3.1268 16.4369 3.28938 16.2587 3.51439C15.9905 3.86012 15.6477 4.13974 15.2564 4.33205C14.865 4.52435 14.4354 4.6243 14 4.6243C13.5646 4.6243 13.135 4.52435 12.7437 4.33205C12.3523 4.13974 12.0095 3.86012 11.7413 3.51439C11.5632 3.28938 11.3191 3.1268 11.0439 3.04981C10.7687 2.97281 10.4764 2.98534 10.2087 3.0856C9.1231 3.48751 8.10811 4.06151 7.20201 4.78596C6.97361 4.96824 6.8091 5.21945 6.73256 5.50281C6.65602 5.78616 6.67149 6.08678 6.77668 6.36064C6.9459 6.77766 7.01582 7.22886 6.98082 7.67804C6.94582 8.12723 6.80689 8.56189 6.57516 8.94717C6.34343 9.33244 6.02536 9.65761 5.64646 9.89657C5.26756 10.1355 4.83838 10.2817 4.39335 10.3232C4.10442 10.3544 3.83305 10.4782 3.61918 10.6765C3.40531 10.8748 3.26025 11.1371 3.20535 11.4247C3.0688 12.1061 3.00002 12.7996 3.00002 13.4947C2.99901 14.0767 3.04561 14.6578 3.13935 15.2321C3.186 15.5289 3.32836 15.8021 3.54443 16.0092C3.76049 16.2163 4.03822 16.3459 4.33468 16.378C4.78949 16.421 5.22746 16.5732 5.61193 16.8219C5.9964 17.0706 6.31619 17.4085 6.54453 17.8074C6.77287 18.2062 6.90311 18.6544 6.92437 19.1144C6.94562 19.5744 6.85726 20.0329 6.66668 20.4514C6.54196 20.7237 6.51102 21.0301 6.57878 21.3221C6.64654 21.6141 6.80911 21.8749 7.04068 22.0631C7.9941 22.8603 9.07536 23.4878 10.238 23.9187C10.3867 23.9706 10.5427 23.9981 10.7 24C10.9157 23.9995 11.1282 23.9469 11.3196 23.8466C11.511 23.7463 11.6757 23.6011 11.8 23.4234C12.0614 23.0395 12.4117 22.7257 12.8207 22.5092C13.2296 22.2928 13.6848 22.1802 14.1467 22.1814C14.5942 22.1819 15.0354 22.2878 15.4352 22.4906C15.8349 22.6934 16.1822 22.9875 16.4493 23.3494C16.627 23.5902 16.8787 23.765 17.1652 23.8466C17.4517 23.9282 17.7569 23.9119 18.0333 23.8004C19.0964 23.3691 20.0862 22.7729 20.9667 22.0335C21.1879 21.8491 21.3453 21.5988 21.4165 21.3185C21.4877 21.0382 21.4688 20.7424 21.3627 20.4736C21.1902 20.062 21.115 19.6155 21.143 19.1696C21.171 18.7236 21.3014 18.2903 21.524 17.9038C21.7466 17.5174 22.0553 17.1884 22.4256 16.9429C22.796 16.6973 23.2179 16.5419 23.658 16.4889C23.9434 16.4491 24.2088 16.3187 24.4158 16.1167C24.6228 15.9146 24.7607 15.6514 24.8093 15.3651C24.9271 14.7485 24.9909 14.1226 25 13.4947C25.0001 12.8325 24.9388 12.1716 24.8167 11.5209C24.7672 11.2409 24.6314 10.9838 24.4286 10.786C24.2259 10.5883 23.9665 10.46 23.6873 10.4193ZM17.6667 13.4947C17.6667 14.2258 17.4516 14.9405 17.0487 15.5484C16.6458 16.1562 16.0732 16.63 15.4032 16.9098C14.7332 17.1896 13.9959 17.2628 13.2847 17.1202C12.5734 16.9775 11.9201 16.6255 11.4073 16.1085C10.8945 15.5916 10.5453 14.9329 10.4038 14.2159C10.2623 13.4988 10.3349 12.7556 10.6125 12.0802C10.89 11.4048 11.3599 10.8274 11.9629 10.4213C12.5659 10.0151 13.2748 9.79832 14 9.79832C14.9725 9.79832 15.9051 10.1878 16.5927 10.881C17.2804 11.5742 17.6667 12.5144 17.6667 13.4947Z" fill="#4AA3EF"/>
</g></symbol><symbol id="icon-panel-shield" viewBox="0 0 28 28"><g fill="none">
<path d="M22.62 6.93904C22.5823 6.66828 22.3875 6.44556 22.1241 6.37236L13.6839 4.02512C13.5636 3.99163 13.4365 3.99163 13.316 4.02512L4.87577 6.37236C4.61243 6.44556 4.41762 6.66819 4.37992 6.93904C4.33096 7.29105 3.21417 15.6083 6.07868 19.7459C8.9398 23.8786 13.1606 24.9376 13.3388 24.9807C13.3918 24.9935 13.4458 24.9999 13.5 24.9999C13.5541 24.9999 13.6081 24.9935 13.6611 24.9807C13.8394 24.9376 18.0602 23.8786 20.9212 19.7459C23.7857 15.6084 22.669 7.29114 22.62 6.93904ZM18.9428 11.7948L13.1857 17.5519C13.0518 17.6858 12.8761 17.7529 12.7005 17.7529C12.5249 17.7529 12.3492 17.6859 12.2153 17.5519L8.65568 13.9923C8.52694 13.8636 8.45465 13.6891 8.45465 13.5071C8.45465 13.3251 8.52703 13.1505 8.65568 13.0218L9.36245 12.315C9.63047 12.0471 10.065 12.047 10.3329 12.315L12.7005 14.6826L17.2656 10.1174C17.3942 9.98866 17.5688 9.91637 17.7508 9.91637C17.9328 9.91637 18.1074 9.98866 18.2361 10.1174L18.9428 10.8242C19.2109 11.0922 19.2109 11.5267 18.9428 11.7948Z" fill="#4AA3EF"/>
</g></symbol><symbol id="icon-panel-star" viewBox="0 0 26 24"><g fill="none">
<path d="M12.0932 0.818527C12.4599 0.0749452 13.5202 0.074945 13.8869 0.818527L16.8691 6.86527C17.0147 7.16051 17.2963 7.36518 17.622 7.41255L24.2914 8.38236C25.1114 8.5016 25.439 9.50919 24.8458 10.0878L20.0189 14.7962C19.7834 15.0259 19.6759 15.3568 19.7315 15.681L20.8709 22.3287C21.0109 23.1457 20.1532 23.7686 19.4196 23.3826L13.4557 20.245C13.1642 20.0916 12.8159 20.0916 12.5245 20.245L6.56051 23.3826C5.82692 23.7686 4.96925 23.1457 5.10928 22.3287L6.24864 15.681C6.30421 15.3568 6.19676 15.0259 5.96128 14.7962L1.13434 10.0878C0.541178 9.50919 0.868707 8.5016 1.68871 8.38236L8.35812 7.41255C8.68389 7.36518 8.96548 7.16051 9.11109 6.86527L12.0932 0.818527Z" fill="#4AA3EF"/>
</g></symbol><symbol id="icon-panel-timer" viewBox="0 0 28 28"><g fill="none">
<g clip-path="url(#clip0_143_1976)">
<path d="M20.9246 7.07535C18.9414 5.09221 16.3046 4 13.5 4C10.6954 4 8.05854 5.09221 6.07535 7.07535C4.09221 9.05858 3 11.6954 3 14.5C3 17.3046 4.09221 19.9414 6.07535 21.9246C8.05854 23.9078 10.6954 25 13.5 25C16.3046 25 18.9414 23.9078 20.9246 21.9246C22.9078 19.9414 24 17.3046 24 14.5C24 11.6954 22.9078 9.05858 20.9246 7.07535ZM19.9262 10.1746C20.266 10.1746 20.5414 10.45 20.5414 10.7898C20.5414 11.1296 20.266 11.405 19.9262 11.405C19.5864 11.405 19.311 11.1296 19.311 10.7898C19.311 10.45 19.5864 10.1746 19.9262 10.1746ZM17.2102 7.45856C17.5499 7.45856 17.8254 7.73402 17.8254 8.07379C17.8254 8.41357 17.5499 8.68903 17.2102 8.68903C16.8704 8.68903 16.5949 8.41357 16.5949 8.07379C16.5949 7.73402 16.8704 7.45856 17.2102 7.45856ZM13.5 6.46442C13.8398 6.46442 14.1152 6.73988 14.1152 7.07966C14.1152 7.41943 13.8398 7.69489 13.5 7.69489C13.1602 7.69489 12.8848 7.41943 12.8848 7.07966C12.8848 6.73988 13.1602 6.46442 13.5 6.46442ZM12.8848 10.0601C12.8848 9.72028 13.1602 9.44482 13.5 9.44482C13.8398 9.44482 14.1152 9.72028 14.1152 10.0601V14.1448L17.5178 16.1093C17.8121 16.2792 17.9129 16.6554 17.743 16.9497C17.629 17.1471 17.4222 17.2574 17.2096 17.2574C17.1052 17.2574 16.9995 17.2309 16.9026 17.1749L13.1924 15.0328C13.002 14.9229 12.8848 14.7198 12.8848 14.5V10.0601ZM9.78981 7.45856C10.1296 7.45856 10.405 7.73402 10.405 8.07379C10.405 8.41357 10.1296 8.68903 9.78981 8.68903C9.45004 8.68903 9.17457 8.41357 9.17457 8.07379C9.17457 7.73402 9.45004 7.45856 9.78981 7.45856ZM18.0908 21.1002C16.7466 22.0361 15.137 22.5355 13.4972 22.5355C13.2737 22.5355 13.0496 22.5262 12.8256 22.5075C10.935 22.3496 9.15567 21.5246 7.81552 20.1844C6.51922 18.8882 5.69994 17.1695 5.5086 15.3452C5.32013 13.5482 5.74423 11.723 6.70281 10.206C6.88434 9.91872 7.26431 9.83304 7.55155 10.0145C7.83878 10.196 7.9245 10.576 7.74301 10.8632C6.05833 13.5294 6.45475 17.0836 8.68559 19.3144C10.0049 20.6337 11.7476 21.3117 13.5022 21.3118C14.8527 21.3118 16.2101 20.9103 17.3878 20.0904C17.6667 19.8962 18.0501 19.965 18.2442 20.2438C18.4384 20.5227 18.3697 20.9061 18.0908 21.1002ZM19.9262 18.8254C19.5864 18.8254 19.311 18.5499 19.311 18.2102C19.311 17.8704 19.5864 17.5949 19.9262 17.5949C20.266 17.5949 20.5414 17.8704 20.5414 18.2102C20.5414 18.55 20.266 18.8254 19.9262 18.8254ZM20.9203 15.1152C20.5806 15.1152 20.3051 14.8398 20.3051 14.5C20.3051 14.1602 20.5806 13.8848 20.9203 13.8848C21.2601 13.8848 21.5356 14.1602 21.5356 14.5C21.5356 14.8398 21.2601 15.1152 20.9203 15.1152Z" fill="#4AA3EF"/>
</g>

</g></symbol><symbol id="icon-pass-hide" viewBox="0 0 32 32">
<path d="M27 28.0029C26.8686 28.0031 26.7386 27.9772 26.6173 27.9269C26.496 27.8765 26.3859 27.8027 26.2933 27.7096L4.29329 5.70955C4.11665 5.51999 4.02049 5.26926 4.02506 5.01019C4.02963 4.75112 4.13458 4.50394 4.3178 4.32073C4.50101 4.13751 4.74819 4.03256 5.00726 4.02799C5.26633 4.02342 5.51706 4.11958 5.70662 4.29622L27.7066 26.2962C27.8463 26.4361 27.9414 26.6142 27.9799 26.808C28.0184 27.0019 27.9986 27.2028 27.923 27.3855C27.8474 27.5681 27.7194 27.7242 27.5551 27.8341C27.3908 27.944 27.1976 28.0027 27 28.0029Z"/>
<path d="M15.4986 19.7414L12.2626 16.5067C12.2487 16.493 12.2318 16.4828 12.2132 16.4768C12.1946 16.4708 12.1749 16.4692 12.1556 16.4722C12.1363 16.4751 12.118 16.4826 12.1021 16.4939C12.0861 16.5052 12.0731 16.5201 12.064 16.5374C12.0519 16.5603 12.0473 16.5864 12.0506 16.612C12.1815 17.4516 12.5759 18.2278 13.1767 18.8286C13.7775 19.4295 14.5537 19.8238 15.3933 19.9547C15.4191 19.9586 15.4455 19.9543 15.4688 19.9423C15.492 19.9304 15.5108 19.9114 15.5226 19.888C15.5345 19.8644 15.5385 19.8376 15.5342 19.8115C15.5299 19.7854 15.5175 19.7613 15.4986 19.7427V19.7414Z"/>
<path d="M16.5001 12.2544L19.7414 15.4944C19.7599 15.5132 19.7838 15.5256 19.8098 15.53C19.8358 15.5344 19.8625 15.5304 19.8861 15.5188C19.9097 15.5071 19.929 15.4883 19.9414 15.465C19.9537 15.4418 19.9584 15.4152 19.9547 15.3891C19.8244 14.5483 19.4298 13.7707 18.8281 13.169C18.2264 12.5674 17.4489 12.1728 16.6081 12.0424C16.5819 12.0385 16.5551 12.0429 16.5315 12.0551C16.508 12.0673 16.489 12.0866 16.4771 12.1103C16.4652 12.134 16.4612 12.1609 16.4656 12.187C16.4699 12.2131 16.4825 12.2372 16.5014 12.2558L16.5001 12.2544Z"/>
<path d="M30.6881 17.0853C30.895 16.7604 31.0044 16.3829 31.0032 15.9977C31.002 15.6125 30.8903 15.2357 30.6814 14.912C29.0281 12.3547 26.8814 10.1827 24.4774 8.62933C21.8134 6.90933 18.8747 6 15.9801 6C14.4541 6.00232 12.9386 6.25131 11.4921 6.73733C11.4516 6.75059 11.4151 6.77402 11.3863 6.80537C11.3574 6.83672 11.337 6.87494 11.3271 6.9164C11.3172 6.95786 11.3181 7.00116 11.3297 7.04217C11.3413 7.08319 11.3633 7.12054 11.3934 7.15067L14.3467 10.104C14.3774 10.1347 14.4155 10.1569 14.4574 10.1684C14.4993 10.1798 14.5434 10.1802 14.5854 10.1693C15.5862 9.92554 16.6329 9.94351 17.6248 10.2215C18.6166 10.4995 19.5202 11.0282 20.2485 11.7566C20.9768 12.485 21.5053 13.3887 21.7831 14.3806C22.0609 15.3725 22.0787 16.4192 21.8347 17.42C21.8243 17.4619 21.825 17.5059 21.8367 17.5475C21.8484 17.5891 21.8707 17.6269 21.9014 17.6573L26.1481 21.908C26.1925 21.9518 26.2518 21.9775 26.3142 21.98C26.3766 21.9824 26.4376 21.9615 26.4854 21.9213C28.1201 20.5284 29.5367 18.8983 30.6881 17.0853Z"/>
<path d="M16 22.0002C15.0916 22.0002 14.1951 21.794 13.378 21.397C12.5609 21.0001 11.8446 20.4228 11.2832 19.7087C10.7217 18.9945 10.3297 18.1622 10.1368 17.2746C9.94384 16.3869 9.95499 15.467 10.1694 14.5842C10.1796 14.5423 10.1789 14.4984 10.1672 14.4568C10.1556 14.4152 10.1333 14.3774 10.1027 14.3469L5.92537 10.1669C5.88091 10.1231 5.82168 10.0974 5.75929 10.0949C5.69689 10.0925 5.63583 10.1134 5.58804 10.1536C4.06271 11.4536 2.64937 13.0362 1.35871 14.8856C1.13251 15.2101 1.00793 15.5946 1.00081 15.9901C0.993689 16.3857 1.10434 16.7744 1.31871 17.1069C2.96937 19.6896 5.09204 21.8656 7.46004 23.3976C10.1294 25.1242 12.9947 25.9989 15.98 25.9989C17.5216 25.995 19.0532 25.7516 20.52 25.2776C20.5609 25.2642 20.5976 25.2407 20.6268 25.2092C20.6559 25.1777 20.6766 25.1393 20.6867 25.0976C20.6965 25.056 20.6955 25.0126 20.6838 24.9716C20.6722 24.9305 20.6502 24.8931 20.62 24.8629L17.6534 21.8962C17.623 21.8655 17.5851 21.8432 17.5435 21.8315C17.5019 21.8198 17.458 21.8191 17.416 21.8296C16.9525 21.9426 16.4771 21.9998 16 22.0002Z"/>
</symbol><symbol id="icon-pass-show" viewBox="0 0 32 32">
<path d="M16 20C17.0609 20 18.0783 19.5786 18.8284 18.8284C19.5786 18.0783 20 17.0609 20 16C20 14.9391 19.5786 13.9217 18.8284 13.1716C18.0783 12.4214 17.0609 12 16 12C14.9391 12 13.9217 12.4214 13.1716 13.1716C12.4214 13.9217 12 14.9391 12 16C12 17.0609 12.4214 18.0783 13.1716 18.8284C13.9217 19.5786 14.9391 20 16 20Z"/>
<path d="M30.68 14.912C29.0254 12.3547 26.88 10.1827 24.4747 8.62933C21.8134 6.90933 18.876 6 15.98 6C13.3227 6 10.7094 6.76 8.21337 8.25733C5.66671 9.784 3.36004 12.0147 1.35871 14.8867C1.13251 15.2112 1.00793 15.5957 1.00081 15.9912C0.993689 16.3868 1.10434 16.7755 1.31871 17.108C2.96937 19.6907 5.09204 21.8667 7.46004 23.3987C10.1267 25.1253 12.9947 26 15.98 26C18.9 26 21.8427 25.0987 24.492 23.392C26.896 21.8453 29.0387 19.664 30.6854 17.0853C30.8923 16.7604 31.0017 16.3829 31.0005 15.9977C30.9993 15.6125 30.889 15.2357 30.68 14.912ZM16 22C14.4087 22 12.8826 21.3679 11.7574 20.2426C10.6322 19.1174 10 17.5913 10 16C10 14.4087 10.6322 12.8826 11.7574 11.7574C12.8826 10.6321 14.4087 10 16 10C17.5913 10 19.1175 10.6321 20.2427 11.7574C21.3679 12.8826 22 14.4087 22 16C22 17.5913 21.3679 19.1174 20.2427 20.2426C19.1175 21.3679 17.5913 22 16 22Z"/>
</symbol><symbol id="icon-point-done" viewBox="0 0 20 20"><g fill="none">
<circle cx="10" cy="10" r="9.5" fill="white" stroke="#000080"/>
<circle cx="10" cy="10" r="7" fill="#000080"/>
</g></symbol><symbol id="icon-point-empty" viewBox="0 0 20 20"><g fill="none">
<circle cx="10" cy="10" r="9.5" fill="white" stroke="#000080" stroke-dasharray="2 2"/>
</g></symbol><symbol id="icon-pop" viewBox="0 0 336 216"><g fill="none">
<g clip-path="url(#clip0_1_3098)">
<path d="M190.039 118.496C189.198 110.298 192.315 93.3629 210.106 87.9732C215.125 86.4485 219.26 85.5266 222.589 84.7749C232.343 82.5906 234.966 82.002 238.839 71.9104C241.327 65.4286 244.748 61.7693 249.01 61.0317C254.736 60.046 259.012 64.8329 259.479 65.3861L254.199 69.9177C253.668 69.3149 251.76 67.6129 250.163 67.9036C248.558 68.1944 246.791 70.563 245.314 74.4138C240.104 87.9874 234.421 89.2639 224.095 91.5758C220.716 92.3346 216.878 93.1927 212.107 94.6395C195.411 99.7029 196.867 117.056 196.938 117.794L190.025 118.496H190.039Z" fill="#8CC63F"/>
<path d="M257.641 153.174L251.973 149.146C252.206 148.82 257.74 141.09 265.89 139.799C270.075 139.133 274.096 140.225 277.857 143.033C280.72 145.175 283.222 146.09 284.904 145.621C286.671 145.125 287.498 143.132 287.505 143.111L293.994 145.6C293.796 146.132 291.909 150.82 286.904 152.295C282.96 153.458 278.528 152.224 273.708 148.614C271.474 146.948 269.276 146.309 266.979 146.671C261.776 147.501 257.684 153.11 257.641 153.16V153.174Z" fill="#353A85"/>
<path d="M201.285 46.1674L207.519 43.0967C207.696 43.4584 211.817 52.0323 209.053 59.8332C207.633 63.8329 204.763 66.8611 200.501 68.8326C197.263 70.3289 195.263 72.0948 194.867 73.8039C194.457 75.591 195.807 77.2788 195.821 77.3001L190.541 81.8246C190.174 81.3991 186.965 77.4916 188.067 72.3784C188.937 68.3503 192.139 65.0314 197.595 62.5068C200.119 61.3366 201.73 59.6984 202.508 57.5071C204.275 52.5216 201.313 46.2383 201.285 46.1745V46.1674Z" fill="#5D66D3"/>
<path d="M220.893 6.38256L223.692 0C224.059 0.16311 232.711 4.05647 235.609 11.8006C237.093 15.7791 236.839 19.949 234.845 24.2112C233.333 27.4521 232.937 30.0973 233.729 31.6575C234.563 33.2957 236.683 33.707 236.704 33.7141L235.573 40.5931C235.015 40.508 230.06 39.5931 227.615 34.9622C225.692 31.3171 226.003 26.7146 228.562 21.2539C229.742 18.7293 229.926 16.4315 229.106 14.2544C227.254 9.30435 220.956 6.41093 220.893 6.38256Z" fill="#8CC63F"/>
<path d="M132.573 61.1944L135.768 67.3855C135.415 67.5698 126.961 71.8887 119.129 69.286C115.107 67.9528 112.033 65.1303 109.976 60.8965C108.414 57.6769 106.611 55.7125 104.901 55.3508C103.105 54.9749 101.458 56.372 101.437 56.3862L96.8145 51.1879C97.2315 50.805 101.055 47.5073 106.18 48.5073C110.216 49.2945 113.588 52.429 116.224 57.8471C117.44 60.3576 119.108 61.939 121.313 62.6695C126.318 64.3289 132.517 61.2298 132.573 61.2015V61.1944Z" fill="#8CC63F"/>
<path d="M222.803 109.696L209.092 122.091L213.743 127.27L227.454 114.875L222.803 109.696Z" fill="#5D66D3"/>
<path d="M265.373 119.965L246.943 120.947L247.312 127.908L265.741 126.926L265.373 119.965Z" fill="#8CC63F"/>
<path d="M202.287 187.624L197.502 192.678L210.882 205.431L215.668 200.377L202.287 187.624Z" fill="#8CC63F"/>
<path d="M170.121 46.0685L163.203 46.7148L164.914 65.1516L171.833 64.5052L170.121 46.0685Z" fill="#353A85"/>
<path d="M238.705 184.819L238.281 191.777L256.702 192.908L257.126 185.95L238.705 184.819Z" fill="#5D66D3"/>
<path d="M274.647 87.1715L268.922 83.2214C269.275 82.7108 277.736 70.7329 295.4 76.5978C301.973 78.782 302.581 77.5339 303.924 74.8036C305.062 72.4846 306.787 68.9812 311.6 68.5132L312.265 75.4489C311.459 75.5269 311.205 75.7326 310.151 77.8814C307.911 82.4343 304.574 86.9801 293.216 83.2073C280.443 78.9664 274.697 87.0793 274.64 87.1644L274.647 87.1715Z" fill="#5D66D3"/>
<path d="M334.141 159.699L327.666 157.174C329.038 153.607 329.49 149.203 328.585 148.295C328.317 148.026 326.783 147.65 322.952 149.125C320.259 150.167 316.35 151.288 313.494 149.061C310.243 146.522 310.794 141.863 311.43 136.466C312.236 129.658 313.24 121.183 307.437 115.836C304.334 112.978 301.181 111.723 297.803 112C290.494 112.602 284.514 120.162 284.458 120.24L278.973 115.964C279.291 115.553 286.826 105.936 297.195 105.057C302.553 104.603 307.585 106.504 312.144 110.702C320.563 118.467 319.22 129.793 318.336 137.289C318.089 139.353 317.771 142.069 317.919 143.352C318.379 143.288 319.177 143.111 320.464 142.615C326.359 140.338 330.748 140.594 333.512 143.366C338.276 148.16 334.876 157.805 334.148 159.692L334.141 159.699Z" fill="#353A85"/>
<path d="M120.389 32.4304C120.403 32.0829 120.848 23.8919 127.294 19.8071C132.094 16.7648 138.59 16.935 146.598 20.3177C149.92 21.7219 152.422 22.1261 153.822 21.4949C155.476 20.7432 156.402 17.9774 157.384 15.0486C159.081 9.99215 161.646 2.34726 171.139 3.00679C176.575 3.38265 183.777 6.31154 187.205 18.1122C189.072 24.5373 188.923 30.7426 188.916 30.9979L181.975 30.8064C181.975 30.6078 182.35 10.7651 170.666 9.95669C166.863 9.6943 165.859 11.6374 163.972 17.2683C162.622 21.2893 161.095 25.8493 156.677 27.842C153.377 29.3384 149.199 28.9767 143.905 26.7357C138.222 24.3316 133.769 23.97 131.041 25.672C127.662 27.7853 127.337 32.7141 127.33 32.7637L120.389 32.4233V32.4304Z" fill="#353A85"/>
<path d="M189.792 110.532L147.467 58.4785L61.1348 215.844L232.117 162.585L189.792 110.532Z" fill="#3B3387"/>
<path d="M132.693 85.4131L177.103 94.9231L201.1 124.439L119.242 109.929L132.693 85.4131Z" fill="#8CABEF"/>
<path d="M111.651 123.765L216.304 143.132L232.109 162.684L102.434 140.565L111.651 123.765Z" fill="#8CABEF"/>
<path d="M69.8288 199.994L96.0593 204.852L61.1348 215.844L69.8288 199.994Z" fill="#8CABEF"/>
<path d="M94.1153 155.728L194.245 174.379L133.648 193.257L78.1621 184.662L94.1153 155.728Z" fill="#8CABEF"/>
<path d="M76.4888 69.6638L73.2012 75.8052L89.4599 84.5666L92.7475 78.4251L76.4888 69.6638Z" fill="#5D66D3"/>
<path d="M116.727 114.51L206.098 130.587L201.165 124.701L119.222 109.908L116.727 114.51Z" fill="#5D66D3"/>
<path d="M102.434 140.565L232.109 162.685L219.86 166.401L99.0625 146.7L102.434 140.565Z" fill="#5D66D3"/>
<path d="M78.1616 184.662L133.648 193.257C133.648 193.257 121.582 197.306 121.667 196.987C121.752 196.668 75.3555 189.917 75.3555 189.917L78.1616 184.662Z" fill="#5D66D3"/>
<g opacity="0.1">
<path d="M231.87 163.145C231.87 163.145 151.326 183.889 100.915 143.359L61 216L231.87 163.145Z" fill="white"/>
</g>
</g>

</g></symbol><symbol id="icon-question-circle" viewBox="0 0 24 24"><g fill="none">
<path d="M12 3C7.031 3 3 7.031 3 12C3 16.969 7.031 21 12 21C16.969 21 21 16.969 21 12C21 7.031 16.969 3 12 3ZM11.719 17.25C11.5933 17.2541 11.4681 17.2329 11.3507 17.1876C11.2334 17.1424 11.1264 17.074 11.036 16.9865C10.9457 16.899 10.8738 16.7943 10.8247 16.6785C10.7757 16.5627 10.7504 16.4383 10.7504 16.3125C10.7504 16.1867 10.7757 16.0623 10.8247 15.9465C10.8738 15.8307 10.9457 15.726 11.036 15.6385C11.1264 15.551 11.2334 15.4826 11.3507 15.4374C11.4681 15.3921 11.5933 15.3709 11.719 15.375C11.9623 15.3829 12.1931 15.4852 12.3624 15.6602C12.5317 15.8351 12.6264 16.069 12.6264 16.3125C12.6264 16.556 12.5317 16.7899 12.3624 16.9648C12.1931 17.1398 11.9623 17.2421 11.719 17.25ZM13.286 12.469C12.526 12.979 12.422 13.446 12.422 13.875C12.422 14.0491 12.3528 14.2161 12.2297 14.3392C12.1066 14.4623 11.9396 14.5315 11.7655 14.5315C11.5914 14.5315 11.4244 14.4623 11.3013 14.3392C11.1782 14.2161 11.109 14.0491 11.109 13.875C11.109 12.848 11.582 12.031 12.554 11.378C13.458 10.772 13.969 10.388 13.969 9.542C13.969 8.968 13.641 8.532 12.961 8.208C12.801 8.132 12.446 8.058 12.008 8.063C11.458 8.07 11.032 8.202 10.703 8.466C10.083 8.965 10.031 9.508 10.031 9.516C10.0268 9.60215 10.0057 9.68662 9.96882 9.7646C9.93197 9.84259 9.88012 9.91255 9.81623 9.97049C9.75235 10.0284 9.67767 10.0732 9.59648 10.1023C9.51528 10.1314 9.42915 10.1442 9.343 10.14C9.25685 10.1358 9.17238 10.1147 9.0944 10.0778C9.01641 10.041 8.94645 9.98912 8.88851 9.92523C8.83057 9.86135 8.78577 9.78667 8.75669 9.70548C8.7276 9.62428 8.7148 9.53815 8.719 9.452C8.724 9.338 8.803 8.312 9.879 7.446C10.439 6.997 11.149 6.764 11.989 6.753C12.584 6.746 13.144 6.847 13.523 7.026C14.658 7.563 15.281 8.458 15.281 9.542C15.281 11.128 14.221 11.84 13.286 12.469Z" fill="white"/>
</g></symbol><symbol id="icon-radio-off" viewBox="0 0 24 24"><g fill="none">
<path d="M19.5 12C19.5 16.1421 16.1421 19.5 12 19.5C7.85786 19.5 4.5 16.1421 4.5 12C4.5 7.85786 7.85786 4.5 12 4.5C16.1421 4.5 19.5 7.85786 19.5 12Z" fill="white" stroke="#4AA3EF"/>
</g></symbol><symbol id="icon-radio-on" viewBox="0 0 20 20"><g fill="none">
<path d="M17.5 10C17.5 14.1421 14.1421 17.5 10 17.5C5.85786 17.5 2.5 14.1421 2.5 10C2.5 5.85786 5.85786 2.5 10 2.5C14.1421 2.5 17.5 5.85786 17.5 10Z" fill="white" stroke="#4AA3EF"/>
<path fill-rule="evenodd" clip-rule="evenodd" d="M10 14C12.2091 14 14 12.2091 14 10C14 7.79086 12.2091 6 10 6C7.79086 6 6 7.79086 6 10C6 12.2091 7.79086 14 10 14Z" fill="#4AA3EF"/>
</g></symbol></svg>