<svg viewBox="0 0 24 24" xmlns="http://www.w3.org/2000/svg">
<path fill-rule="evenodd" clip-rule="evenodd" d="M6.00039 2.3999C4.01217 2.3999 2.40039 4.01168 2.40039 5.9999V17.9999C2.40039 19.9881 4.01217 21.5999 6.00039 21.5999H18.0004C19.9886 21.5999 21.6004 19.9881 21.6004 17.9999V5.9999C21.6004 4.01168 19.9886 2.3999 18.0004 2.3999H6.00039ZM17.5634 9.58423C17.9855 9.16281 17.9861 8.47899 17.5647 8.05688C17.1433 7.63476 16.4594 7.63419 16.0373 8.05561L10.4298 13.6538L7.9634 11.1915C7.54129 10.7701 6.85747 10.7707 6.43605 11.1928C6.01464 11.6149 6.0152 12.2987 6.43732 12.7202L9.66675 15.9442C10.0884 16.3652 10.7712 16.3652 11.1928 15.9442L17.5634 9.58423Z" fill="#486EF5"/>
</svg>
