<svg viewBox="0 0 28 28" fill="none" xmlns="http://www.w3.org/2000/svg">
<path d="M22.62 6.93904C22.5823 6.66828 22.3875 6.44556 22.1241 6.37236L13.6839 4.02512C13.5636 3.99163 13.4365 3.99163 13.316 4.02512L4.87577 6.37236C4.61243 6.44556 4.41762 6.66819 4.37992 6.93904C4.33096 7.29105 3.21417 15.6083 6.07868 19.7459C8.9398 23.8786 13.1606 24.9376 13.3388 24.9807C13.3918 24.9935 13.4458 24.9999 13.5 24.9999C13.5541 24.9999 13.6081 24.9935 13.6611 24.9807C13.8394 24.9376 18.0602 23.8786 20.9212 19.7459C23.7857 15.6084 22.669 7.29114 22.62 6.93904ZM18.9428 11.7948L13.1857 17.5519C13.0518 17.6858 12.8761 17.7529 12.7005 17.7529C12.5249 17.7529 12.3492 17.6859 12.2153 17.5519L8.65568 13.9923C8.52694 13.8636 8.45465 13.6891 8.45465 13.5071C8.45465 13.3251 8.52703 13.1505 8.65568 13.0218L9.36245 12.315C9.63047 12.0471 10.065 12.047 10.3329 12.315L12.7005 14.6826L17.2656 10.1174C17.3942 9.98866 17.5688 9.91637 17.7508 9.91637C17.9328 9.91637 18.1074 9.98866 18.2361 10.1174L18.9428 10.8242C19.2109 11.0922 19.2109 11.5267 18.9428 11.7948Z" fill="#4AA3EF"/>
</svg>
