<svg viewBox="0 0 28 28" fill="none" xmlns="http://www.w3.org/2000/svg">
<path d="M13.5 14.5C14.7364 14.5 15.807 14.0196 16.6818 13.0717C17.5566 12.124 18 10.9645 18 9.62485C18 8.28568 17.5566 7.12596 16.6817 6.17796C15.8068 5.23041 14.7363 4.75 13.5 4.75C12.2635 4.75 11.1931 5.23041 10.3184 6.17811C9.44359 7.12581 9 8.28553 9 9.62485C9 10.9645 9.44359 12.1242 10.3185 13.0719C11.1934 14.0194 12.2639 14.5 13.5 14.5Z" fill="#4AA3EF"/>
<path d="M21.7101 19.8923C21.6834 19.5248 21.6294 19.1239 21.5498 18.7006C21.4696 18.2741 21.3662 17.8709 21.2425 17.5024C21.1147 17.1215 20.9409 16.7454 20.726 16.385C20.503 16.0108 20.241 15.6851 19.9471 15.417C19.6398 15.1366 19.2635 14.9111 18.8283 14.7466C18.3946 14.583 17.9141 14.5001 17.4 14.5001C17.1981 14.5001 17.0029 14.5791 16.6258 14.8132C16.3937 14.9576 16.1223 15.1245 15.8193 15.3091C15.5602 15.4665 15.2093 15.614 14.7758 15.7475C14.3528 15.878 13.9234 15.9442 13.4996 15.9442C13.0757 15.9442 12.6465 15.878 12.2231 15.7475C11.79 15.6141 11.4391 15.4667 11.1803 15.3092C10.8802 15.1264 10.6086 14.9594 10.3731 14.8131C9.99644 14.579 9.80104 14.5 9.59916 14.5C9.08494 14.5 8.60451 14.583 8.17102 14.7468C7.73616 14.911 7.3597 15.1364 7.05204 15.4172C6.75826 15.6854 6.49617 16.011 6.27346 16.385C6.05875 16.7454 5.88493 17.1214 5.75698 17.5026C5.6334 17.8711 5.53005 18.2741 5.44977 18.7006C5.37026 19.1233 5.31624 19.5244 5.28953 19.8927C5.26328 20.2536 5.25 20.6281 5.25 21.0064C5.25 21.9909 5.57818 22.7879 6.22533 23.3757C6.86449 23.9557 7.71021 24.25 8.73865 24.25H18.2614C19.2899 24.25 20.1353 23.9559 20.7746 23.3757C21.4219 22.7884 21.7501 21.9912 21.7501 21.0063C21.7499 20.6263 21.7365 20.2514 21.7101 19.8923Z" fill="#4AA3EF"/>
</svg>
