<svg viewBox="0 0 28 28" fill="none" xmlns="http://www.w3.org/2000/svg">
<g clip-path="url(#clip0_143_2086)">
<path d="M14.3319 23.0747C16.0737 21.3341 16.7087 18.7721 15.9812 16.4195L16.7625 15.6384C16.8085 15.5911 16.8321 15.5267 16.8277 15.461L16.6504 13.5368C16.6448 13.471 16.6686 13.4061 16.7153 13.3595C16.7619 13.3128 16.8269 13.289 16.8926 13.2945L18.6541 13.4573C18.7199 13.4622 18.7843 13.4383 18.8309 13.3917C18.8775 13.3452 18.9014 13.2807 18.8965 13.2149L18.7337 11.4535C18.7282 11.3877 18.7519 11.3227 18.7987 11.276C18.8454 11.2293 18.9102 11.2057 18.9761 11.2112L20.7376 11.374C20.8032 11.3789 20.8678 11.355 20.9144 11.3084C20.9608 11.2618 20.9849 11.1972 20.9798 11.1316L20.8208 9.36297C20.8151 9.29801 20.8385 9.23403 20.8846 9.18795C20.9305 9.14204 20.9945 9.1186 21.0594 9.12413L22.9945 9.29785C23.0593 9.30339 23.1231 9.27945 23.1682 9.23273L23.8987 8.48038C23.9637 8.412 24 8.32147 24 8.22721L23.9928 4.76943C23.9954 4.57553 23.9197 4.38862 23.7829 4.25121C23.6462 4.11379 23.4598 4.03711 23.2657 4.03874L19.7176 4.03516C19.6184 4.05388 19.5282 4.10484 19.4608 4.17989L11.6011 12.0394C8.49323 11.0775 5.14617 12.5099 3.69634 15.4223C2.24635 18.3347 3.1208 21.8686 5.76175 23.7688C8.40254 25.669 12.0313 25.3751 14.3319 23.0747ZM19.4028 6.30653C19.5479 6.1727 19.7715 6.1727 19.9165 6.30653C19.9841 6.37051 20.0223 6.45957 20.0223 6.55254C20.0223 6.64566 19.9841 6.73456 19.9165 6.79854C19.7715 6.93237 19.5479 6.93237 19.4028 6.79854C19.3353 6.73456 19.297 6.64566 19.297 6.55254C19.297 6.45957 19.3353 6.37051 19.4028 6.30653ZM12.8273 12.8063L18.4589 7.17464C18.5499 7.08362 18.6827 7.04797 18.8071 7.08134C18.9317 7.11472 19.0289 7.21192 19.0623 7.33631C19.0955 7.46069 19.06 7.59355 18.9688 7.68472L13.3373 13.3162C13.2694 13.3846 13.1768 13.4223 13.0804 13.4212C12.9852 13.4223 12.8937 13.3844 12.8273 13.3162C12.7595 13.2486 12.7214 13.157 12.7214 13.0612C12.7214 12.9655 12.7595 12.8738 12.8273 12.8063ZM6.51215 19.0056C7.01833 18.4994 7.77947 18.348 8.4408 18.622C9.10214 18.8959 9.53343 19.5412 9.53343 20.2571C9.53343 20.973 9.10214 21.6184 8.4408 21.8922C7.77947 22.1662 7.01833 22.0148 6.51215 21.5087C5.82134 20.8174 5.82134 19.6969 6.51215 19.0056Z" fill="#4AA3EF"/>
</g>
<defs>
<clipPath id="clip0_143_2086">
<rect width="21" height="21" fill="white" transform="translate(3 4)"/>
</clipPath>
</defs>
</svg>
