<svg viewBox="0 0 28 28" fill="none" xmlns="http://www.w3.org/2000/svg">
<path d="M23.6873 10.4193C23.2594 10.3567 22.851 10.1975 22.4926 9.95366C22.1342 9.70983 21.8349 9.38763 21.6171 9.01105C21.3994 8.63446 21.2686 8.2132 21.2347 7.77863C21.2008 7.34406 21.2646 6.90738 21.4213 6.5011C21.521 6.2355 21.5356 5.94512 21.4633 5.67068C21.391 5.39625 21.2353 5.15151 21.018 4.97078C20.0588 4.1588 18.967 3.52092 17.7913 3.0856C17.5236 2.98534 17.2313 2.97281 16.9561 3.04981C16.6809 3.1268 16.4369 3.28938 16.2587 3.51439C15.9905 3.86012 15.6477 4.13974 15.2564 4.33205C14.865 4.52435 14.4354 4.6243 14 4.6243C13.5646 4.6243 13.135 4.52435 12.7437 4.33205C12.3523 4.13974 12.0095 3.86012 11.7413 3.51439C11.5632 3.28938 11.3191 3.1268 11.0439 3.04981C10.7687 2.97281 10.4764 2.98534 10.2087 3.0856C9.1231 3.48751 8.10811 4.06151 7.20201 4.78596C6.97361 4.96824 6.8091 5.21945 6.73256 5.50281C6.65602 5.78616 6.67149 6.08678 6.77668 6.36064C6.9459 6.77766 7.01582 7.22886 6.98082 7.67804C6.94582 8.12723 6.80689 8.56189 6.57516 8.94717C6.34343 9.33244 6.02536 9.65761 5.64646 9.89657C5.26756 10.1355 4.83838 10.2817 4.39335 10.3232C4.10442 10.3544 3.83305 10.4782 3.61918 10.6765C3.40531 10.8748 3.26025 11.1371 3.20535 11.4247C3.0688 12.1061 3.00002 12.7996 3.00002 13.4947C2.99901 14.0767 3.04561 14.6578 3.13935 15.2321C3.186 15.5289 3.32836 15.8021 3.54443 16.0092C3.76049 16.2163 4.03822 16.3459 4.33468 16.378C4.78949 16.421 5.22746 16.5732 5.61193 16.8219C5.9964 17.0706 6.31619 17.4085 6.54453 17.8074C6.77287 18.2062 6.90311 18.6544 6.92437 19.1144C6.94562 19.5744 6.85726 20.0329 6.66668 20.4514C6.54196 20.7237 6.51102 21.0301 6.57878 21.3221C6.64654 21.6141 6.80911 21.8749 7.04068 22.0631C7.9941 22.8603 9.07536 23.4878 10.238 23.9187C10.3867 23.9706 10.5427 23.9981 10.7 24C10.9157 23.9995 11.1282 23.9469 11.3196 23.8466C11.511 23.7463 11.6757 23.6011 11.8 23.4234C12.0614 23.0395 12.4117 22.7257 12.8207 22.5092C13.2296 22.2928 13.6848 22.1802 14.1467 22.1814C14.5942 22.1819 15.0354 22.2878 15.4352 22.4906C15.8349 22.6934 16.1822 22.9875 16.4493 23.3494C16.627 23.5902 16.8787 23.765 17.1652 23.8466C17.4517 23.9282 17.7569 23.9119 18.0333 23.8004C19.0964 23.3691 20.0862 22.7729 20.9667 22.0335C21.1879 21.8491 21.3453 21.5988 21.4165 21.3185C21.4877 21.0382 21.4688 20.7424 21.3627 20.4736C21.1902 20.062 21.115 19.6155 21.143 19.1696C21.171 18.7236 21.3014 18.2903 21.524 17.9038C21.7466 17.5174 22.0553 17.1884 22.4256 16.9429C22.796 16.6973 23.2179 16.5419 23.658 16.4889C23.9434 16.4491 24.2088 16.3187 24.4158 16.1167C24.6228 15.9146 24.7607 15.6514 24.8093 15.3651C24.9271 14.7485 24.9909 14.1226 25 13.4947C25.0001 12.8325 24.9388 12.1716 24.8167 11.5209C24.7672 11.2409 24.6314 10.9838 24.4286 10.786C24.2259 10.5883 23.9665 10.46 23.6873 10.4193ZM17.6667 13.4947C17.6667 14.2258 17.4516 14.9405 17.0487 15.5484C16.6458 16.1562 16.0732 16.63 15.4032 16.9098C14.7332 17.1896 13.9959 17.2628 13.2847 17.1202C12.5734 16.9775 11.9201 16.6255 11.4073 16.1085C10.8945 15.5916 10.5453 14.9329 10.4038 14.2159C10.2623 13.4988 10.3349 12.7556 10.6125 12.0802C10.89 11.4048 11.3599 10.8274 11.9629 10.4213C12.5659 10.0151 13.2748 9.79832 14 9.79832C14.9725 9.79832 15.9051 10.1878 16.5927 10.881C17.2804 11.5742 17.6667 12.5144 17.6667 13.4947Z" fill="#4AA3EF"/>
</svg>
