<svg viewBox="0 0 24 24" xmlns="http://www.w3.org/2000/svg">
<path fill-rule="evenodd" clip-rule="evenodd" d="M18.6004 3.3999H5.40039C4.29582 3.3999 3.40039 4.29533 3.40039 5.3999V18.5999C3.40039 19.7045 4.29582 20.5999 5.40039 20.5999H18.6004C19.705 20.5999 20.6004 19.7045 20.6004 18.5999V5.3999C20.6004 4.29533 19.705 3.3999 18.6004 3.3999ZM5.40039 2.3999C3.74354 2.3999 2.40039 3.74305 2.40039 5.3999V18.5999C2.40039 20.2568 3.74353 21.5999 5.40039 21.5999H18.6004C20.2572 21.5999 21.6004 20.2568 21.6004 18.5999V5.3999C21.6004 3.74305 20.2572 2.3999 18.6004 2.3999H5.40039Z" fill="#486EF5"/>
</svg>
