<svg viewBox="0 0 16 16" fill="none" xmlns="http://www.w3.org/2000/svg">
<path d="M9.99479 7.99928L15.5821 2.41344C15.8375 2.14696 15.9784 1.7911 15.9748 1.42201C15.9711 1.05293 15.823 0.699954 15.5624 0.438632C15.3017 0.17731 14.9491 0.028405 14.58 0.0237883C14.2109 0.0191715 13.8547 0.159209 13.5875 0.413929L8.00022 5.99977L2.41416 0.413929C2.28279 0.282639 2.12683 0.17851 1.95521 0.107488C1.78359 0.0364663 1.59966 -5.81713e-05 1.41392 6.9542e-08C1.22819 5.83104e-05 1.04428 0.0366985 0.872703 0.107828C0.701127 0.178958 0.54524 0.283184 0.413945 0.414556C0.148783 0.679875 -0.000117558 1.03966 6.96388e-08 1.41476C0.000117697 1.78985 0.149244 2.14954 0.414573 2.4147L6.00063 8.00054L0.414573 13.5864C0.283278 13.7177 0.179129 13.8735 0.108072 14.0451C0.0370159 14.2166 0.000443913 14.4005 0.00044391 14.5861C0.000443907 14.7718 0.0370159 14.9557 0.108072 15.1272C0.179129 15.2987 0.283278 15.4546 0.414573 15.5859C0.545868 15.7172 0.701737 15.8213 0.873282 15.8924C1.04483 15.9634 1.22869 16 1.41437 16C1.60005 16 1.78391 15.9634 1.95545 15.8924C2.127 15.8213 2.28287 15.7172 2.41416 15.5859L8.00022 9.99879L13.5863 15.5846C13.7176 15.7159 13.8734 15.8201 14.045 15.8911C14.2165 15.9622 14.4004 15.9987 14.5861 15.9987C14.7718 15.9987 14.9556 15.9622 15.1272 15.8911C15.2987 15.8201 15.4546 15.7159 15.5859 15.5846C15.7172 15.4533 15.8213 15.2975 15.8924 15.1259C15.9634 14.9544 16 14.7705 16 14.5849C16 14.3992 15.9634 14.2154 15.8924 14.0438C15.8213 13.8723 15.7172 13.7164 15.5859 13.5851L9.99479 7.99928Z" fill="#000080"/>
</svg>
