<svg viewBox="0 0 28 28" fill="none" xmlns="http://www.w3.org/2000/svg">
<path d="M10.49 22.375C10.7999 22.8973 11.2404 23.3299 11.7681 23.6304C12.2958 23.931 12.8927 24.089 13.5 24.089C14.1073 24.089 14.7041 23.931 15.2319 23.6304C15.7596 23.3299 16.2001 22.8973 16.51 22.375H10.49Z" fill="#4AA3EF"/>
<path d="M20.5 13.31C19.9394 13.5158 19.3472 13.6224 18.75 13.625C17.7497 13.6242 16.7705 13.3376 15.9276 12.799C15.0847 12.2604 14.4132 11.4922 13.9922 10.5849C13.5712 9.67753 13.4181 8.66879 13.551 7.67738C13.6839 6.68598 14.0973 5.75318 14.7425 4.98879C14.3323 4.91543 13.9167 4.87737 13.5 4.87504C11.8431 4.86956 10.2438 5.48282 9.01541 6.59471C7.78698 7.70661 7.01789 9.23704 6.85874 10.8863L6.75374 11.875C6.60301 13.396 6.08012 14.8565 5.23124 16.1275C4.93892 16.5627 4.7706 17.0693 4.74435 17.5929C4.71809 18.1166 4.83489 18.6374 5.08221 19.0997C5.32954 19.562 5.69805 19.9482 6.14822 20.2169C6.59839 20.4856 7.11322 20.6267 7.63749 20.625H19.3625C20.1283 20.625 20.8628 20.3208 21.4043 19.7793C21.9458 19.2378 22.25 18.5034 22.25 17.7375C22.2533 17.1664 22.0823 16.6078 21.76 16.1363C21.1884 15.2694 20.7628 14.3146 20.5 13.31Z" fill="#4AA3EF"/>
<path d="M18.75 11.875C20.683 11.875 22.25 10.308 22.25 8.375C22.25 6.442 20.683 4.875 18.75 4.875C16.817 4.875 15.25 6.442 15.25 8.375C15.25 10.308 16.817 11.875 18.75 11.875Z" fill="#4AA3EF"/>
</svg>
