<svg viewBox="0 0 32 32" xmlns="http://www.w3.org/2000/svg">
<path d="M27 28.0029C26.8686 28.0031 26.7386 27.9772 26.6173 27.9269C26.496 27.8765 26.3859 27.8027 26.2933 27.7096L4.29329 5.70955C4.11665 5.51999 4.02049 5.26926 4.02506 5.01019C4.02963 4.75112 4.13458 4.50394 4.3178 4.32073C4.50101 4.13751 4.74819 4.03256 5.00726 4.02799C5.26633 4.02342 5.51706 4.11958 5.70662 4.29622L27.7066 26.2962C27.8463 26.4361 27.9414 26.6142 27.9799 26.808C28.0184 27.0019 27.9986 27.2028 27.923 27.3855C27.8474 27.5681 27.7194 27.7242 27.5551 27.8341C27.3908 27.944 27.1976 28.0027 27 28.0029Z" />
<path d="M15.4986 19.7414L12.2626 16.5067C12.2487 16.493 12.2318 16.4828 12.2132 16.4768C12.1946 16.4708 12.1749 16.4692 12.1556 16.4722C12.1363 16.4751 12.118 16.4826 12.1021 16.4939C12.0861 16.5052 12.0731 16.5201 12.064 16.5374C12.0519 16.5603 12.0473 16.5864 12.0506 16.612C12.1815 17.4516 12.5759 18.2278 13.1767 18.8286C13.7775 19.4295 14.5537 19.8238 15.3933 19.9547C15.4191 19.9586 15.4455 19.9543 15.4688 19.9423C15.492 19.9304 15.5108 19.9114 15.5226 19.888C15.5345 19.8644 15.5385 19.8376 15.5342 19.8115C15.5299 19.7854 15.5175 19.7613 15.4986 19.7427V19.7414Z" />
<path d="M16.5001 12.2544L19.7414 15.4944C19.7599 15.5132 19.7838 15.5256 19.8098 15.53C19.8358 15.5344 19.8625 15.5304 19.8861 15.5188C19.9097 15.5071 19.929 15.4883 19.9414 15.465C19.9537 15.4418 19.9584 15.4152 19.9547 15.3891C19.8244 14.5483 19.4298 13.7707 18.8281 13.169C18.2264 12.5674 17.4489 12.1728 16.6081 12.0424C16.5819 12.0385 16.5551 12.0429 16.5315 12.0551C16.508 12.0673 16.489 12.0866 16.4771 12.1103C16.4652 12.134 16.4612 12.1609 16.4656 12.187C16.4699 12.2131 16.4825 12.2372 16.5014 12.2558L16.5001 12.2544Z" />
<path d="M30.6881 17.0853C30.895 16.7604 31.0044 16.3829 31.0032 15.9977C31.002 15.6125 30.8903 15.2357 30.6814 14.912C29.0281 12.3547 26.8814 10.1827 24.4774 8.62933C21.8134 6.90933 18.8747 6 15.9801 6C14.4541 6.00232 12.9386 6.25131 11.4921 6.73733C11.4516 6.75059 11.4151 6.77402 11.3863 6.80537C11.3574 6.83672 11.337 6.87494 11.3271 6.9164C11.3172 6.95786 11.3181 7.00116 11.3297 7.04217C11.3413 7.08319 11.3633 7.12054 11.3934 7.15067L14.3467 10.104C14.3774 10.1347 14.4155 10.1569 14.4574 10.1684C14.4993 10.1798 14.5434 10.1802 14.5854 10.1693C15.5862 9.92554 16.6329 9.94351 17.6248 10.2215C18.6166 10.4995 19.5202 11.0282 20.2485 11.7566C20.9768 12.485 21.5053 13.3887 21.7831 14.3806C22.0609 15.3725 22.0787 16.4192 21.8347 17.42C21.8243 17.4619 21.825 17.5059 21.8367 17.5475C21.8484 17.5891 21.8707 17.6269 21.9014 17.6573L26.1481 21.908C26.1925 21.9518 26.2518 21.9775 26.3142 21.98C26.3766 21.9824 26.4376 21.9615 26.4854 21.9213C28.1201 20.5284 29.5367 18.8983 30.6881 17.0853Z" />
<path d="M16 22.0002C15.0916 22.0002 14.1951 21.794 13.378 21.397C12.5609 21.0001 11.8446 20.4228 11.2832 19.7087C10.7217 18.9945 10.3297 18.1622 10.1368 17.2746C9.94384 16.3869 9.95499 15.467 10.1694 14.5842C10.1796 14.5423 10.1789 14.4984 10.1672 14.4568C10.1556 14.4152 10.1333 14.3774 10.1027 14.3469L5.92537 10.1669C5.88091 10.1231 5.82168 10.0974 5.75929 10.0949C5.69689 10.0925 5.63583 10.1134 5.58804 10.1536C4.06271 11.4536 2.64937 13.0362 1.35871 14.8856C1.13251 15.2101 1.00793 15.5946 1.00081 15.9901C0.993689 16.3857 1.10434 16.7744 1.31871 17.1069C2.96937 19.6896 5.09204 21.8656 7.46004 23.3976C10.1294 25.1242 12.9947 25.9989 15.98 25.9989C17.5216 25.995 19.0532 25.7516 20.52 25.2776C20.5609 25.2642 20.5976 25.2407 20.6268 25.2092C20.6559 25.1777 20.6766 25.1393 20.6867 25.0976C20.6965 25.056 20.6955 25.0126 20.6838 24.9716C20.6722 24.9305 20.6502 24.8931 20.62 24.8629L17.6534 21.8962C17.623 21.8655 17.5851 21.8432 17.5435 21.8315C17.5019 21.8198 17.458 21.8191 17.416 21.8296C16.9525 21.9426 16.4771 21.9998 16 22.0002Z" />
</svg>
