<svg viewBox="0 0 20 20" xmlns="http://www.w3.org/2000/svg">
<path d="M17.8392 16.4608L14.1642 12.7858C15.0491 11.6076 15.5267 10.1735 15.525 8.7C15.525 4.93667 12.4633 1.875 8.7 1.875C4.93667 1.875 1.875 4.93667 1.875 8.7C1.875 12.4633 4.93667 15.525 8.7 15.525C10.1732 15.5266 11.607 15.0489 12.785 14.1642L16.46 17.8392C16.6453 18.0092 16.8891 18.1012 17.1406 18.0958C17.392 18.0905 17.6317 17.9882 17.8096 17.8104C17.9875 17.6326 18.0899 17.393 18.0954 17.1416C18.1009 16.8901 18.0091 16.6462 17.8392 16.4608ZM3.825 8.7C3.825 7.73582 4.11091 6.79328 4.64659 5.9916C5.18226 5.18991 5.94363 4.56506 6.83442 4.19609C7.72521 3.82711 8.70541 3.73057 9.65107 3.91867C10.5967 4.10677 11.4654 4.57107 12.1471 5.25285C12.8289 5.93464 13.2932 6.80328 13.4813 7.74893C13.6694 8.69459 13.5729 9.67479 13.2039 10.5656C12.8349 11.4564 12.2101 12.2177 11.4084 12.7534C10.6067 13.2891 9.66418 13.575 8.7 13.575C7.40754 13.5735 6.16846 13.0593 5.25456 12.1454C4.34065 11.2315 3.82654 9.99246 3.825 8.7Z" fill="#D3D9DE"/>
</svg>
