<svg viewBox="0 0 28 28" fill="none" xmlns="http://www.w3.org/2000/svg">
<g clip-path="url(#clip0_143_1920)">
<path d="M24 22.3647V23.7647C24 24.4457 23.4458 25 22.7647 25H4.23529C3.55424 25 3 24.4457 3 23.7647V22.3647C3 21.6836 3.55424 21.1294 4.23529 21.1294H22.7647C23.4458 21.1294 24 21.6836 24 22.3647Z" fill="#4AA3EF"/>
<path d="M4.97644 12.0706V19.8941H22.0235C22.0235 19.541 22.0235 12.4563 22.0235 12.0706H18.1529V18.4941H15.4353V12.0706H11.5647V18.4941H8.84703V12.0706H4.97644Z" fill="#4AA3EF"/>
<path d="M3.61785 10.8353H23.3826C24.0141 10.8353 24.2378 9.99237 23.6871 9.68029L13.8047 4.08029C13.6158 3.97324 13.3846 3.97324 13.1957 4.08029L3.31335 9.68029C2.76389 9.99163 2.98476 10.8353 3.61785 10.8353Z" fill="#4AA3EF"/>
</g>
<defs>
<clipPath id="clip0_143_1920">
<rect width="21" height="21" fill="white" transform="translate(3 4)"/>
</clipPath>
</defs>
</svg>
