<svg viewBox="0 0 41 40" fill="none" xmlns="http://www.w3.org/2000/svg">
<g clip-path="url(#clip0_23_6325)">
<path fill-rule="evenodd" clip-rule="evenodd" d="M20.3542 0C9.1 0 0 9.16667 0 20.5083C0 29.575 5.82917 37.2458 13.9167 39.9625C14.9292 40.1667 15.3 39.5208 15.3 38.9792C15.3 38.5042 15.2667 36.875 15.2667 35.175C9.60417 36.3958 8.425 32.7292 8.425 32.7292C7.51667 30.3542 6.16667 29.7417 6.16667 29.7417C4.3125 28.4875 6.3 28.4875 6.3 28.4875C8.35417 28.625 9.43333 30.5917 9.43333 30.5917C11.2542 33.7167 14.1833 32.8333 15.3667 32.2875C15.5333 30.9625 16.075 30.0458 16.6458 29.5375C12.1292 29.0625 7.37917 27.2958 7.37917 19.4208C7.37917 17.1792 8.1875 15.3458 9.46667 13.9208C9.2625 13.4125 8.55833 11.3083 9.67083 8.4875C9.67083 8.4875 11.3875 7.94583 15.2667 10.5917C16.925 10.1417 18.6375 9.9125 20.3542 9.9125C22.0708 9.9125 23.825 10.15 25.4417 10.5917C29.3167 7.94167 31.0375 8.4875 31.0375 8.4875C32.15 11.3042 31.4417 13.4125 31.2417 13.9208C32.5542 15.3458 33.3292 17.1792 33.3292 19.4208C33.3292 27.3 28.5792 29.0292 24.0292 29.5375C24.7708 30.1833 25.4125 31.4042 25.4125 33.3417C25.4125 36.0917 25.3792 38.3 25.3792 38.9792C25.3792 39.5208 25.75 40.1667 26.7625 39.9625C34.85 37.2458 40.6792 29.575 40.6792 20.5083C40.7125 9.16667 31.5792 0 20.3583 0L20.3542 0Z" fill="#24292F"/>
</g>
<defs>
<clipPath id="clip0_23_6325">
<rect width="40.6792" height="40" fill="white"/>
</clipPath>
</defs>
</svg>
