<svg viewBox="0 0 20 20" fill="none" xmlns="http://www.w3.org/2000/svg">
<g clip-path="url(#clip0_104_10609)">
<path d="M2.81617 13.3333H0.833984C0.833984 13.6648 0.96568 13.9827 1.2001 14.2171C1.43452 14.4516 1.75246 14.5833 2.08398 14.5833H2.30273C2.34365 14.1243 2.52266 13.6885 2.81617 13.3333Z" fill="#4AA3EF"/>
<path d="M12.5004 13.3333H6.35156C6.64505 13.6885 6.82403 14.1243 6.86492 14.5833H12.5004C12.6109 14.5833 12.7169 14.5394 12.7951 14.4612C12.8732 14.3831 12.9171 14.2771 12.9171 14.1666V13.7499C12.9171 13.6394 12.8732 13.5334 12.7951 13.4553C12.7169 13.3772 12.6109 13.3333 12.5004 13.3333Z" fill="#4AA3EF"/>
<path d="M4.58332 16.25C5.38873 16.25 6.04164 15.5971 6.04164 14.7917C6.04164 13.9863 5.38873 13.3334 4.58332 13.3334C3.77791 13.3334 3.125 13.9863 3.125 14.7917C3.125 15.5971 3.77791 16.25 4.58332 16.25Z" fill="#4AA3EF"/>
<path d="M19.8132 10.7489L18.2123 7.22695C18.0795 6.93593 17.866 6.68915 17.5971 6.51596C17.3282 6.34277 17.0152 6.25046 16.6953 6.25H14.1667C14.0562 6.25 13.9502 6.2939 13.872 6.37204C13.7939 6.45019 13.75 6.55617 13.75 6.66668V13.222C14.0521 12.9003 14.4407 12.6728 14.8691 12.5669C15.2974 12.4609 15.7473 12.4811 16.1645 12.625C16.5817 12.7688 16.9484 13.0302 17.2204 13.3777C17.4924 13.7251 17.6582 14.1438 17.6978 14.5833H18.75C19.0815 14.5833 19.3995 14.4516 19.6339 14.2172C19.8683 13.9828 20 13.6648 20 13.3333V11.611C20 11.3136 19.9363 11.0197 19.8132 10.7489ZM17.9135 10.4166H15.2083C15.0978 10.4166 14.9919 10.3727 14.9137 10.2946C14.8356 10.2165 14.7917 10.1105 14.7917 10V8.33332C14.7917 8.22281 14.8356 8.11683 14.9137 8.03868C14.9919 7.96054 15.0978 7.91664 15.2084 7.91664H16.8877C17.0477 7.91662 17.2043 7.96265 17.3388 8.04924C17.4733 8.13582 17.5801 8.2593 17.6463 8.40492L18.293 9.82758C18.3218 9.89106 18.3343 9.96076 18.3292 10.0303C18.3241 10.0999 18.3017 10.167 18.2639 10.2256C18.2262 10.2843 18.1743 10.3325 18.1131 10.3658C18.0519 10.3992 17.9832 10.4167 17.9135 10.4167V10.4166Z" fill="#4AA3EF"/>
<path d="M15.4173 16.2499C16.2227 16.2499 16.8756 15.597 16.8756 14.7916C16.8756 13.9862 16.2227 13.3333 15.4173 13.3333C14.6119 13.3333 13.959 13.9862 13.959 14.7916C13.959 15.597 14.6119 16.2499 15.4173 16.2499Z" fill="#4AA3EF"/>
<path d="M11.6667 3.75H2.08336C1.75184 3.75 1.4339 3.8817 1.19948 4.11612C0.965056 4.35054 0.833359 4.66848 0.833359 5V10H0.438828C0.231484 10 0.0391016 10.1418 0.00574225 10.3467C-0.00439271 10.4065 -0.00136376 10.4678 0.0146179 10.5263C0.0305996 10.5848 0.0591493 10.6391 0.0982765 10.6854C0.137404 10.7317 0.186166 10.769 0.241165 10.7945C0.296163 10.8201 0.356074 10.8333 0.416719 10.8334H1.43625C1.64383 10.8334 1.83617 10.9752 1.86953 11.18C1.87967 11.2398 1.87664 11.3011 1.86066 11.3596C1.84467 11.4181 1.81612 11.4724 1.777 11.5188C1.73787 11.5651 1.68911 11.6023 1.63411 11.6279C1.57911 11.6534 1.5192 11.6667 1.45855 11.6667H0.439023C0.231484 11.6667 0.0391016 11.8086 0.00574225 12.0133C-0.00439271 12.0731 -0.00136376 12.1344 0.0146179 12.1929C0.0305996 12.2514 0.0591493 12.3057 0.0982765 12.352C0.137404 12.3984 0.186166 12.4356 0.241165 12.4612C0.296163 12.4867 0.356074 12.5 0.416719 12.5H12.5C12.6105 12.5 12.7165 12.4561 12.7947 12.378C12.8728 12.2998 12.9167 12.1938 12.9167 12.0833V5C12.9167 4.66848 12.785 4.35054 12.5506 4.11612C12.3162 3.8817 11.9982 3.75 11.6667 3.75Z" fill="#4AA3EF"/>
</g>
<defs>
<clipPath id="clip0_104_10609">
<rect width="20" height="20" fill="white"/>
</clipPath>
</defs>
</svg>
